<?xml version="1.0" encoding="UTF-8"?>
<svg height="309.70mm" viewBox="0.0 0.0 174.10 309.70" width="174.10mm" xmlns="http://www.w3.org/2000/svg" xmlns:cc="http://creativecommons.org/ns#" xmlns:dc="http://purl.org/dc/elements/1.1/" xmlns:inkscape="http://www.inkscape.org/namespaces/inkscape" xmlns:rdf="http://www.w3.org/1999/02/22-rdf-syntax-ns#" xmlns:svg="http://www.w3.org/2000/svg" xmlns:xlink="http://www.w3.org/1999/xlink">
<!--
UniversalBox - Box with various options for different styles and lids

Created with Boxes.py (https://festi.info/boxes.py)
Creation date: 2021-11-12 23:18:33
Command line (remove spaces between dashes): boxes UniversalBox - -FingerJoint_angle=90.0 - -FingerJoint_style=rectangular - -FingerJoint_surroundingspaces=2.0 - -FingerJoint_edge_width=1.0 - -FingerJoint_finger=2.0 - -FingerJoint_play=0.0 - -FingerJoint_space=2.0 - -FingerJoint_width=1.0 - -Stackable_angle=60 - -Stackable_height=2.0 - -Stackable_holedistance=1.0 - -Stackable_width=4.0 - -Hinge_grip_percentage=0 - -Hinge_outset=0 - -Hinge_outset=1 - -Hinge_pinwidth=0.5 - -Hinge_style=outset - -Hinge_axle=2 - -Hinge_grip_length=0 - -Hinge_hingestrength=1 - -CabinetHinge_bore=3.2 - -CabinetHinge_eyes_per_hinge=5 - -CabinetHinge_hinges=2 - -CabinetHinge_style=inside - -CabinetHinge_eye=1.5 - -CabinetHinge_play=0.05 - -CabinetHinge_spacing=2.0 - -Lid_angle=90.0 - -Lid_hole_width=0 - -Lid_second_pin=0 - -Lid_second_pin=1 - -Lid_spring=both - -Lid_style=rectangular - -Lid_surroundingspaces=2.0 - -Lid_edge_width=1.0 - -Lid_finger=3.0 - -Lid_play=0.05 - -Lid_space=2.0 - -Lid_width=1.0 - -Click_angle=5.0 - -Click_bottom_radius=0.1 - -Click_depth=3.0 - -RoundedTriangleEdge_height=150.0 - -RoundedTriangleEdge_r_hole=2.0 - -RoundedTriangleEdge_radius=30.0 - -RoundedTriangleEdge_outset=1 - -Flex_stretch=1.05 - -Flex_connection=1.0 - -Flex_distance=0.5 - -Flex_width=5.0 - -top_edge=e - -bottom_edge=h - -x=50 - -y=90 - -h=40 - -outside=0 '- -vertical_edges=finger joints' - -lid=flat - -thickness=3.0 - -format=svg - -tabs=0.0 - -debug=0 - -labels=0 - -labels=1 - -reference=0 - -burn=0.15
Url: http://www.festi.info/UniversalBox?FingerJoint_angle=90.0&FingerJoint_style=rectangular&FingerJoint_surroundingspaces=2.0&FingerJoint_edge_width=1.0&FingerJoint_finger=2.0&FingerJoint_play=0.0&FingerJoint_space=2.0&FingerJoint_width=1.0&Stackable_angle=60&Stackable_height=2.0&Stackable_holedistance=1.0&Stackable_width=4.0&Hinge_grip_percentage=0&Hinge_outset=0&Hinge_outset=1&Hinge_pinwidth=0.5&Hinge_style=outset&Hinge_axle=2&Hinge_grip_length=0&Hinge_hingestrength=1&CabinetHinge_bore=3.2&CabinetHinge_eyes_per_hinge=5&CabinetHinge_hinges=2&CabinetHinge_style=inside&CabinetHinge_eye=1.5&CabinetHinge_play=0.05&CabinetHinge_spacing=2.0&Lid_angle=90.0&Lid_hole_width=0&Lid_second_pin=0&Lid_second_pin=1&Lid_spring=both&Lid_style=rectangular&Lid_surroundingspaces=2.0&Lid_edge_width=1.0&Lid_finger=3.0&Lid_play=0.05&Lid_space=2.0&Lid_width=1.0&Click_angle=5.0&Click_bottom_radius=0.1&Click_depth=3.0&RoundedTriangleEdge_height=150.0&RoundedTriangleEdge_r_hole=2.0&RoundedTriangleEdge_radius=30.0&RoundedTriangleEdge_outset=1&Flex_stretch=1.05&Flex_connection=1.0&Flex_distance=0.5&Flex_width=5.0&top_edge=e&bottom_edge=h&x=50&y=90&h=40&outside=0&vertical_edges=finger+joints&lid=flat&thickness=3.0&format=svg&tabs=0.0&debug=0&labels=0&labels=1&reference=0&burn=0.15&render=1
SettingsUrl: http://www.festi.info/UniversalBox?FingerJoint_angle=90.0&FingerJoint_style=rectangular&FingerJoint_surroundingspaces=2.0&FingerJoint_edge_width=1.0&FingerJoint_finger=2.0&FingerJoint_play=0.0&FingerJoint_space=2.0&FingerJoint_width=1.0&Stackable_angle=60&Stackable_height=2.0&Stackable_holedistance=1.0&Stackable_width=4.0&Hinge_grip_percentage=0&Hinge_outset=0&Hinge_outset=1&Hinge_pinwidth=0.5&Hinge_style=outset&Hinge_axle=2&Hinge_grip_length=0&Hinge_hingestrength=1&CabinetHinge_bore=3.2&CabinetHinge_eyes_per_hinge=5&CabinetHinge_hinges=2&CabinetHinge_style=inside&CabinetHinge_eye=1.5&CabinetHinge_play=0.05&CabinetHinge_spacing=2.0&Lid_angle=90.0&Lid_hole_width=0&Lid_second_pin=0&Lid_second_pin=1&Lid_spring=both&Lid_style=rectangular&Lid_surroundingspaces=2.0&Lid_edge_width=1.0&Lid_finger=3.0&Lid_play=0.05&Lid_space=2.0&Lid_width=1.0&Click_angle=5.0&Click_bottom_radius=0.1&Click_depth=3.0&RoundedTriangleEdge_height=150.0&RoundedTriangleEdge_r_hole=2.0&RoundedTriangleEdge_radius=30.0&RoundedTriangleEdge_outset=1&Flex_stretch=1.05&Flex_connection=1.0&Flex_distance=0.5&Flex_width=5.0&top_edge=e&bottom_edge=h&x=50&y=90&h=40&outside=0&vertical_edges=finger+joints&lid=flat&thickness=3.0&format=svg&tabs=0.0&debug=0&labels=0&labels=1&reference=0&burn=0.15
-->
<title>UniversalBox</title>
<metadata>
<rdf:RDF><cc:Work>
<dc:title>Box - UniversalBox</dc:title>
<dc:date>2021-11-12 23:18:33</dc:date>
<dc:source>http://www.festi.info/UniversalBox?FingerJoint_angle=90.0&amp;FingerJoint_style=rectangular&amp;FingerJoint_surroundingspaces=2.0&amp;FingerJoint_edge_width=1.0&amp;FingerJoint_finger=2.0&amp;FingerJoint_play=0.0&amp;FingerJoint_space=2.0&amp;FingerJoint_width=1.0&amp;Stackable_angle=60&amp;Stackable_height=2.0&amp;Stackable_holedistance=1.0&amp;Stackable_width=4.0&amp;Hinge_grip_percentage=0&amp;Hinge_outset=0&amp;Hinge_outset=1&amp;Hinge_pinwidth=0.5&amp;Hinge_style=outset&amp;Hinge_axle=2&amp;Hinge_grip_length=0&amp;Hinge_hingestrength=1&amp;CabinetHinge_bore=3.2&amp;CabinetHinge_eyes_per_hinge=5&amp;CabinetHinge_hinges=2&amp;CabinetHinge_style=inside&amp;CabinetHinge_eye=1.5&amp;CabinetHinge_play=0.05&amp;CabinetHinge_spacing=2.0&amp;Lid_angle=90.0&amp;Lid_hole_width=0&amp;Lid_second_pin=0&amp;Lid_second_pin=1&amp;Lid_spring=both&amp;Lid_style=rectangular&amp;Lid_surroundingspaces=2.0&amp;Lid_edge_width=1.0&amp;Lid_finger=3.0&amp;Lid_play=0.05&amp;Lid_space=2.0&amp;Lid_width=1.0&amp;Click_angle=5.0&amp;Click_bottom_radius=0.1&amp;Click_depth=3.0&amp;RoundedTriangleEdge_height=150.0&amp;RoundedTriangleEdge_r_hole=2.0&amp;RoundedTriangleEdge_radius=30.0&amp;RoundedTriangleEdge_outset=1&amp;Flex_stretch=1.05&amp;Flex_connection=1.0&amp;Flex_distance=0.5&amp;Flex_width=5.0&amp;top_edge=e&amp;bottom_edge=h&amp;x=50&amp;y=90&amp;h=40&amp;outside=0&amp;vertical_edges=finger+joints&amp;lid=flat&amp;thickness=3.0&amp;format=svg&amp;tabs=0.0&amp;debug=0&amp;labels=0&amp;labels=1&amp;reference=0&amp;burn=0.15&amp;render=1</dc:source>
<dc:description>Box with various options for different styles and lids

Created with Boxes.py (https://festi.info/boxes.py)
Command line: boxes UniversalBox --FingerJoint_angle=90.0 --FingerJoint_style=rectangular --FingerJoint_surroundingspaces=2.0 --FingerJoint_edge_width=1.0 --FingerJoint_finger=2.0 --FingerJoint_play=0.0 --FingerJoint_space=2.0 --FingerJoint_width=1.0 --Stackable_angle=60 --Stackable_height=2.0 --Stackable_holedistance=1.0 --Stackable_width=4.0 --Hinge_grip_percentage=0 --Hinge_outset=0 --Hinge_outset=1 --Hinge_pinwidth=0.5 --Hinge_style=outset --Hinge_axle=2 --Hinge_grip_length=0 --Hinge_hingestrength=1 --CabinetHinge_bore=3.2 --CabinetHinge_eyes_per_hinge=5 --CabinetHinge_hinges=2 --CabinetHinge_style=inside --CabinetHinge_eye=1.5 --CabinetHinge_play=0.05 --CabinetHinge_spacing=2.0 --Lid_angle=90.0 --Lid_hole_width=0 --Lid_second_pin=0 --Lid_second_pin=1 --Lid_spring=both --Lid_style=rectangular --Lid_surroundingspaces=2.0 --Lid_edge_width=1.0 --Lid_finger=3.0 --Lid_play=0.05 --Lid_space=2.0 --Lid_width=1.0 --Click_angle=5.0 --Click_bottom_radius=0.1 --Click_depth=3.0 --RoundedTriangleEdge_height=150.0 --RoundedTriangleEdge_r_hole=2.0 --RoundedTriangleEdge_radius=30.0 --RoundedTriangleEdge_outset=1 --Flex_stretch=1.05 --Flex_connection=1.0 --Flex_distance=0.5 --Flex_width=5.0 --top_edge=e --bottom_edge=h --x=50 --y=90 --h=40 --outside=0 '--vertical_edges=finger joints' --lid=flat --thickness=3.0 --format=svg --tabs=0.0 --debug=0 --labels=0 --labels=1 --reference=0 --burn=0.15
Url: http://www.festi.info/UniversalBox?FingerJoint_angle=90.0&amp;FingerJoint_style=rectangular&amp;FingerJoint_surroundingspaces=2.0&amp;FingerJoint_edge_width=1.0&amp;FingerJoint_finger=2.0&amp;FingerJoint_play=0.0&amp;FingerJoint_space=2.0&amp;FingerJoint_width=1.0&amp;Stackable_angle=60&amp;Stackable_height=2.0&amp;Stackable_holedistance=1.0&amp;Stackable_width=4.0&amp;Hinge_grip_percentage=0&amp;Hinge_outset=0&amp;Hinge_outset=1&amp;Hinge_pinwidth=0.5&amp;Hinge_style=outset&amp;Hinge_axle=2&amp;Hinge_grip_length=0&amp;Hinge_hingestrength=1&amp;CabinetHinge_bore=3.2&amp;CabinetHinge_eyes_per_hinge=5&amp;CabinetHinge_hinges=2&amp;CabinetHinge_style=inside&amp;CabinetHinge_eye=1.5&amp;CabinetHinge_play=0.05&amp;CabinetHinge_spacing=2.0&amp;Lid_angle=90.0&amp;Lid_hole_width=0&amp;Lid_second_pin=0&amp;Lid_second_pin=1&amp;Lid_spring=both&amp;Lid_style=rectangular&amp;Lid_surroundingspaces=2.0&amp;Lid_edge_width=1.0&amp;Lid_finger=3.0&amp;Lid_play=0.05&amp;Lid_space=2.0&amp;Lid_width=1.0&amp;Click_angle=5.0&amp;Click_bottom_radius=0.1&amp;Click_depth=3.0&amp;RoundedTriangleEdge_height=150.0&amp;RoundedTriangleEdge_r_hole=2.0&amp;RoundedTriangleEdge_radius=30.0&amp;RoundedTriangleEdge_outset=1&amp;Flex_stretch=1.05&amp;Flex_connection=1.0&amp;Flex_distance=0.5&amp;Flex_width=5.0&amp;top_edge=e&amp;bottom_edge=h&amp;x=50&amp;y=90&amp;h=40&amp;outside=0&amp;vertical_edges=finger+joints&amp;lid=flat&amp;thickness=3.0&amp;format=svg&amp;tabs=0.0&amp;debug=0&amp;labels=0&amp;labels=1&amp;reference=0&amp;burn=0.15&amp;render=1
SettingsUrl: http://www.festi.info/UniversalBox?FingerJoint_angle=90.0&amp;FingerJoint_style=rectangular&amp;FingerJoint_surroundingspaces=2.0&amp;FingerJoint_edge_width=1.0&amp;FingerJoint_finger=2.0&amp;FingerJoint_play=0.0&amp;FingerJoint_space=2.0&amp;FingerJoint_width=1.0&amp;Stackable_angle=60&amp;Stackable_height=2.0&amp;Stackable_holedistance=1.0&amp;Stackable_width=4.0&amp;Hinge_grip_percentage=0&amp;Hinge_outset=0&amp;Hinge_outset=1&amp;Hinge_pinwidth=0.5&amp;Hinge_style=outset&amp;Hinge_axle=2&amp;Hinge_grip_length=0&amp;Hinge_hingestrength=1&amp;CabinetHinge_bore=3.2&amp;CabinetHinge_eyes_per_hinge=5&amp;CabinetHinge_hinges=2&amp;CabinetHinge_style=inside&amp;CabinetHinge_eye=1.5&amp;CabinetHinge_play=0.05&amp;CabinetHinge_spacing=2.0&amp;Lid_angle=90.0&amp;Lid_hole_width=0&amp;Lid_second_pin=0&amp;Lid_second_pin=1&amp;Lid_spring=both&amp;Lid_style=rectangular&amp;Lid_surroundingspaces=2.0&amp;Lid_edge_width=1.0&amp;Lid_finger=3.0&amp;Lid_play=0.05&amp;Lid_space=2.0&amp;Lid_width=1.0&amp;Click_angle=5.0&amp;Click_bottom_radius=0.1&amp;Click_depth=3.0&amp;RoundedTriangleEdge_height=150.0&amp;RoundedTriangleEdge_r_hole=2.0&amp;RoundedTriangleEdge_radius=30.0&amp;RoundedTriangleEdge_outset=1&amp;Flex_stretch=1.05&amp;Flex_connection=1.0&amp;Flex_distance=0.5&amp;Flex_width=5.0&amp;top_edge=e&amp;bottom_edge=h&amp;x=50&amp;y=90&amp;h=40&amp;outside=0&amp;vertical_edges=finger+joints&amp;lid=flat&amp;thickness=3.0&amp;format=svg&amp;tabs=0.0&amp;debug=0&amp;labels=0&amp;labels=1&amp;reference=0&amp;burn=0.15
</dc:description>
</cc:Work></rdf:RDF></metadata>
<g id="p-0" style="fill:none;stroke-linecap:round;stroke-linejoin:round;">
  <path d="M 26.150 296.400 H 23.300 C 23.150 296.400 23.300 296.550 23.300 296.400 V 293.700 C 23.300 293.550 23.150 293.700 23.300 293.700 H 29.000 C 29.150 293.700 29.000 293.550 29.000 293.700 V 296.400 C 29.000 296.550 29.150 296.400 29.000 296.400 H 26.150 Z" stroke="rgb(0,0,255)" stroke-width="0.30"/>
  <path d="M 38.150 296.400 H 35.300 C 35.150 296.400 35.300 296.550 35.300 296.400 V 293.700 C 35.300 293.550 35.150 293.700 35.300 293.700 H 41.000 C 41.150 293.700 41.000 293.550 41.000 293.700 V 296.400 C 41.000 296.550 41.150 296.400 41.000 296.400 H 38.150 Z" stroke="rgb(0,0,255)" stroke-width="0.30"/>
  <path d="M 50.150 296.400 H 47.300 C 47.150 296.400 47.300 296.550 47.300 296.400 V 293.700 C 47.300 293.550 47.150 293.700 47.300 293.700 H 53.000 C 53.150 293.700 53.000 293.550 53.000 293.700 V 296.400 C 53.000 296.550 53.150 296.400 53.000 296.400 H 50.150 Z" stroke="rgb(0,0,255)" stroke-width="0.30"/>
  <text alignment-baseline="hanging" font-size="4px" style="font-family: sans-serif ; font-weight: normal; font-style: normal; fill: rgb(255,0,0)" text-anchor="middle" transform="matrix( 1.000 0.000 0.000 1.000 38.150 274.700 )"/><path d="M 13.150 299.700 H 63.150 H 66.150 C 66.233 299.700 66.300 299.633 66.300 299.550 V 291.550 C 66.300 291.467 66.233 291.400 66.150 291.400 H 63.300 C 63.150 291.400 63.300 291.550 63.300 291.400 V 285.700 C 63.300 285.550 63.150 285.700 63.300 285.700 H 66.150 C 66.233 285.700 66.300 285.633 66.300 285.550 V 279.550 C 66.300 279.467 66.233 279.400 66.150 279.400 H 63.300 C 63.150 279.400 63.300 279.550 63.300 279.400 V 273.700 C 63.300 273.550 63.150 273.700 63.300 273.700 H 66.150 C 66.233 273.700 66.300 273.633 66.300 273.550 V 267.550 C 66.300 267.467 66.233 267.400 66.150 267.400 H 63.300 C 63.150 267.400 63.300 267.550 63.300 267.400 V 261.700 C 63.300 261.550 63.150 261.700 63.300 261.700 H 66.150 C 66.233 261.700 66.300 261.633 66.300 261.550 V 253.550 C 66.300 253.467 66.233 253.400 66.150 253.400 H 63.150 H 13.150 H 10.150 C 10.067 253.400 10.000 253.467 10.000 253.550 V 261.550 C 10.000 261.633 10.067 261.700 10.150 261.700 H 13.000 C 13.150 261.700 13.000 261.550 13.000 261.700 V 267.400 C 13.000 267.550 13.150 267.400 13.000 267.400 H 10.150 C 10.067 267.400 10.000 267.467 10.000 267.550 V 273.550 C 10.000 273.633 10.067 273.700 10.150 273.700 H 13.000 C 13.150 273.700 13.000 273.550 13.000 273.700 V 279.400 C 13.000 279.550 13.150 279.400 13.000 279.400 H 10.150 C 10.067 279.400 10.000 279.467 10.000 279.550 V 285.550 C 10.000 285.633 10.067 285.700 10.150 285.700 H 13.000 C 13.150 285.700 13.000 285.550 13.000 285.700 V 291.400 C 13.000 291.550 13.150 291.400 13.000 291.400 H 10.150 C 10.067 291.400 10.000 291.467 10.000 291.550 V 299.550 C 10.000 299.633 10.067 299.700 10.150 299.700 H 13.150" stroke="rgb(0,0,0)" stroke-width="0.30"/>
</g>
<g id="p-1" style="fill:none;stroke-linecap:round;stroke-linejoin:round;">
  <path d="M 26.150 248.600 H 23.300 C 23.150 248.600 23.300 248.750 23.300 248.600 V 245.900 C 23.300 245.750 23.150 245.900 23.300 245.900 H 29.000 C 29.150 245.900 29.000 245.750 29.000 245.900 V 248.600 C 29.000 248.750 29.150 248.600 29.000 248.600 H 26.150 Z" stroke="rgb(0,0,255)" stroke-width="0.30"/>
  <path d="M 38.150 248.600 H 35.300 C 35.150 248.600 35.300 248.750 35.300 248.600 V 245.900 C 35.300 245.750 35.150 245.900 35.300 245.900 H 41.000 C 41.150 245.900 41.000 245.750 41.000 245.900 V 248.600 C 41.000 248.750 41.150 248.600 41.000 248.600 H 38.150 Z" stroke="rgb(0,0,255)" stroke-width="0.30"/>
  <path d="M 50.150 248.600 H 47.300 C 47.150 248.600 47.300 248.750 47.300 248.600 V 245.900 C 47.300 245.750 47.150 245.900 47.300 245.900 H 53.000 C 53.150 245.900 53.000 245.750 53.000 245.900 V 248.600 C 53.000 248.750 53.150 248.600 53.000 248.600 H 50.150 Z" stroke="rgb(0,0,255)" stroke-width="0.30"/>
  <text alignment-baseline="hanging" font-size="4px" style="font-family: sans-serif ; font-weight: normal; font-style: normal; fill: rgb(255,0,0)" text-anchor="middle" transform="matrix( 1.000 0.000 0.000 1.000 38.150 226.900 )"/><path d="M 13.150 251.900 H 63.150 H 66.150 C 66.233 251.900 66.300 251.833 66.300 251.750 V 243.750 C 66.300 243.667 66.233 243.600 66.150 243.600 H 63.300 C 63.150 243.600 63.300 243.750 63.300 243.600 V 237.900 C 63.300 237.750 63.150 237.900 63.300 237.900 H 66.150 C 66.233 237.900 66.300 237.833 66.300 237.750 V 231.750 C 66.300 231.667 66.233 231.600 66.150 231.600 H 63.300 C 63.150 231.600 63.300 231.750 63.300 231.600 V 225.900 C 63.300 225.750 63.150 225.900 63.300 225.900 H 66.150 C 66.233 225.900 66.300 225.833 66.300 225.750 V 219.750 C 66.300 219.667 66.233 219.600 66.150 219.600 H 63.300 C 63.150 219.600 63.300 219.750 63.300 219.600 V 213.900 C 63.300 213.750 63.150 213.900 63.300 213.900 H 66.150 C 66.233 213.900 66.300 213.833 66.300 213.750 V 205.750 C 66.300 205.667 66.233 205.600 66.150 205.600 H 63.150 H 13.150 H 10.150 C 10.067 205.600 10.000 205.667 10.000 205.750 V 213.750 C 10.000 213.833 10.067 213.900 10.150 213.900 H 13.000 C 13.150 213.900 13.000 213.750 13.000 213.900 V 219.600 C 13.000 219.750 13.150 219.600 13.000 219.600 H 10.150 C 10.067 219.600 10.000 219.667 10.000 219.750 V 225.750 C 10.000 225.833 10.067 225.900 10.150 225.900 H 13.000 C 13.150 225.900 13.000 225.750 13.000 225.900 V 231.600 C 13.000 231.750 13.150 231.600 13.000 231.600 H 10.150 C 10.067 231.600 10.000 231.667 10.000 231.750 V 237.750 C 10.000 237.833 10.067 237.900 10.150 237.900 H 13.000 C 13.150 237.900 13.000 237.750 13.000 237.900 V 243.600 C 13.000 243.750 13.150 243.600 13.000 243.600 H 10.150 C 10.067 243.600 10.000 243.667 10.000 243.750 V 251.750 C 10.000 251.833 10.067 251.900 10.150 251.900 H 13.150" stroke="rgb(0,0,0)" stroke-width="0.30"/>
</g>
<g id="p-2" style="fill:none;stroke-linecap:round;stroke-linejoin:round;">
  <text alignment-baseline="hanging" font-size="4px" style="font-family: sans-serif ; font-weight: normal; font-style: normal; fill: rgb(255,0,0)" text-anchor="middle" transform="matrix( 1.000 0.000 0.000 1.000 38.150 154.100 )"/><path d="M 13.150 201.100 H 23.000 C 23.150 201.100 23.000 200.950 23.000 201.100 V 203.950 C 23.000 204.033 23.067 204.100 23.150 204.100 H 29.150 C 29.233 204.100 29.300 204.033 29.300 203.950 V 201.100 C 29.300 200.950 29.150 201.100 29.300 201.100 H 35.000 C 35.150 201.100 35.000 200.950 35.000 201.100 V 203.950 C 35.000 204.033 35.067 204.100 35.150 204.100 H 41.150 C 41.233 204.100 41.300 204.033 41.300 203.950 V 201.100 C 41.300 200.950 41.150 201.100 41.300 201.100 H 47.000 C 47.150 201.100 47.000 200.950 47.000 201.100 V 203.950 C 47.000 204.033 47.067 204.100 47.150 204.100 H 53.150 C 53.233 204.100 53.300 204.033 53.300 203.950 V 201.100 C 53.300 200.950 53.150 201.100 53.300 201.100 H 63.150 C 63.233 201.100 63.300 201.033 63.300 200.950 V 195.100 C 63.300 194.950 63.150 195.100 63.300 195.100 H 66.150 C 66.233 195.100 66.300 195.033 66.300 194.950 V 188.950 C 66.300 188.867 66.233 188.800 66.150 188.800 H 63.300 C 63.150 188.800 63.300 188.950 63.300 188.800 V 183.100 C 63.300 182.950 63.150 183.100 63.300 183.100 H 66.150 C 66.233 183.100 66.300 183.033 66.300 182.950 V 176.950 C 66.300 176.867 66.233 176.800 66.150 176.800 H 63.300 C 63.150 176.800 63.300 176.950 63.300 176.800 V 171.100 C 63.300 170.950 63.150 171.100 63.300 171.100 H 66.150 C 66.233 171.100 66.300 171.033 66.300 170.950 V 164.950 C 66.300 164.867 66.233 164.800 66.150 164.800 H 63.300 C 63.150 164.800 63.300 164.950 63.300 164.800 V 159.100 C 63.300 158.950 63.150 159.100 63.300 159.100 H 66.150 C 66.233 159.100 66.300 159.033 66.300 158.950 V 152.950 C 66.300 152.867 66.233 152.800 66.150 152.800 H 63.300 C 63.150 152.800 63.300 152.950 63.300 152.800 V 147.100 C 63.300 146.950 63.150 147.100 63.300 147.100 H 66.150 C 66.233 147.100 66.300 147.033 66.300 146.950 V 140.950 C 66.300 140.867 66.233 140.800 66.150 140.800 H 63.300 C 63.150 140.800 63.300 140.950 63.300 140.800 V 135.100 C 63.300 134.950 63.150 135.100 63.300 135.100 H 66.150 C 66.233 135.100 66.300 135.033 66.300 134.950 V 128.950 C 66.300 128.867 66.233 128.800 66.150 128.800 H 63.300 C 63.150 128.800 63.300 128.950 63.300 128.800 V 123.100 C 63.300 122.950 63.150 123.100 63.300 123.100 H 66.150 C 66.233 123.100 66.300 123.033 66.300 122.950 V 116.950 C 66.300 116.867 66.233 116.800 66.150 116.800 H 63.300 C 63.150 116.800 63.300 116.950 63.300 116.800 V 110.950 C 63.300 110.867 63.233 110.800 63.150 110.800 H 53.300 C 53.150 110.800 53.300 110.950 53.300 110.800 V 107.950 C 53.300 107.867 53.233 107.800 53.150 107.800 H 47.150 C 47.067 107.800 47.000 107.867 47.000 107.950 V 110.800 C 47.000 110.950 47.150 110.800 47.000 110.800 H 41.300 C 41.150 110.800 41.300 110.950 41.300 110.800 V 107.950 C 41.300 107.867 41.233 107.800 41.150 107.800 H 35.150 C 35.067 107.800 35.000 107.867 35.000 107.950 V 110.800 C 35.000 110.950 35.150 110.800 35.000 110.800 H 29.300 C 29.150 110.800 29.300 110.950 29.300 110.800 V 107.950 C 29.300 107.867 29.233 107.800 29.150 107.800 H 23.150 C 23.067 107.800 23.000 107.867 23.000 107.950 V 110.800 C 23.000 110.950 23.150 110.800 23.000 110.800 H 13.150 C 13.067 110.800 13.000 110.867 13.000 110.950 V 116.800 C 13.000 116.950 13.150 116.800 13.000 116.800 H 10.150 C 10.067 116.800 10.000 116.867 10.000 116.950 V 122.950 C 10.000 123.033 10.067 123.100 10.150 123.100 H 13.000 C 13.150 123.100 13.000 122.950 13.000 123.100 V 128.800 C 13.000 128.950 13.150 128.800 13.000 128.800 H 10.150 C 10.067 128.800 10.000 128.867 10.000 128.950 V 134.950 C 10.000 135.033 10.067 135.100 10.150 135.100 H 13.000 C 13.150 135.100 13.000 134.950 13.000 135.100 V 140.800 C 13.000 140.950 13.150 140.800 13.000 140.800 H 10.150 C 10.067 140.800 10.000 140.867 10.000 140.950 V 146.950 C 10.000 147.033 10.067 147.100 10.150 147.100 H 13.000 C 13.150 147.100 13.000 146.950 13.000 147.100 V 152.800 C 13.000 152.950 13.150 152.800 13.000 152.800 H 10.150 C 10.067 152.800 10.000 152.867 10.000 152.950 V 158.950 C 10.000 159.033 10.067 159.100 10.150 159.100 H 13.000 C 13.150 159.100 13.000 158.950 13.000 159.100 V 164.800 C 13.000 164.950 13.150 164.800 13.000 164.800 H 10.150 C 10.067 164.800 10.000 164.867 10.000 164.950 V 170.950 C 10.000 171.033 10.067 171.100 10.150 171.100 H 13.000 C 13.150 171.100 13.000 170.950 13.000 171.100 V 176.800 C 13.000 176.950 13.150 176.800 13.000 176.800 H 10.150 C 10.067 176.800 10.000 176.867 10.000 176.950 V 182.950 C 10.000 183.033 10.067 183.100 10.150 183.100 H 13.000 C 13.150 183.100 13.000 182.950 13.000 183.100 V 188.800 C 13.000 188.950 13.150 188.800 13.000 188.800 H 10.150 C 10.067 188.800 10.000 188.867 10.000 188.950 V 194.950 C 10.000 195.033 10.067 195.100 10.150 195.100 H 13.000 C 13.150 195.100 13.000 194.950 13.000 195.100 V 200.950 C 13.000 201.033 13.067 201.100 13.150 201.100" stroke="rgb(0,0,0)" stroke-width="0.30"/>
</g>
<g id="p-3" style="fill:none;stroke-linecap:round;stroke-linejoin:round;">
  <text alignment-baseline="hanging" font-size="4px" style="font-family: sans-serif ; font-weight: normal; font-style: normal; fill: rgb(255,0,0)" text-anchor="middle" transform="matrix( 1.000 0.000 0.000 1.000 35.150 59.300 )"/><path d="M 10.150 106.300 H 60.150 C 60.233 106.300 60.300 106.233 60.300 106.150 V 16.150 C 60.300 16.067 60.233 16.000 60.150 16.000 H 10.150 C 10.067 16.000 10.000 16.067 10.000 16.150 V 106.150 C 10.000 106.233 10.067 106.300 10.150 106.300" stroke="rgb(0,0,0)" stroke-width="0.30"/>
</g>
<g id="p-4" style="fill:none;stroke-linecap:round;stroke-linejoin:round;">
  <text alignment-baseline="hanging" font-size="4px" style="font-family: sans-serif ; font-weight: normal; font-style: normal; fill: rgb(255,0,0)" text-anchor="middle" transform="matrix( 1.000 0.000 0.000 1.000 89.950 56.300 )"/><path d="M 64.950 106.300 H 114.950 H 117.950 C 118.033 106.300 118.100 106.233 118.100 106.150 V 103.150 V 13.150 V 10.150 C 118.100 10.067 118.033 10.000 117.950 10.000 H 114.950 H 64.950 H 61.950 C 61.867 10.000 61.800 10.067 61.800 10.150 V 13.150 V 103.150 V 106.150 C 61.800 106.233 61.867 106.300 61.950 106.300 H 64.950" stroke="rgb(0,0,0)" stroke-width="0.30"/>
</g>
<g id="p-5" style="fill:none;stroke-linecap:round;stroke-linejoin:round;">
  <path d="M 79.950 296.400 H 77.100 C 76.950 296.400 77.100 296.550 77.100 296.400 V 293.700 C 77.100 293.550 76.950 293.700 77.100 293.700 H 82.800 C 82.950 293.700 82.800 293.550 82.800 293.700 V 296.400 C 82.800 296.550 82.950 296.400 82.800 296.400 H 79.950 Z" stroke="rgb(0,0,255)" stroke-width="0.30"/>
  <path d="M 91.950 296.400 H 89.100 C 88.950 296.400 89.100 296.550 89.100 296.400 V 293.700 C 89.100 293.550 88.950 293.700 89.100 293.700 H 94.800 C 94.950 293.700 94.800 293.550 94.800 293.700 V 296.400 C 94.800 296.550 94.950 296.400 94.800 296.400 H 91.950 Z" stroke="rgb(0,0,255)" stroke-width="0.30"/>
  <path d="M 103.950 296.400 H 101.100 C 100.950 296.400 101.100 296.550 101.100 296.400 V 293.700 C 101.100 293.550 100.950 293.700 101.100 293.700 H 106.800 C 106.950 293.700 106.800 293.550 106.800 293.700 V 296.400 C 106.800 296.550 106.950 296.400 106.800 296.400 H 103.950 Z" stroke="rgb(0,0,255)" stroke-width="0.30"/>
  <path d="M 115.950 296.400 H 113.100 C 112.950 296.400 113.100 296.550 113.100 296.400 V 293.700 C 113.100 293.550 112.950 293.700 113.100 293.700 H 118.800 C 118.950 293.700 118.800 293.550 118.800 293.700 V 296.400 C 118.800 296.550 118.950 296.400 118.800 296.400 H 115.950 Z" stroke="rgb(0,0,255)" stroke-width="0.30"/>
  <path d="M 127.950 296.400 H 125.100 C 124.950 296.400 125.100 296.550 125.100 296.400 V 293.700 C 125.100 293.550 124.950 293.700 125.100 293.700 H 130.800 C 130.950 293.700 130.800 293.550 130.800 293.700 V 296.400 C 130.800 296.550 130.950 296.400 130.800 296.400 H 127.950 Z" stroke="rgb(0,0,255)" stroke-width="0.30"/>
  <path d="M 139.950 296.400 H 137.100 C 136.950 296.400 137.100 296.550 137.100 296.400 V 293.700 C 137.100 293.550 136.950 293.700 137.100 293.700 H 142.800 C 142.950 293.700 142.800 293.550 142.800 293.700 V 296.400 C 142.800 296.550 142.950 296.400 142.800 296.400 H 139.950 Z" stroke="rgb(0,0,255)" stroke-width="0.30"/>
  <path d="M 151.950 296.400 H 149.100 C 148.950 296.400 149.100 296.550 149.100 296.400 V 293.700 C 149.100 293.550 148.950 293.700 149.100 293.700 H 154.800 C 154.950 293.700 154.800 293.550 154.800 293.700 V 296.400 C 154.800 296.550 154.950 296.400 154.800 296.400 H 151.950 Z" stroke="rgb(0,0,255)" stroke-width="0.30"/>
  <text alignment-baseline="hanging" font-size="4px" style="font-family: sans-serif ; font-weight: normal; font-style: normal; fill: rgb(255,0,0)" text-anchor="middle" transform="matrix( 1.000 0.000 0.000 1.000 115.950 274.700 )"/><path d="M 70.950 299.700 H 160.950 C 161.033 299.700 161.100 299.633 161.100 299.550 V 291.700 C 161.100 291.550 160.950 291.700 161.100 291.700 H 163.950 C 164.033 291.700 164.100 291.633 164.100 291.550 V 285.550 C 164.100 285.467 164.033 285.400 163.950 285.400 H 161.100 C 160.950 285.400 161.100 285.550 161.100 285.400 V 279.700 C 161.100 279.550 160.950 279.700 161.100 279.700 H 163.950 C 164.033 279.700 164.100 279.633 164.100 279.550 V 273.550 C 164.100 273.467 164.033 273.400 163.950 273.400 H 161.100 C 160.950 273.400 161.100 273.550 161.100 273.400 V 267.700 C 161.100 267.550 160.950 267.700 161.100 267.700 H 163.950 C 164.033 267.700 164.100 267.633 164.100 267.550 V 261.550 C 164.100 261.467 164.033 261.400 163.950 261.400 H 161.100 C 160.950 261.400 161.100 261.550 161.100 261.400 V 253.550 C 161.100 253.467 161.033 253.400 160.950 253.400 H 70.950 C 70.867 253.400 70.800 253.467 70.800 253.550 V 261.400 C 70.800 261.550 70.950 261.400 70.800 261.400 H 67.950 C 67.867 261.400 67.800 261.467 67.800 261.550 V 267.550 C 67.800 267.633 67.867 267.700 67.950 267.700 H 70.800 C 70.950 267.700 70.800 267.550 70.800 267.700 V 273.400 C 70.800 273.550 70.950 273.400 70.800 273.400 H 67.950 C 67.867 273.400 67.800 273.467 67.800 273.550 V 279.550 C 67.800 279.633 67.867 279.700 67.950 279.700 H 70.800 C 70.950 279.700 70.800 279.550 70.800 279.700 V 285.400 C 70.800 285.550 70.950 285.400 70.800 285.400 H 67.950 C 67.867 285.400 67.800 285.467 67.800 285.550 V 291.550 C 67.800 291.633 67.867 291.700 67.950 291.700 H 70.800 C 70.950 291.700 70.800 291.550 70.800 291.700 V 299.550 C 70.800 299.633 70.867 299.700 70.950 299.700" stroke="rgb(0,0,0)" stroke-width="0.30"/>
</g>
<g id="p-6" style="fill:none;stroke-linecap:round;stroke-linejoin:round;">
  <path d="M 79.950 248.600 H 77.100 C 76.950 248.600 77.100 248.750 77.100 248.600 V 245.900 C 77.100 245.750 76.950 245.900 77.100 245.900 H 82.800 C 82.950 245.900 82.800 245.750 82.800 245.900 V 248.600 C 82.800 248.750 82.950 248.600 82.800 248.600 H 79.950 Z" stroke="rgb(0,0,255)" stroke-width="0.30"/>
  <path d="M 91.950 248.600 H 89.100 C 88.950 248.600 89.100 248.750 89.100 248.600 V 245.900 C 89.100 245.750 88.950 245.900 89.100 245.900 H 94.800 C 94.950 245.900 94.800 245.750 94.800 245.900 V 248.600 C 94.800 248.750 94.950 248.600 94.800 248.600 H 91.950 Z" stroke="rgb(0,0,255)" stroke-width="0.30"/>
  <path d="M 103.950 248.600 H 101.100 C 100.950 248.600 101.100 248.750 101.100 248.600 V 245.900 C 101.100 245.750 100.950 245.900 101.100 245.900 H 106.800 C 106.950 245.900 106.800 245.750 106.800 245.900 V 248.600 C 106.800 248.750 106.950 248.600 106.800 248.600 H 103.950 Z" stroke="rgb(0,0,255)" stroke-width="0.30"/>
  <path d="M 115.950 248.600 H 113.100 C 112.950 248.600 113.100 248.750 113.100 248.600 V 245.900 C 113.100 245.750 112.950 245.900 113.100 245.900 H 118.800 C 118.950 245.900 118.800 245.750 118.800 245.900 V 248.600 C 118.800 248.750 118.950 248.600 118.800 248.600 H 115.950 Z" stroke="rgb(0,0,255)" stroke-width="0.30"/>
  <path d="M 127.950 248.600 H 125.100 C 124.950 248.600 125.100 248.750 125.100 248.600 V 245.900 C 125.100 245.750 124.950 245.900 125.100 245.900 H 130.800 C 130.950 245.900 130.800 245.750 130.800 245.900 V 248.600 C 130.800 248.750 130.950 248.600 130.800 248.600 H 127.950 Z" stroke="rgb(0,0,255)" stroke-width="0.30"/>
  <path d="M 139.950 248.600 H 137.100 C 136.950 248.600 137.100 248.750 137.100 248.600 V 245.900 C 137.100 245.750 136.950 245.900 137.100 245.900 H 142.800 C 142.950 245.900 142.800 245.750 142.800 245.900 V 248.600 C 142.800 248.750 142.950 248.600 142.800 248.600 H 139.950 Z" stroke="rgb(0,0,255)" stroke-width="0.30"/>
  <path d="M 151.950 248.600 H 149.100 C 148.950 248.600 149.100 248.750 149.100 248.600 V 245.900 C 149.100 245.750 148.950 245.900 149.100 245.900 H 154.800 C 154.950 245.900 154.800 245.750 154.800 245.900 V 248.600 C 154.800 248.750 154.950 248.600 154.800 248.600 H 151.950 Z" stroke="rgb(0,0,255)" stroke-width="0.30"/>
  <text alignment-baseline="hanging" font-size="4px" style="font-family: sans-serif ; font-weight: normal; font-style: normal; fill: rgb(255,0,0)" text-anchor="middle" transform="matrix( 1.000 0.000 0.000 1.000 115.950 226.900 )"/><path d="M 70.950 251.900 H 160.950 C 161.033 251.900 161.100 251.833 161.100 251.750 V 243.900 C 161.100 243.750 160.950 243.900 161.100 243.900 H 163.950 C 164.033 243.900 164.100 243.833 164.100 243.750 V 237.750 C 164.100 237.667 164.033 237.600 163.950 237.600 H 161.100 C 160.950 237.600 161.100 237.750 161.100 237.600 V 231.900 C 161.100 231.750 160.950 231.900 161.100 231.900 H 163.950 C 164.033 231.900 164.100 231.833 164.100 231.750 V 225.750 C 164.100 225.667 164.033 225.600 163.950 225.600 H 161.100 C 160.950 225.600 161.100 225.750 161.100 225.600 V 219.900 C 161.100 219.750 160.950 219.900 161.100 219.900 H 163.950 C 164.033 219.900 164.100 219.833 164.100 219.750 V 213.750 C 164.100 213.667 164.033 213.600 163.950 213.600 H 161.100 C 160.950 213.600 161.100 213.750 161.100 213.600 V 205.750 C 161.100 205.667 161.033 205.600 160.950 205.600 H 70.950 C 70.867 205.600 70.800 205.667 70.800 205.750 V 213.600 C 70.800 213.750 70.950 213.600 70.800 213.600 H 67.950 C 67.867 213.600 67.800 213.667 67.800 213.750 V 219.750 C 67.800 219.833 67.867 219.900 67.950 219.900 H 70.800 C 70.950 219.900 70.800 219.750 70.800 219.900 V 225.600 C 70.800 225.750 70.950 225.600 70.800 225.600 H 67.950 C 67.867 225.600 67.800 225.667 67.800 225.750 V 231.750 C 67.800 231.833 67.867 231.900 67.950 231.900 H 70.800 C 70.950 231.900 70.800 231.750 70.800 231.900 V 237.600 C 70.800 237.750 70.950 237.600 70.800 237.600 H 67.950 C 67.867 237.600 67.800 237.667 67.800 237.750 V 243.750 C 67.800 243.833 67.867 243.900 67.950 243.900 H 70.800 C 70.950 243.900 70.800 243.750 70.800 243.900 V 251.750 C 70.800 251.833 70.867 251.900 70.950 251.900" stroke="rgb(0,0,0)" stroke-width="0.30"/>
</g>
</svg>