%TF.GenerationSoftware,KiCad,Pcbnew,5.1.10*%
%TF.CreationDate,2021-10-21T14:21:38+02:00*%
%TF.ProjectId,ermerBeeperTHT,65726d65-7242-4656-9570-65725448542e,rev?*%
%TF.SameCoordinates,Original*%
%TF.FileFunction,Legend,Bot*%
%TF.FilePolarity,Positive*%
%FSLAX46Y46*%
G04 Gerber Fmt 4.6, Leading zero omitted, Abs format (unit mm)*
G04 Created by KiCad (PCBNEW 5.1.10) date 2021-10-21 14:21:38*
%MOMM*%
%LPD*%
G01*
G04 APERTURE LIST*
%ADD10C,0.100000*%
%ADD11C,0.150000*%
%ADD12C,0.120000*%
G04 APERTURE END LIST*
D10*
X75376486Y-58324319D02*
X75435046Y-58336766D01*
X75564613Y-58303101D01*
X75635621Y-58256988D01*
X75719076Y-58152315D01*
X75743970Y-58035195D01*
X75733361Y-57941131D01*
X75676639Y-57776060D01*
X75607470Y-57669549D01*
X75479741Y-57550590D01*
X75398124Y-57502639D01*
X75281004Y-57477744D01*
X75151437Y-57511410D01*
X75080429Y-57557523D01*
X74996974Y-57662195D01*
X74984527Y-57720756D01*
X74630908Y-58808503D02*
X74689468Y-58820950D01*
X74819035Y-58787285D01*
X74890043Y-58741172D01*
X74973497Y-58636499D01*
X74998392Y-58519379D01*
X74987783Y-58425315D01*
X74931061Y-58260244D01*
X74861892Y-58153733D01*
X74734163Y-58034774D01*
X74652546Y-57986823D01*
X74535426Y-57961929D01*
X74405859Y-57995594D01*
X74334851Y-58041707D01*
X74251396Y-58146380D01*
X74238949Y-58204940D01*
X74173036Y-58802988D02*
X73604976Y-59171890D01*
X72923981Y-59543523D02*
X72853905Y-59657586D01*
X72848687Y-59717227D01*
X72870681Y-59809297D01*
X72952315Y-59906584D01*
X73039167Y-59944231D01*
X73098807Y-59949449D01*
X73190877Y-59927456D01*
X73450311Y-59709765D01*
X72878872Y-59028752D01*
X72651868Y-59219231D01*
X72614221Y-59306083D01*
X72609003Y-59365723D01*
X72630996Y-59457793D01*
X72685419Y-59522652D01*
X72772271Y-59560299D01*
X72831912Y-59565517D01*
X72923981Y-59543523D01*
X73150986Y-59353044D01*
X72367467Y-60065757D02*
X72639580Y-60390049D01*
X72295147Y-59518556D02*
X72367467Y-60065757D01*
X71841138Y-59899515D01*
X71967881Y-60511574D02*
X71449013Y-60946955D01*
D11*
X55010457Y-77273597D02*
X55125848Y-77218720D01*
X55266571Y-77038603D01*
X55291903Y-76913364D01*
X55237025Y-76797973D01*
X54876791Y-76516528D01*
X54751552Y-76491196D01*
X54636162Y-76546074D01*
X54495439Y-76726190D01*
X54470107Y-76851429D01*
X54524985Y-76966820D01*
X54615043Y-77037181D01*
X55056908Y-76657251D01*
X54613622Y-77688708D02*
X54623470Y-77768918D01*
X54703680Y-77759070D01*
X54693832Y-77678860D01*
X54613622Y-77688708D01*
X54703680Y-77759070D01*
X53511803Y-77335480D02*
X54211151Y-78389478D01*
X53019273Y-77965889D01*
X53628563Y-78949526D02*
X53638412Y-79029736D01*
X53718622Y-79019887D01*
X53708773Y-78939677D01*
X53628563Y-78949526D01*
X53718622Y-79019887D01*
X64037833Y-66895373D02*
X63951430Y-67054078D01*
X63948609Y-67134841D01*
X63984760Y-67257396D01*
X64101674Y-67382771D01*
X64221409Y-67427383D01*
X64302172Y-67430203D01*
X64424726Y-67394052D01*
X64759059Y-67082281D01*
X63940661Y-66204657D01*
X63648120Y-66477456D01*
X63603508Y-66597191D01*
X63600688Y-66677954D01*
X63636839Y-66800508D01*
X63714781Y-66884091D01*
X63834516Y-66928703D01*
X63915279Y-66931524D01*
X64037833Y-66895373D01*
X64330375Y-66622573D01*
X63881435Y-67900679D02*
X63335836Y-67315596D01*
X63063037Y-67023055D02*
X63143800Y-67025875D01*
X63140980Y-67106638D01*
X63060217Y-67103818D01*
X63063037Y-67023055D01*
X63140980Y-67106638D01*
X62917920Y-67705310D02*
X63463519Y-68290393D01*
X62995862Y-67788893D02*
X62915100Y-67786073D01*
X62792545Y-67822224D01*
X62667170Y-67939138D01*
X62622558Y-68058872D01*
X62658709Y-68181427D01*
X63087394Y-68641135D01*
X62293353Y-69381590D02*
X61864668Y-68921882D01*
X61828517Y-68799327D01*
X61873129Y-68679593D01*
X62040295Y-68523708D01*
X62162850Y-68487557D01*
X62254381Y-69339798D02*
X62376936Y-69303647D01*
X62585894Y-69108791D01*
X62630506Y-68989056D01*
X62594355Y-68866502D01*
X62516412Y-68782919D01*
X62396678Y-68738307D01*
X62274123Y-68774458D01*
X62065165Y-68969314D01*
X61942611Y-69005465D01*
X61875436Y-69771303D02*
X61329837Y-69186220D01*
X61485723Y-69353387D02*
X61365989Y-69308775D01*
X61285226Y-69305955D01*
X61162671Y-69342106D01*
X61079088Y-69420049D01*
X60870129Y-69614905D02*
X61206770Y-70394845D01*
X60452213Y-70004619D02*
X61206770Y-70394845D01*
X61485210Y-70525860D01*
X61565973Y-70528681D01*
X61688527Y-70492530D01*
X87380952Y-58371428D02*
X86619047Y-58371428D01*
X87000000Y-58752380D02*
X87000000Y-57990476D01*
X60381986Y-71434374D02*
X59504362Y-70615976D01*
X59914330Y-71935874D02*
X59763573Y-71092093D01*
X59036706Y-71117476D02*
X60005862Y-71083632D01*
X59563588Y-72311999D02*
X58978506Y-71766400D01*
X58685964Y-71493601D02*
X58766727Y-71490781D01*
X58769547Y-71571544D01*
X58688784Y-71574364D01*
X58685964Y-71493601D01*
X58769547Y-71571544D01*
X58705706Y-72058942D02*
X58393935Y-72393275D01*
X58296251Y-71911517D02*
X59048500Y-72613001D01*
X59093112Y-72732736D01*
X59056961Y-72855290D01*
X58979018Y-72938873D01*
X58313685Y-73568568D02*
X58433420Y-73523956D01*
X58589305Y-73356790D01*
X58625456Y-73234235D01*
X58622636Y-73153472D01*
X58578024Y-73033738D01*
X58327274Y-72799910D01*
X58204719Y-72763759D01*
X58123956Y-72766579D01*
X58004222Y-72811191D01*
X57848337Y-72978358D01*
X57812186Y-73100912D01*
X58004735Y-73983664D02*
X57127111Y-73165266D01*
X57653993Y-74359789D02*
X57194285Y-73931105D01*
X57149673Y-73811370D01*
X57185824Y-73688816D01*
X57302738Y-73563441D01*
X57422472Y-73518829D01*
X57503235Y-73516008D01*
X56910717Y-75073067D02*
X57030452Y-75028455D01*
X57186337Y-74861289D01*
X57222488Y-74738734D01*
X57177876Y-74619000D01*
X56843543Y-74307229D01*
X56720988Y-74271078D01*
X56601254Y-74315690D01*
X56445369Y-74482857D01*
X56409218Y-74605411D01*
X56453830Y-74725146D01*
X56537413Y-74803088D01*
X57010710Y-74463115D01*
X55977713Y-74984356D02*
X56562796Y-75529955D01*
X56061296Y-75062299D02*
X55980533Y-75065119D01*
X55860799Y-75109731D01*
X55743885Y-75235106D01*
X55707734Y-75357661D01*
X55752346Y-75477395D01*
X56212054Y-75906080D01*
D10*
X71287898Y-61319503D02*
X71217822Y-61433567D01*
X71055676Y-61569623D01*
X70963606Y-61591617D01*
X70903966Y-61586399D01*
X70817114Y-61548752D01*
X70762691Y-61483893D01*
X70740697Y-61391824D01*
X70745915Y-61332183D01*
X70783562Y-61245331D01*
X70886068Y-61104057D01*
X70923715Y-61017205D01*
X70928933Y-60957564D01*
X70906939Y-60865494D01*
X70852517Y-60800636D01*
X70765665Y-60762989D01*
X70706024Y-60757771D01*
X70613955Y-60779764D01*
X70451808Y-60915821D01*
X70381732Y-61029884D01*
X70503257Y-61701584D02*
X70178965Y-61973698D01*
X70731384Y-61841737D02*
X69932941Y-61351203D01*
X70277375Y-62222696D01*
X68858681Y-62639450D02*
X69239640Y-63093459D01*
X68803136Y-62243959D02*
X69373453Y-62594341D01*
X68951873Y-62948088D01*
X68828496Y-63327925D02*
X68823278Y-63387565D01*
X68882918Y-63392783D01*
X68888136Y-63333143D01*
X68828496Y-63327925D01*
X68882918Y-63392783D01*
X67857471Y-63092729D02*
X67792613Y-63147151D01*
X67754966Y-63234003D01*
X67749748Y-63293644D01*
X67771741Y-63385713D01*
X67848157Y-63542642D01*
X67984214Y-63704788D01*
X68125489Y-63807293D01*
X68212341Y-63844940D01*
X68271981Y-63850158D01*
X68364051Y-63828165D01*
X68428909Y-63773742D01*
X68466557Y-63686890D01*
X68471774Y-63627250D01*
X68449781Y-63535180D01*
X68373365Y-63378252D01*
X68237308Y-63216106D01*
X68096033Y-63113600D01*
X68009182Y-63075953D01*
X67949541Y-63070735D01*
X67857471Y-63092729D01*
D12*
%TO.C,R4*%
X58300000Y-68000000D02*
X58300000Y-66890000D01*
X58300000Y-55640000D02*
X58300000Y-56750000D01*
X56380000Y-66890000D02*
X56380000Y-56750000D01*
X60220000Y-66890000D02*
X56380000Y-66890000D01*
X60220000Y-56750000D02*
X60220000Y-66890000D01*
X56380000Y-56750000D02*
X60220000Y-56750000D01*
%TO.C,R3*%
X72600000Y-13800000D02*
X72600000Y-14910000D01*
X72600000Y-26160000D02*
X72600000Y-25050000D01*
X74520000Y-14910000D02*
X74520000Y-25050000D01*
X70680000Y-14910000D02*
X74520000Y-14910000D01*
X70680000Y-25050000D02*
X70680000Y-14910000D01*
X74520000Y-25050000D02*
X70680000Y-25050000D01*
%TO.C,R2*%
X77100000Y-19700000D02*
X77100000Y-20810000D01*
X77100000Y-32060000D02*
X77100000Y-30950000D01*
X79020000Y-20810000D02*
X79020000Y-30950000D01*
X75180000Y-20810000D02*
X79020000Y-20810000D01*
X75180000Y-30950000D02*
X75180000Y-20810000D01*
X79020000Y-30950000D02*
X75180000Y-30950000D01*
%TO.C,R1*%
X68000000Y-19700000D02*
X68000000Y-20810000D01*
X68000000Y-32060000D02*
X68000000Y-30950000D01*
X69920000Y-20810000D02*
X69920000Y-30950000D01*
X66080000Y-20810000D02*
X69920000Y-20810000D01*
X66080000Y-30950000D02*
X66080000Y-20810000D01*
X69920000Y-30950000D02*
X66080000Y-30950000D01*
%TO.C,Q2*%
X73970000Y-52250000D02*
X77570000Y-52250000D01*
X77578445Y-52272316D02*
G75*
G02*
X76550000Y-56550000I-1808445J-1827684D01*
G01*
X73958547Y-52257844D02*
G75*
G03*
X74950000Y-56550000I1811453J-1842156D01*
G01*
%TO.C,Q1*%
X67470000Y-52250000D02*
X71070000Y-52250000D01*
X71078445Y-52272316D02*
G75*
G02*
X70050000Y-56550000I-1808445J-1827684D01*
G01*
X67458547Y-52257844D02*
G75*
G03*
X68450000Y-56550000I1811453J-1842156D01*
G01*
%TO.C,LS1*%
X91750000Y-22950000D02*
G75*
G03*
X91750000Y-22950000I-19000000J0D01*
G01*
X86250000Y-22950000D02*
G75*
G03*
X86250000Y-22950000I-13500000J0D01*
G01*
%TO.C,C2*%
X75655000Y-49520000D02*
X75970000Y-49520000D01*
X73230000Y-49520000D02*
X73545000Y-49520000D01*
X75655000Y-44280000D02*
X75970000Y-44280000D01*
X73230000Y-44280000D02*
X73545000Y-44280000D01*
X75970000Y-44280000D02*
X75970000Y-49520000D01*
X73230000Y-44280000D02*
X73230000Y-49520000D01*
%TO.C,C1*%
X71655000Y-49520000D02*
X71970000Y-49520000D01*
X69230000Y-49520000D02*
X69545000Y-49520000D01*
X71655000Y-44280000D02*
X71970000Y-44280000D01*
X69230000Y-44280000D02*
X69545000Y-44280000D01*
X71970000Y-44280000D02*
X71970000Y-49520000D01*
X69230000Y-44280000D02*
X69230000Y-49520000D01*
%TO.C,BAT1*%
X84170000Y-58180000D02*
X85500000Y-58180000D01*
X84170000Y-56850000D02*
X84170000Y-58180000D01*
X84170000Y-55580000D02*
X86830000Y-55580000D01*
X86830000Y-55580000D02*
X86830000Y-52980000D01*
X84170000Y-55580000D02*
X84170000Y-52980000D01*
X84170000Y-52980000D02*
X86830000Y-52980000D01*
%TO.C,R4*%
D11*
X59852380Y-65533333D02*
X59376190Y-65200000D01*
X59852380Y-64961904D02*
X58852380Y-64961904D01*
X58852380Y-65342857D01*
X58900000Y-65438095D01*
X58947619Y-65485714D01*
X59042857Y-65533333D01*
X59185714Y-65533333D01*
X59280952Y-65485714D01*
X59328571Y-65438095D01*
X59376190Y-65342857D01*
X59376190Y-64961904D01*
X59185714Y-66390476D02*
X59852380Y-66390476D01*
X58804761Y-66152380D02*
X59519047Y-65914285D01*
X59519047Y-66533333D01*
X57952380Y-60861904D02*
X57952380Y-60385714D01*
X58428571Y-60338095D01*
X58380952Y-60385714D01*
X58333333Y-60480952D01*
X58333333Y-60719047D01*
X58380952Y-60814285D01*
X58428571Y-60861904D01*
X58523809Y-60909523D01*
X58761904Y-60909523D01*
X58857142Y-60861904D01*
X58904761Y-60814285D01*
X58952380Y-60719047D01*
X58952380Y-60480952D01*
X58904761Y-60385714D01*
X58857142Y-60338095D01*
X57952380Y-61766666D02*
X57952380Y-61576190D01*
X58000000Y-61480952D01*
X58047619Y-61433333D01*
X58190476Y-61338095D01*
X58380952Y-61290476D01*
X58761904Y-61290476D01*
X58857142Y-61338095D01*
X58904761Y-61385714D01*
X58952380Y-61480952D01*
X58952380Y-61671428D01*
X58904761Y-61766666D01*
X58857142Y-61814285D01*
X58761904Y-61861904D01*
X58523809Y-61861904D01*
X58428571Y-61814285D01*
X58380952Y-61766666D01*
X58333333Y-61671428D01*
X58333333Y-61480952D01*
X58380952Y-61385714D01*
X58428571Y-61338095D01*
X58523809Y-61290476D01*
X58952380Y-62861904D02*
X58476190Y-62528571D01*
X58952380Y-62290476D02*
X57952380Y-62290476D01*
X57952380Y-62671428D01*
X58000000Y-62766666D01*
X58047619Y-62814285D01*
X58142857Y-62861904D01*
X58285714Y-62861904D01*
X58380952Y-62814285D01*
X58428571Y-62766666D01*
X58476190Y-62671428D01*
X58476190Y-62290476D01*
%TO.C,R3*%
X74202380Y-23583333D02*
X73726190Y-23250000D01*
X74202380Y-23011904D02*
X73202380Y-23011904D01*
X73202380Y-23392857D01*
X73250000Y-23488095D01*
X73297619Y-23535714D01*
X73392857Y-23583333D01*
X73535714Y-23583333D01*
X73630952Y-23535714D01*
X73678571Y-23488095D01*
X73726190Y-23392857D01*
X73726190Y-23011904D01*
X73202380Y-23916666D02*
X73202380Y-24535714D01*
X73583333Y-24202380D01*
X73583333Y-24345238D01*
X73630952Y-24440476D01*
X73678571Y-24488095D01*
X73773809Y-24535714D01*
X74011904Y-24535714D01*
X74107142Y-24488095D01*
X74154761Y-24440476D01*
X74202380Y-24345238D01*
X74202380Y-24059523D01*
X74154761Y-23964285D01*
X74107142Y-23916666D01*
X72102380Y-19019047D02*
X72102380Y-18542857D01*
X72578571Y-18495238D01*
X72530952Y-18542857D01*
X72483333Y-18638095D01*
X72483333Y-18876190D01*
X72530952Y-18971428D01*
X72578571Y-19019047D01*
X72673809Y-19066666D01*
X72911904Y-19066666D01*
X73007142Y-19019047D01*
X73054761Y-18971428D01*
X73102380Y-18876190D01*
X73102380Y-18638095D01*
X73054761Y-18542857D01*
X73007142Y-18495238D01*
X73054761Y-19542857D02*
X73102380Y-19542857D01*
X73197619Y-19495238D01*
X73245238Y-19447619D01*
X72102380Y-20400000D02*
X72102380Y-20209523D01*
X72150000Y-20114285D01*
X72197619Y-20066666D01*
X72340476Y-19971428D01*
X72530952Y-19923809D01*
X72911904Y-19923809D01*
X73007142Y-19971428D01*
X73054761Y-20019047D01*
X73102380Y-20114285D01*
X73102380Y-20304761D01*
X73054761Y-20400000D01*
X73007142Y-20447619D01*
X72911904Y-20495238D01*
X72673809Y-20495238D01*
X72578571Y-20447619D01*
X72530952Y-20400000D01*
X72483333Y-20304761D01*
X72483333Y-20114285D01*
X72530952Y-20019047D01*
X72578571Y-19971428D01*
X72673809Y-19923809D01*
X73102380Y-20923809D02*
X72102380Y-20923809D01*
X72721428Y-21019047D02*
X73102380Y-21304761D01*
X72435714Y-21304761D02*
X72816666Y-20923809D01*
%TO.C,R2*%
X78502380Y-29483333D02*
X78026190Y-29150000D01*
X78502380Y-28911904D02*
X77502380Y-28911904D01*
X77502380Y-29292857D01*
X77550000Y-29388095D01*
X77597619Y-29435714D01*
X77692857Y-29483333D01*
X77835714Y-29483333D01*
X77930952Y-29435714D01*
X77978571Y-29388095D01*
X78026190Y-29292857D01*
X78026190Y-28911904D01*
X77597619Y-29864285D02*
X77550000Y-29911904D01*
X77502380Y-30007142D01*
X77502380Y-30245238D01*
X77550000Y-30340476D01*
X77597619Y-30388095D01*
X77692857Y-30435714D01*
X77788095Y-30435714D01*
X77930952Y-30388095D01*
X78502380Y-29816666D01*
X78502380Y-30435714D01*
X76502380Y-25019047D02*
X76502380Y-24542857D01*
X76978571Y-24495238D01*
X76930952Y-24542857D01*
X76883333Y-24638095D01*
X76883333Y-24876190D01*
X76930952Y-24971428D01*
X76978571Y-25019047D01*
X77073809Y-25066666D01*
X77311904Y-25066666D01*
X77407142Y-25019047D01*
X77454761Y-24971428D01*
X77502380Y-24876190D01*
X77502380Y-24638095D01*
X77454761Y-24542857D01*
X77407142Y-24495238D01*
X77454761Y-25542857D02*
X77502380Y-25542857D01*
X77597619Y-25495238D01*
X77645238Y-25447619D01*
X76502380Y-26400000D02*
X76502380Y-26209523D01*
X76550000Y-26114285D01*
X76597619Y-26066666D01*
X76740476Y-25971428D01*
X76930952Y-25923809D01*
X77311904Y-25923809D01*
X77407142Y-25971428D01*
X77454761Y-26019047D01*
X77502380Y-26114285D01*
X77502380Y-26304761D01*
X77454761Y-26400000D01*
X77407142Y-26447619D01*
X77311904Y-26495238D01*
X77073809Y-26495238D01*
X76978571Y-26447619D01*
X76930952Y-26400000D01*
X76883333Y-26304761D01*
X76883333Y-26114285D01*
X76930952Y-26019047D01*
X76978571Y-25971428D01*
X77073809Y-25923809D01*
X77502380Y-26923809D02*
X76502380Y-26923809D01*
X77121428Y-27019047D02*
X77502380Y-27304761D01*
X76835714Y-27304761D02*
X77216666Y-26923809D01*
%TO.C,R1*%
X69452380Y-29533333D02*
X68976190Y-29200000D01*
X69452380Y-28961904D02*
X68452380Y-28961904D01*
X68452380Y-29342857D01*
X68500000Y-29438095D01*
X68547619Y-29485714D01*
X68642857Y-29533333D01*
X68785714Y-29533333D01*
X68880952Y-29485714D01*
X68928571Y-29438095D01*
X68976190Y-29342857D01*
X68976190Y-28961904D01*
X69452380Y-30485714D02*
X69452380Y-29914285D01*
X69452380Y-30200000D02*
X68452380Y-30200000D01*
X68595238Y-30104761D01*
X68690476Y-30009523D01*
X68738095Y-29914285D01*
X68452380Y-25630952D02*
X68452380Y-25059523D01*
X68452380Y-25345238D02*
X67452380Y-25345238D01*
X67595238Y-25250000D01*
X67690476Y-25154761D01*
X67738095Y-25059523D01*
X68452380Y-26059523D02*
X67452380Y-26059523D01*
X68071428Y-26154761D02*
X68452380Y-26440476D01*
X67785714Y-26440476D02*
X68166666Y-26059523D01*
%TO.C,Q2*%
X75945238Y-51997619D02*
X76040476Y-51950000D01*
X76135714Y-51854761D01*
X76278571Y-51711904D01*
X76373809Y-51664285D01*
X76469047Y-51664285D01*
X76421428Y-51902380D02*
X76516666Y-51854761D01*
X76611904Y-51759523D01*
X76659523Y-51569047D01*
X76659523Y-51235714D01*
X76611904Y-51045238D01*
X76516666Y-50950000D01*
X76421428Y-50902380D01*
X76230952Y-50902380D01*
X76135714Y-50950000D01*
X76040476Y-51045238D01*
X75992857Y-51235714D01*
X75992857Y-51569047D01*
X76040476Y-51759523D01*
X76135714Y-51854761D01*
X76230952Y-51902380D01*
X76421428Y-51902380D01*
X75611904Y-50997619D02*
X75564285Y-50950000D01*
X75469047Y-50902380D01*
X75230952Y-50902380D01*
X75135714Y-50950000D01*
X75088095Y-50997619D01*
X75040476Y-51092857D01*
X75040476Y-51188095D01*
X75088095Y-51330952D01*
X75659523Y-51902380D01*
X75040476Y-51902380D01*
%TO.C,Q1*%
X69345238Y-51997619D02*
X69440476Y-51950000D01*
X69535714Y-51854761D01*
X69678571Y-51711904D01*
X69773809Y-51664285D01*
X69869047Y-51664285D01*
X69821428Y-51902380D02*
X69916666Y-51854761D01*
X70011904Y-51759523D01*
X70059523Y-51569047D01*
X70059523Y-51235714D01*
X70011904Y-51045238D01*
X69916666Y-50950000D01*
X69821428Y-50902380D01*
X69630952Y-50902380D01*
X69535714Y-50950000D01*
X69440476Y-51045238D01*
X69392857Y-51235714D01*
X69392857Y-51569047D01*
X69440476Y-51759523D01*
X69535714Y-51854761D01*
X69630952Y-51902380D01*
X69821428Y-51902380D01*
X68440476Y-51902380D02*
X69011904Y-51902380D01*
X68726190Y-51902380D02*
X68726190Y-50902380D01*
X68821428Y-51045238D01*
X68916666Y-51140476D01*
X69011904Y-51188095D01*
%TO.C,LS1*%
X75461904Y-38554761D02*
X75319047Y-38602380D01*
X75080952Y-38602380D01*
X74985714Y-38554761D01*
X74938095Y-38507142D01*
X74890476Y-38411904D01*
X74890476Y-38316666D01*
X74938095Y-38221428D01*
X74985714Y-38173809D01*
X75080952Y-38126190D01*
X75271428Y-38078571D01*
X75366666Y-38030952D01*
X75414285Y-37983333D01*
X75461904Y-37888095D01*
X75461904Y-37792857D01*
X75414285Y-37697619D01*
X75366666Y-37650000D01*
X75271428Y-37602380D01*
X75033333Y-37602380D01*
X74890476Y-37650000D01*
X74461904Y-37935714D02*
X74461904Y-38935714D01*
X74461904Y-37983333D02*
X74366666Y-37935714D01*
X74176190Y-37935714D01*
X74080952Y-37983333D01*
X74033333Y-38030952D01*
X73985714Y-38126190D01*
X73985714Y-38411904D01*
X74033333Y-38507142D01*
X74080952Y-38554761D01*
X74176190Y-38602380D01*
X74366666Y-38602380D01*
X74461904Y-38554761D01*
X73176190Y-38554761D02*
X73271428Y-38602380D01*
X73461904Y-38602380D01*
X73557142Y-38554761D01*
X73604761Y-38459523D01*
X73604761Y-38078571D01*
X73557142Y-37983333D01*
X73461904Y-37935714D01*
X73271428Y-37935714D01*
X73176190Y-37983333D01*
X73128571Y-38078571D01*
X73128571Y-38173809D01*
X73604761Y-38269047D01*
X72271428Y-38602380D02*
X72271428Y-38078571D01*
X72319047Y-37983333D01*
X72414285Y-37935714D01*
X72604761Y-37935714D01*
X72700000Y-37983333D01*
X72271428Y-38554761D02*
X72366666Y-38602380D01*
X72604761Y-38602380D01*
X72700000Y-38554761D01*
X72747619Y-38459523D01*
X72747619Y-38364285D01*
X72700000Y-38269047D01*
X72604761Y-38221428D01*
X72366666Y-38221428D01*
X72271428Y-38173809D01*
X71795238Y-38602380D02*
X71795238Y-37602380D01*
X71700000Y-38221428D02*
X71414285Y-38602380D01*
X71414285Y-37935714D02*
X71795238Y-38316666D01*
X70604761Y-38554761D02*
X70700000Y-38602380D01*
X70890476Y-38602380D01*
X70985714Y-38554761D01*
X71033333Y-38459523D01*
X71033333Y-38078571D01*
X70985714Y-37983333D01*
X70890476Y-37935714D01*
X70700000Y-37935714D01*
X70604761Y-37983333D01*
X70557142Y-38078571D01*
X70557142Y-38173809D01*
X71033333Y-38269047D01*
X70128571Y-38602380D02*
X70128571Y-37935714D01*
X70128571Y-38126190D02*
X70080952Y-38030952D01*
X70033333Y-37983333D01*
X69938095Y-37935714D01*
X69842857Y-37935714D01*
%TO.C,C2*%
X74957142Y-46633333D02*
X75004761Y-46585714D01*
X75052380Y-46442857D01*
X75052380Y-46347619D01*
X75004761Y-46204761D01*
X74909523Y-46109523D01*
X74814285Y-46061904D01*
X74623809Y-46014285D01*
X74480952Y-46014285D01*
X74290476Y-46061904D01*
X74195238Y-46109523D01*
X74100000Y-46204761D01*
X74052380Y-46347619D01*
X74052380Y-46442857D01*
X74100000Y-46585714D01*
X74147619Y-46633333D01*
X74147619Y-47014285D02*
X74100000Y-47061904D01*
X74052380Y-47157142D01*
X74052380Y-47395238D01*
X74100000Y-47490476D01*
X74147619Y-47538095D01*
X74242857Y-47585714D01*
X74338095Y-47585714D01*
X74480952Y-47538095D01*
X75052380Y-46966666D01*
X75052380Y-47585714D01*
%TO.C,C1*%
X71007142Y-46783333D02*
X71054761Y-46735714D01*
X71102380Y-46592857D01*
X71102380Y-46497619D01*
X71054761Y-46354761D01*
X70959523Y-46259523D01*
X70864285Y-46211904D01*
X70673809Y-46164285D01*
X70530952Y-46164285D01*
X70340476Y-46211904D01*
X70245238Y-46259523D01*
X70150000Y-46354761D01*
X70102380Y-46497619D01*
X70102380Y-46592857D01*
X70150000Y-46735714D01*
X70197619Y-46783333D01*
X71102380Y-47735714D02*
X71102380Y-47164285D01*
X71102380Y-47450000D02*
X70102380Y-47450000D01*
X70245238Y-47354761D01*
X70340476Y-47259523D01*
X70388095Y-47164285D01*
%TO.C,BAT1*%
X83221428Y-56914285D02*
X83173809Y-56771428D01*
X83126190Y-56723809D01*
X83030952Y-56676190D01*
X82888095Y-56676190D01*
X82792857Y-56723809D01*
X82745238Y-56771428D01*
X82697619Y-56866666D01*
X82697619Y-57247619D01*
X83697619Y-57247619D01*
X83697619Y-56914285D01*
X83650000Y-56819047D01*
X83602380Y-56771428D01*
X83507142Y-56723809D01*
X83411904Y-56723809D01*
X83316666Y-56771428D01*
X83269047Y-56819047D01*
X83221428Y-56914285D01*
X83221428Y-57247619D01*
X82983333Y-56295238D02*
X82983333Y-55819047D01*
X82697619Y-56390476D02*
X83697619Y-56057142D01*
X82697619Y-55723809D01*
X83697619Y-55533333D02*
X83697619Y-54961904D01*
X82697619Y-55247619D02*
X83697619Y-55247619D01*
X82697619Y-54104761D02*
X82697619Y-54676190D01*
X82697619Y-54390476D02*
X83697619Y-54390476D01*
X83554761Y-54485714D01*
X83459523Y-54580952D01*
X83411904Y-54676190D01*
%TD*%
M02*
