%TF.GenerationSoftware,KiCad,Pcbnew,5.1.10*%
%TF.CreationDate,2021-10-21T14:21:38+02:00*%
%TF.ProjectId,ermerBeeperTHT,65726d65-7242-4656-9570-65725448542e,rev?*%
%TF.SameCoordinates,Original*%
%TF.FileFunction,Soldermask,Bot*%
%TF.FilePolarity,Negative*%
%FSLAX46Y46*%
G04 Gerber Fmt 4.6, Leading zero omitted, Abs format (unit mm)*
G04 Created by KiCad (PCBNEW 5.1.10) date 2021-10-21 14:21:38*
%MOMM*%
%LPD*%
G01*
G04 APERTURE LIST*
%ADD10O,2.400000X2.400000*%
%ADD11C,2.400000*%
%ADD12C,1.700000*%
%ADD13R,1.100000X1.800000*%
%ADD14C,10.160000*%
%ADD15C,1.600000*%
%ADD16O,1.700000X1.700000*%
%ADD17R,1.700000X1.700000*%
G04 APERTURE END LIST*
D10*
%TO.C,R4*%
X58300000Y-69440000D03*
D11*
X58300000Y-54200000D03*
%TD*%
D12*
%TO.C,REF\u002A\u002A*%
X88350000Y-57000000D03*
%TD*%
%TO.C,REF\u002A\u002A*%
X88350000Y-54300000D03*
%TD*%
D10*
%TO.C,R3*%
X72600000Y-12360000D03*
D11*
X72600000Y-27600000D03*
%TD*%
D10*
%TO.C,R2*%
X77100000Y-18260000D03*
D11*
X77100000Y-33500000D03*
%TD*%
D10*
%TO.C,R1*%
X68000000Y-18260000D03*
D11*
X68000000Y-33500000D03*
%TD*%
D13*
%TO.C,Q2*%
X74500000Y-53700000D03*
G36*
G01*
X76490000Y-54325000D02*
X76490000Y-53075000D01*
G75*
G02*
X76765000Y-52800000I275000J0D01*
G01*
X77315000Y-52800000D01*
G75*
G02*
X77590000Y-53075000I0J-275000D01*
G01*
X77590000Y-54325000D01*
G75*
G02*
X77315000Y-54600000I-275000J0D01*
G01*
X76765000Y-54600000D01*
G75*
G02*
X76490000Y-54325000I0J275000D01*
G01*
G37*
G36*
G01*
X75220000Y-56395000D02*
X75220000Y-55145000D01*
G75*
G02*
X75495000Y-54870000I275000J0D01*
G01*
X76045000Y-54870000D01*
G75*
G02*
X76320000Y-55145000I0J-275000D01*
G01*
X76320000Y-56395000D01*
G75*
G02*
X76045000Y-56670000I-275000J0D01*
G01*
X75495000Y-56670000D01*
G75*
G02*
X75220000Y-56395000I0J275000D01*
G01*
G37*
%TD*%
%TO.C,Q1*%
X68000000Y-53700000D03*
G36*
G01*
X69990000Y-54325000D02*
X69990000Y-53075000D01*
G75*
G02*
X70265000Y-52800000I275000J0D01*
G01*
X70815000Y-52800000D01*
G75*
G02*
X71090000Y-53075000I0J-275000D01*
G01*
X71090000Y-54325000D01*
G75*
G02*
X70815000Y-54600000I-275000J0D01*
G01*
X70265000Y-54600000D01*
G75*
G02*
X69990000Y-54325000I0J275000D01*
G01*
G37*
G36*
G01*
X68720000Y-56395000D02*
X68720000Y-55145000D01*
G75*
G02*
X68995000Y-54870000I275000J0D01*
G01*
X69545000Y-54870000D01*
G75*
G02*
X69820000Y-55145000I0J-275000D01*
G01*
X69820000Y-56395000D01*
G75*
G02*
X69545000Y-56670000I-275000J0D01*
G01*
X68995000Y-56670000D01*
G75*
G02*
X68720000Y-56395000I0J275000D01*
G01*
G37*
%TD*%
%TO.C,LS1*%
G36*
G01*
X68500000Y-37700000D02*
X68500000Y-38700000D01*
G75*
G02*
X68000000Y-39200000I-500000J0D01*
G01*
X64000000Y-39200000D01*
G75*
G02*
X63500000Y-38700000I0J500000D01*
G01*
X63500000Y-37700000D01*
G75*
G02*
X64000000Y-37200000I500000J0D01*
G01*
X68000000Y-37200000D01*
G75*
G02*
X68500000Y-37700000I0J-500000D01*
G01*
G37*
G36*
G01*
X81500000Y-37700000D02*
X81500000Y-38700000D01*
G75*
G02*
X81000000Y-39200000I-500000J0D01*
G01*
X77000000Y-39200000D01*
G75*
G02*
X76500000Y-38700000I0J500000D01*
G01*
X76500000Y-37700000D01*
G75*
G02*
X77000000Y-37200000I500000J0D01*
G01*
X81000000Y-37200000D01*
G75*
G02*
X81500000Y-37700000I0J-500000D01*
G01*
G37*
%TD*%
D14*
%TO.C,J2*%
X82600000Y-46600000D03*
%TD*%
%TO.C,J1*%
X62400000Y-46600000D03*
%TD*%
D15*
%TO.C,C2*%
X74600000Y-49400000D03*
X74600000Y-44400000D03*
%TD*%
%TO.C,C1*%
X70600000Y-49400000D03*
X70600000Y-44400000D03*
%TD*%
D16*
%TO.C,BAT1*%
X85500000Y-54310000D03*
D17*
X85500000Y-56850000D03*
%TD*%
M02*
