%TF.GenerationSoftware,KiCad,Pcbnew,5.1.10*%
%TF.CreationDate,2021-10-21T14:21:38+02:00*%
%TF.ProjectId,ermerBeeperTHT,65726d65-7242-4656-9570-65725448542e,rev?*%
%TF.SameCoordinates,Original*%
%TF.FileFunction,Soldermask,Top*%
%TF.FilePolarity,Negative*%
%FSLAX46Y46*%
G04 Gerber Fmt 4.6, Leading zero omitted, Abs format (unit mm)*
G04 Created by KiCad (PCBNEW 5.1.10) date 2021-10-21 14:21:38*
%MOMM*%
%LPD*%
G01*
G04 APERTURE LIST*
%ADD10C,0.187500*%
%ADD11C,0.300000*%
%ADD12O,2.400000X2.400000*%
%ADD13C,2.400000*%
%ADD14C,1.700000*%
%ADD15R,1.100000X1.800000*%
%ADD16C,10.160000*%
%ADD17C,1.600000*%
%ADD18O,1.700000X1.700000*%
%ADD19R,1.700000X1.700000*%
G04 APERTURE END LIST*
D10*
X76878571Y-25739285D02*
X77057142Y-26239285D01*
X77235714Y-25739285D01*
X77914285Y-26239285D02*
X77485714Y-26239285D01*
X77700000Y-26239285D02*
X77700000Y-25489285D01*
X77628571Y-25596428D01*
X77557142Y-25667857D01*
X77485714Y-25703571D01*
X78235714Y-26167857D02*
X78271428Y-26203571D01*
X78235714Y-26239285D01*
X78200000Y-26203571D01*
X78235714Y-26167857D01*
X78235714Y-26239285D01*
X78985714Y-26239285D02*
X78557142Y-26239285D01*
X78771428Y-26239285D02*
X78771428Y-25489285D01*
X78700000Y-25596428D01*
X78628571Y-25667857D01*
X78557142Y-25703571D01*
D11*
X65435714Y-23692857D02*
X65935714Y-23692857D01*
X66150000Y-24478571D02*
X65435714Y-24478571D01*
X65435714Y-22978571D01*
X66150000Y-22978571D01*
X66792857Y-24478571D02*
X66792857Y-23478571D01*
X66792857Y-23764285D02*
X66864285Y-23621428D01*
X66935714Y-23550000D01*
X67078571Y-23478571D01*
X67221428Y-23478571D01*
X67721428Y-24478571D02*
X67721428Y-23478571D01*
X67721428Y-23621428D02*
X67792857Y-23550000D01*
X67935714Y-23478571D01*
X68150000Y-23478571D01*
X68292857Y-23550000D01*
X68364285Y-23692857D01*
X68364285Y-24478571D01*
X68364285Y-23692857D02*
X68435714Y-23550000D01*
X68578571Y-23478571D01*
X68792857Y-23478571D01*
X68935714Y-23550000D01*
X69007142Y-23692857D01*
X69007142Y-24478571D01*
X70292857Y-24407142D02*
X70150000Y-24478571D01*
X69864285Y-24478571D01*
X69721428Y-24407142D01*
X69650000Y-24264285D01*
X69650000Y-23692857D01*
X69721428Y-23550000D01*
X69864285Y-23478571D01*
X70150000Y-23478571D01*
X70292857Y-23550000D01*
X70364285Y-23692857D01*
X70364285Y-23835714D01*
X69650000Y-23978571D01*
X71007142Y-24478571D02*
X71007142Y-23478571D01*
X71007142Y-23764285D02*
X71078571Y-23621428D01*
X71150000Y-23550000D01*
X71292857Y-23478571D01*
X71435714Y-23478571D01*
X72435714Y-23692857D02*
X72650000Y-23764285D01*
X72721428Y-23835714D01*
X72792857Y-23978571D01*
X72792857Y-24192857D01*
X72721428Y-24335714D01*
X72650000Y-24407142D01*
X72507142Y-24478571D01*
X71935714Y-24478571D01*
X71935714Y-22978571D01*
X72435714Y-22978571D01*
X72578571Y-23050000D01*
X72650000Y-23121428D01*
X72721428Y-23264285D01*
X72721428Y-23407142D01*
X72650000Y-23550000D01*
X72578571Y-23621428D01*
X72435714Y-23692857D01*
X71935714Y-23692857D01*
X74007142Y-24407142D02*
X73864285Y-24478571D01*
X73578571Y-24478571D01*
X73435714Y-24407142D01*
X73364285Y-24264285D01*
X73364285Y-23692857D01*
X73435714Y-23550000D01*
X73578571Y-23478571D01*
X73864285Y-23478571D01*
X74007142Y-23550000D01*
X74078571Y-23692857D01*
X74078571Y-23835714D01*
X73364285Y-23978571D01*
X75292857Y-24407142D02*
X75150000Y-24478571D01*
X74864285Y-24478571D01*
X74721428Y-24407142D01*
X74650000Y-24264285D01*
X74650000Y-23692857D01*
X74721428Y-23550000D01*
X74864285Y-23478571D01*
X75150000Y-23478571D01*
X75292857Y-23550000D01*
X75364285Y-23692857D01*
X75364285Y-23835714D01*
X74650000Y-23978571D01*
X76007142Y-23478571D02*
X76007142Y-24978571D01*
X76007142Y-23550000D02*
X76150000Y-23478571D01*
X76435714Y-23478571D01*
X76578571Y-23550000D01*
X76650000Y-23621428D01*
X76721428Y-23764285D01*
X76721428Y-24192857D01*
X76650000Y-24335714D01*
X76578571Y-24407142D01*
X76435714Y-24478571D01*
X76150000Y-24478571D01*
X76007142Y-24407142D01*
X77935714Y-24407142D02*
X77792857Y-24478571D01*
X77507142Y-24478571D01*
X77364285Y-24407142D01*
X77292857Y-24264285D01*
X77292857Y-23692857D01*
X77364285Y-23550000D01*
X77507142Y-23478571D01*
X77792857Y-23478571D01*
X77935714Y-23550000D01*
X78007142Y-23692857D01*
X78007142Y-23835714D01*
X77292857Y-23978571D01*
X78650000Y-24478571D02*
X78650000Y-23478571D01*
X78650000Y-23764285D02*
X78721428Y-23621428D01*
X78792857Y-23550000D01*
X78935714Y-23478571D01*
X79078571Y-23478571D01*
D12*
%TO.C,R4*%
X58300000Y-69440000D03*
D13*
X58300000Y-54200000D03*
%TD*%
D14*
%TO.C,REF\u002A\u002A*%
X88350000Y-57000000D03*
%TD*%
%TO.C,REF\u002A\u002A*%
X88350000Y-54300000D03*
%TD*%
D12*
%TO.C,R3*%
X72600000Y-12360000D03*
D13*
X72600000Y-27600000D03*
%TD*%
D12*
%TO.C,R2*%
X77100000Y-18260000D03*
D13*
X77100000Y-33500000D03*
%TD*%
D12*
%TO.C,R1*%
X68000000Y-18260000D03*
D13*
X68000000Y-33500000D03*
%TD*%
D15*
%TO.C,Q2*%
X74500000Y-53700000D03*
G36*
G01*
X76490000Y-54325000D02*
X76490000Y-53075000D01*
G75*
G02*
X76765000Y-52800000I275000J0D01*
G01*
X77315000Y-52800000D01*
G75*
G02*
X77590000Y-53075000I0J-275000D01*
G01*
X77590000Y-54325000D01*
G75*
G02*
X77315000Y-54600000I-275000J0D01*
G01*
X76765000Y-54600000D01*
G75*
G02*
X76490000Y-54325000I0J275000D01*
G01*
G37*
G36*
G01*
X75220000Y-56395000D02*
X75220000Y-55145000D01*
G75*
G02*
X75495000Y-54870000I275000J0D01*
G01*
X76045000Y-54870000D01*
G75*
G02*
X76320000Y-55145000I0J-275000D01*
G01*
X76320000Y-56395000D01*
G75*
G02*
X76045000Y-56670000I-275000J0D01*
G01*
X75495000Y-56670000D01*
G75*
G02*
X75220000Y-56395000I0J275000D01*
G01*
G37*
%TD*%
%TO.C,Q1*%
X68000000Y-53700000D03*
G36*
G01*
X69990000Y-54325000D02*
X69990000Y-53075000D01*
G75*
G02*
X70265000Y-52800000I275000J0D01*
G01*
X70815000Y-52800000D01*
G75*
G02*
X71090000Y-53075000I0J-275000D01*
G01*
X71090000Y-54325000D01*
G75*
G02*
X70815000Y-54600000I-275000J0D01*
G01*
X70265000Y-54600000D01*
G75*
G02*
X69990000Y-54325000I0J275000D01*
G01*
G37*
G36*
G01*
X68720000Y-56395000D02*
X68720000Y-55145000D01*
G75*
G02*
X68995000Y-54870000I275000J0D01*
G01*
X69545000Y-54870000D01*
G75*
G02*
X69820000Y-55145000I0J-275000D01*
G01*
X69820000Y-56395000D01*
G75*
G02*
X69545000Y-56670000I-275000J0D01*
G01*
X68995000Y-56670000D01*
G75*
G02*
X68720000Y-56395000I0J275000D01*
G01*
G37*
%TD*%
%TO.C,LS1*%
G36*
G01*
X68500000Y-37700000D02*
X68500000Y-38700000D01*
G75*
G02*
X68000000Y-39200000I-500000J0D01*
G01*
X64000000Y-39200000D01*
G75*
G02*
X63500000Y-38700000I0J500000D01*
G01*
X63500000Y-37700000D01*
G75*
G02*
X64000000Y-37200000I500000J0D01*
G01*
X68000000Y-37200000D01*
G75*
G02*
X68500000Y-37700000I0J-500000D01*
G01*
G37*
G36*
G01*
X81500000Y-37700000D02*
X81500000Y-38700000D01*
G75*
G02*
X81000000Y-39200000I-500000J0D01*
G01*
X77000000Y-39200000D01*
G75*
G02*
X76500000Y-38700000I0J500000D01*
G01*
X76500000Y-37700000D01*
G75*
G02*
X77000000Y-37200000I500000J0D01*
G01*
X81000000Y-37200000D01*
G75*
G02*
X81500000Y-37700000I0J-500000D01*
G01*
G37*
%TD*%
D16*
%TO.C,J2*%
X82600000Y-46600000D03*
%TD*%
%TO.C,J1*%
X62400000Y-46600000D03*
%TD*%
D17*
%TO.C,C2*%
X74600000Y-49400000D03*
X74600000Y-44400000D03*
%TD*%
%TO.C,C1*%
X70600000Y-49400000D03*
X70600000Y-44400000D03*
%TD*%
D18*
%TO.C,BAT1*%
X85500000Y-54310000D03*
D19*
X85500000Y-56850000D03*
%TD*%
M02*
