%TF.GenerationSoftware,KiCad,Pcbnew,5.1.10*%
%TF.CreationDate,2021-10-21T14:21:38+02:00*%
%TF.ProjectId,ermerBeeperTHT,65726d65-7242-4656-9570-65725448542e,rev?*%
%TF.SameCoordinates,Original*%
%TF.FileFunction,Copper,L1,Top*%
%TF.FilePolarity,Positive*%
%FSLAX46Y46*%
G04 Gerber Fmt 4.6, Leading zero omitted, Abs format (unit mm)*
G04 Created by KiCad (PCBNEW 5.1.10) date 2021-10-21 14:21:38*
%MOMM*%
%LPD*%
G01*
G04 APERTURE LIST*
%TA.AperFunction,ComponentPad*%
%ADD10O,2.400000X2.400000*%
%TD*%
%TA.AperFunction,ComponentPad*%
%ADD11C,2.400000*%
%TD*%
%TA.AperFunction,ComponentPad*%
%ADD12R,1.100000X1.800000*%
%TD*%
%TA.AperFunction,ComponentPad*%
%ADD13C,10.160000*%
%TD*%
%TA.AperFunction,ComponentPad*%
%ADD14C,1.600000*%
%TD*%
%TA.AperFunction,ComponentPad*%
%ADD15O,1.700000X1.700000*%
%TD*%
%TA.AperFunction,ComponentPad*%
%ADD16R,1.700000X1.700000*%
%TD*%
%TA.AperFunction,ViaPad*%
%ADD17C,0.800000*%
%TD*%
%TA.AperFunction,Conductor*%
%ADD18C,0.250000*%
%TD*%
%TA.AperFunction,Conductor*%
%ADD19C,0.254000*%
%TD*%
%TA.AperFunction,Conductor*%
%ADD20C,0.100000*%
%TD*%
G04 APERTURE END LIST*
D10*
%TO.P,R4,2*%
%TO.N,Net-(C1-Pad1)*%
X58300000Y-69440000D03*
D11*
%TO.P,R4,1*%
%TO.N,Net-(LS1-Pad2)*%
X58300000Y-54200000D03*
%TD*%
D10*
%TO.P,R3,2*%
%TO.N,Net-(C2-Pad1)*%
X72600000Y-12360000D03*
D11*
%TO.P,R3,1*%
%TO.N,Net-(J2-Pad1)*%
X72600000Y-27600000D03*
%TD*%
D10*
%TO.P,R2,2*%
%TO.N,Net-(C1-Pad2)*%
X77100000Y-18260000D03*
D11*
%TO.P,R2,1*%
%TO.N,Net-(J2-Pad1)*%
X77100000Y-33500000D03*
%TD*%
D10*
%TO.P,R1,2*%
%TO.N,Net-(C2-Pad2)*%
X68000000Y-18260000D03*
D11*
%TO.P,R1,1*%
%TO.N,Net-(J2-Pad1)*%
X68000000Y-33500000D03*
%TD*%
D12*
%TO.P,Q2,1*%
%TO.N,Net-(C1-Pad1)*%
X74500000Y-53700000D03*
%TO.P,Q2,3*%
%TO.N,GND*%
%TA.AperFunction,ComponentPad*%
G36*
G01*
X76490000Y-54325000D02*
X76490000Y-53075000D01*
G75*
G02*
X76765000Y-52800000I275000J0D01*
G01*
X77315000Y-52800000D01*
G75*
G02*
X77590000Y-53075000I0J-275000D01*
G01*
X77590000Y-54325000D01*
G75*
G02*
X77315000Y-54600000I-275000J0D01*
G01*
X76765000Y-54600000D01*
G75*
G02*
X76490000Y-54325000I0J275000D01*
G01*
G37*
%TD.AperFunction*%
%TO.P,Q2,2*%
%TO.N,Net-(C2-Pad1)*%
%TA.AperFunction,ComponentPad*%
G36*
G01*
X75220000Y-56395000D02*
X75220000Y-55145000D01*
G75*
G02*
X75495000Y-54870000I275000J0D01*
G01*
X76045000Y-54870000D01*
G75*
G02*
X76320000Y-55145000I0J-275000D01*
G01*
X76320000Y-56395000D01*
G75*
G02*
X76045000Y-56670000I-275000J0D01*
G01*
X75495000Y-56670000D01*
G75*
G02*
X75220000Y-56395000I0J275000D01*
G01*
G37*
%TD.AperFunction*%
%TD*%
%TO.P,Q1,1*%
%TO.N,Net-(C2-Pad2)*%
X68000000Y-53700000D03*
%TO.P,Q1,3*%
%TO.N,GND*%
%TA.AperFunction,ComponentPad*%
G36*
G01*
X69990000Y-54325000D02*
X69990000Y-53075000D01*
G75*
G02*
X70265000Y-52800000I275000J0D01*
G01*
X70815000Y-52800000D01*
G75*
G02*
X71090000Y-53075000I0J-275000D01*
G01*
X71090000Y-54325000D01*
G75*
G02*
X70815000Y-54600000I-275000J0D01*
G01*
X70265000Y-54600000D01*
G75*
G02*
X69990000Y-54325000I0J275000D01*
G01*
G37*
%TD.AperFunction*%
%TO.P,Q1,2*%
%TO.N,Net-(C1-Pad2)*%
%TA.AperFunction,ComponentPad*%
G36*
G01*
X68720000Y-56395000D02*
X68720000Y-55145000D01*
G75*
G02*
X68995000Y-54870000I275000J0D01*
G01*
X69545000Y-54870000D01*
G75*
G02*
X69820000Y-55145000I0J-275000D01*
G01*
X69820000Y-56395000D01*
G75*
G02*
X69545000Y-56670000I-275000J0D01*
G01*
X68995000Y-56670000D01*
G75*
G02*
X68720000Y-56395000I0J275000D01*
G01*
G37*
%TD.AperFunction*%
%TD*%
%TO.P,LS1,2*%
%TO.N,Net-(LS1-Pad2)*%
%TA.AperFunction,ComponentPad*%
G36*
G01*
X68500000Y-37700000D02*
X68500000Y-38700000D01*
G75*
G02*
X68000000Y-39200000I-500000J0D01*
G01*
X64000000Y-39200000D01*
G75*
G02*
X63500000Y-38700000I0J500000D01*
G01*
X63500000Y-37700000D01*
G75*
G02*
X64000000Y-37200000I500000J0D01*
G01*
X68000000Y-37200000D01*
G75*
G02*
X68500000Y-37700000I0J-500000D01*
G01*
G37*
%TD.AperFunction*%
%TO.P,LS1,1*%
%TO.N,Net-(J2-Pad1)*%
%TA.AperFunction,ComponentPad*%
G36*
G01*
X81500000Y-37700000D02*
X81500000Y-38700000D01*
G75*
G02*
X81000000Y-39200000I-500000J0D01*
G01*
X77000000Y-39200000D01*
G75*
G02*
X76500000Y-38700000I0J500000D01*
G01*
X76500000Y-37700000D01*
G75*
G02*
X77000000Y-37200000I500000J0D01*
G01*
X81000000Y-37200000D01*
G75*
G02*
X81500000Y-37700000I0J-500000D01*
G01*
G37*
%TD.AperFunction*%
%TD*%
D13*
%TO.P,J2,1*%
%TO.N,Net-(J2-Pad1)*%
X82600000Y-46600000D03*
%TD*%
%TO.P,J1,1*%
%TO.N,+3V0*%
X62400000Y-46600000D03*
%TD*%
D14*
%TO.P,C2,2*%
%TO.N,Net-(C2-Pad2)*%
X74600000Y-49400000D03*
%TO.P,C2,1*%
%TO.N,Net-(C2-Pad1)*%
X74600000Y-44400000D03*
%TD*%
%TO.P,C1,2*%
%TO.N,Net-(C1-Pad2)*%
X70600000Y-49400000D03*
%TO.P,C1,1*%
%TO.N,Net-(C1-Pad1)*%
X70600000Y-44400000D03*
%TD*%
D15*
%TO.P,BAT1,2*%
%TO.N,GND*%
X85500000Y-54310000D03*
D16*
%TO.P,BAT1,1*%
%TO.N,+3V0*%
X85500000Y-56850000D03*
%TD*%
D17*
%TO.N,Net-(C1-Pad2)*%
X68699999Y-43200000D03*
%TO.N,Net-(C2-Pad1)*%
X76600000Y-43100000D03*
%TD*%
D18*
%TO.N,GND*%
X77250000Y-54310000D02*
X77040000Y-54100000D01*
X85500000Y-54310000D02*
X77250000Y-54310000D01*
X73040000Y-51600000D02*
X70540000Y-54100000D01*
X75300000Y-51600000D02*
X73040000Y-51600000D01*
X77040000Y-53340000D02*
X75300000Y-51600000D01*
X77040000Y-54100000D02*
X77040000Y-53340000D01*
%TO.N,Net-(C1-Pad2)*%
X78274991Y-19834991D02*
X77200000Y-18760000D01*
X78274991Y-20644998D02*
X78274991Y-19834991D01*
X68699999Y-43200000D02*
X68700000Y-43199999D01*
X80149990Y-27886400D02*
X80149990Y-22519997D01*
X68700000Y-43199999D02*
X68700000Y-43000004D01*
X85049990Y-38750010D02*
X85049990Y-37586400D01*
X69325005Y-42374999D02*
X77988591Y-42374999D01*
X83750010Y-40049990D02*
X85049990Y-38750010D01*
X83149990Y-30886400D02*
X80149990Y-27886400D01*
X68700000Y-43000004D02*
X69325005Y-42374999D01*
X80313600Y-40049990D02*
X83750010Y-40049990D01*
X77988591Y-42374999D02*
X80313600Y-40049990D01*
X85049990Y-37586400D02*
X83149991Y-35686401D01*
X83149991Y-35686401D02*
X83149990Y-30886400D01*
X80149990Y-22519997D02*
X78274991Y-20644998D01*
%TO.N,Net-(C2-Pad1)*%
X80600000Y-25300000D02*
X80600000Y-25100000D01*
X83586811Y-30686811D02*
X83600000Y-30726518D01*
X80600000Y-27700000D02*
X83586811Y-30686811D01*
X80600000Y-25300000D02*
X80600000Y-27700000D01*
X83600001Y-35500001D02*
X83600001Y-30726518D01*
X85500000Y-37400000D02*
X83600001Y-35500001D01*
X85500000Y-38936410D02*
X85500000Y-37400000D01*
X83936410Y-40500000D02*
X85500000Y-38936410D01*
X80500000Y-40500000D02*
X83936410Y-40500000D01*
X77900000Y-43100000D02*
X80500000Y-40500000D01*
X76600000Y-43100000D02*
X77900000Y-43100000D01*
X73560000Y-12360000D02*
X72600000Y-12360000D01*
X78564033Y-17364033D02*
X73560000Y-12360000D01*
X78620554Y-17494551D02*
X78564033Y-17364033D01*
X78725001Y-17737571D02*
X78620554Y-17494551D01*
X78725001Y-20458598D02*
X78725001Y-17737571D01*
X80600000Y-22333597D02*
X78725001Y-20458598D01*
X80600000Y-25300000D02*
X80600000Y-22333597D01*
%TD*%
D19*
%TO.N,+3V0*%
X72868425Y-8556689D02*
X72879797Y-8560139D01*
X72883672Y-8560521D01*
X72985857Y-8590349D01*
X73087976Y-8637011D01*
X73213185Y-8713834D01*
X73325221Y-8799001D01*
X73454590Y-8914906D01*
X73531405Y-8992168D01*
X73697982Y-9172822D01*
X73860411Y-9361227D01*
X74018761Y-9556565D01*
X74173385Y-9758289D01*
X74324593Y-9965765D01*
X74472675Y-10178282D01*
X74618085Y-10395326D01*
X74761130Y-10616134D01*
X74902243Y-10840095D01*
X75042076Y-11066921D01*
X75133531Y-11217314D01*
X75279783Y-11461443D01*
X75423872Y-11706390D01*
X75566090Y-11952517D01*
X75706568Y-12199923D01*
X75845454Y-12448756D01*
X75982506Y-12698455D01*
X76118063Y-12949515D01*
X76252018Y-13201606D01*
X76384523Y-13454892D01*
X76515480Y-13709053D01*
X76645067Y-13964306D01*
X76773254Y-14220451D01*
X76900039Y-14477354D01*
X77025615Y-14735263D01*
X77040002Y-14765201D01*
X74430265Y-12155464D01*
X74364482Y-11824750D01*
X74226156Y-11490801D01*
X74025338Y-11190256D01*
X73769744Y-10934662D01*
X73469199Y-10733844D01*
X73135250Y-10595518D01*
X72780732Y-10525000D01*
X72419268Y-10525000D01*
X72064750Y-10595518D01*
X71730801Y-10733844D01*
X71430256Y-10934662D01*
X71174662Y-11190256D01*
X70973844Y-11490801D01*
X70835518Y-11824750D01*
X70765000Y-12179268D01*
X70765000Y-12540732D01*
X70835518Y-12895250D01*
X70973844Y-13229199D01*
X71174662Y-13529744D01*
X71430256Y-13785338D01*
X71730801Y-13986156D01*
X72064750Y-14124482D01*
X72419268Y-14195000D01*
X72780732Y-14195000D01*
X73135250Y-14124482D01*
X73469199Y-13986156D01*
X73769744Y-13785338D01*
X73840140Y-13714942D01*
X76611431Y-16486233D01*
X76564750Y-16495518D01*
X76230801Y-16633844D01*
X75930256Y-16834662D01*
X75674662Y-17090256D01*
X75473844Y-17390801D01*
X75335518Y-17724750D01*
X75265000Y-18079268D01*
X75265000Y-18440732D01*
X75335518Y-18795250D01*
X75473844Y-19129199D01*
X75674662Y-19429744D01*
X75930256Y-19685338D01*
X76230801Y-19886156D01*
X76564750Y-20024482D01*
X76919268Y-20095000D01*
X77280732Y-20095000D01*
X77430423Y-20065225D01*
X77514991Y-20149793D01*
X77514991Y-20607676D01*
X77511315Y-20644998D01*
X77514991Y-20682320D01*
X77514991Y-20682330D01*
X77525988Y-20793983D01*
X77555803Y-20892272D01*
X77569445Y-20937244D01*
X77640017Y-21069274D01*
X77663334Y-21097685D01*
X77734990Y-21184999D01*
X77763994Y-21208802D01*
X79389991Y-22834800D01*
X79389990Y-27849077D01*
X79386314Y-27886400D01*
X79389990Y-27923722D01*
X79389990Y-27923732D01*
X79400987Y-28035385D01*
X79431175Y-28134902D01*
X79444444Y-28178646D01*
X79515016Y-28310676D01*
X79539355Y-28340333D01*
X79609989Y-28426401D01*
X79638993Y-28450204D01*
X82389990Y-31201202D01*
X82389992Y-35649069D01*
X82386315Y-35686401D01*
X82389992Y-35723733D01*
X82389992Y-35723734D01*
X82400989Y-35835387D01*
X82405176Y-35849190D01*
X82444445Y-35978647D01*
X82515017Y-36110677D01*
X82581276Y-36191413D01*
X82609991Y-36226402D01*
X82638989Y-36250200D01*
X84289991Y-37901203D01*
X84289990Y-38435208D01*
X83435209Y-39289990D01*
X81968876Y-39289990D01*
X82051441Y-39135521D01*
X82116204Y-38922027D01*
X82138072Y-38700000D01*
X82138072Y-37700000D01*
X82116204Y-37477973D01*
X82051441Y-37264479D01*
X81946272Y-37067721D01*
X81804738Y-36895262D01*
X81632279Y-36753728D01*
X81435521Y-36648559D01*
X81222027Y-36583796D01*
X81000000Y-36561928D01*
X77000000Y-36561928D01*
X76777973Y-36583796D01*
X76564479Y-36648559D01*
X76367721Y-36753728D01*
X76195262Y-36895262D01*
X76053728Y-37067721D01*
X75948559Y-37264479D01*
X75883796Y-37477973D01*
X75861928Y-37700000D01*
X75861928Y-38700000D01*
X75883796Y-38922027D01*
X75948559Y-39135521D01*
X76053728Y-39332279D01*
X76195262Y-39504738D01*
X76367721Y-39646272D01*
X76564479Y-39751441D01*
X76777973Y-39816204D01*
X77000000Y-39838072D01*
X79450716Y-39838072D01*
X77673790Y-41614999D01*
X69362338Y-41614999D01*
X69325005Y-41611322D01*
X69287672Y-41614999D01*
X69176019Y-41625996D01*
X69032758Y-41669453D01*
X68900729Y-41740025D01*
X68785004Y-41834998D01*
X68761205Y-41863997D01*
X68425973Y-42199230D01*
X68398101Y-42204774D01*
X68209743Y-42282795D01*
X68040225Y-42396063D01*
X67896062Y-42540226D01*
X67782794Y-42709744D01*
X67704773Y-42898102D01*
X67664999Y-43098061D01*
X67664999Y-43301939D01*
X67704773Y-43501898D01*
X67782794Y-43690256D01*
X67896062Y-43859774D01*
X68040225Y-44003937D01*
X68209743Y-44117205D01*
X68398101Y-44195226D01*
X68598060Y-44235000D01*
X68801938Y-44235000D01*
X69001897Y-44195226D01*
X69190255Y-44117205D01*
X69193581Y-44114983D01*
X69165000Y-44258665D01*
X69165000Y-44541335D01*
X69220147Y-44818574D01*
X69328320Y-45079727D01*
X69485363Y-45314759D01*
X69685241Y-45514637D01*
X69920273Y-45671680D01*
X70181426Y-45779853D01*
X70458665Y-45835000D01*
X70741335Y-45835000D01*
X71018574Y-45779853D01*
X71279727Y-45671680D01*
X71514759Y-45514637D01*
X71714637Y-45314759D01*
X71871680Y-45079727D01*
X71979853Y-44818574D01*
X72035000Y-44541335D01*
X72035000Y-44258665D01*
X71979853Y-43981426D01*
X71871680Y-43720273D01*
X71714637Y-43485241D01*
X71514759Y-43285363D01*
X71289723Y-43134999D01*
X73910277Y-43134999D01*
X73685241Y-43285363D01*
X73485363Y-43485241D01*
X73328320Y-43720273D01*
X73220147Y-43981426D01*
X73165000Y-44258665D01*
X73165000Y-44541335D01*
X73220147Y-44818574D01*
X73328320Y-45079727D01*
X73485363Y-45314759D01*
X73685241Y-45514637D01*
X73920273Y-45671680D01*
X74181426Y-45779853D01*
X74458665Y-45835000D01*
X74741335Y-45835000D01*
X75018574Y-45779853D01*
X75279727Y-45671680D01*
X75514759Y-45514637D01*
X75714637Y-45314759D01*
X75871680Y-45079727D01*
X75979853Y-44818574D01*
X76035000Y-44541335D01*
X76035000Y-44258665D01*
X75979853Y-43981426D01*
X75950638Y-43910894D01*
X76109744Y-44017205D01*
X76298102Y-44095226D01*
X76498061Y-44135000D01*
X76701939Y-44135000D01*
X76901898Y-44095226D01*
X77090256Y-44017205D01*
X77259774Y-43903937D01*
X77303711Y-43860000D01*
X77557438Y-43860000D01*
X77535433Y-43892933D01*
X77104625Y-44932996D01*
X76885000Y-46037122D01*
X76885000Y-47162878D01*
X77104625Y-48267004D01*
X77535433Y-49307067D01*
X78160870Y-50243100D01*
X78956900Y-51039130D01*
X79892933Y-51664567D01*
X80932996Y-52095375D01*
X82037122Y-52315000D01*
X83162878Y-52315000D01*
X84267004Y-52095375D01*
X85307067Y-51664567D01*
X86243100Y-51039130D01*
X87039130Y-50243100D01*
X87664567Y-49307067D01*
X88095375Y-48267004D01*
X88182911Y-47826931D01*
X88247918Y-48095820D01*
X88348786Y-48517255D01*
X88448549Y-48938390D01*
X88547389Y-49360077D01*
X88645192Y-49781896D01*
X88741981Y-50204023D01*
X88837659Y-50626104D01*
X88932369Y-51048860D01*
X89025854Y-51471207D01*
X89118239Y-51893781D01*
X89209637Y-52317192D01*
X89299791Y-52740323D01*
X89388824Y-53163837D01*
X89408412Y-53258305D01*
X89296632Y-53146525D01*
X89053411Y-52984010D01*
X88783158Y-52872068D01*
X88496260Y-52815000D01*
X88203740Y-52815000D01*
X87916842Y-52872068D01*
X87646589Y-52984010D01*
X87403368Y-53146525D01*
X87196525Y-53353368D01*
X87034010Y-53596589D01*
X86922929Y-53864763D01*
X86815990Y-53606589D01*
X86653475Y-53363368D01*
X86446632Y-53156525D01*
X86203411Y-52994010D01*
X85933158Y-52882068D01*
X85646260Y-52825000D01*
X85353740Y-52825000D01*
X85066842Y-52882068D01*
X84796589Y-52994010D01*
X84553368Y-53156525D01*
X84346525Y-53363368D01*
X84221822Y-53550000D01*
X78228072Y-53550000D01*
X78228072Y-53075000D01*
X78210528Y-52896868D01*
X78158569Y-52725582D01*
X78074192Y-52567724D01*
X77960639Y-52429361D01*
X77822276Y-52315808D01*
X77664418Y-52231431D01*
X77493132Y-52179472D01*
X77315000Y-52161928D01*
X76936730Y-52161928D01*
X75863804Y-51089003D01*
X75840001Y-51059999D01*
X75724276Y-50965026D01*
X75592247Y-50894454D01*
X75448986Y-50850997D01*
X75337333Y-50840000D01*
X75337322Y-50840000D01*
X75300000Y-50836324D01*
X75262678Y-50840000D01*
X73077323Y-50840000D01*
X73040000Y-50836324D01*
X73002677Y-50840000D01*
X73002667Y-50840000D01*
X72891014Y-50850997D01*
X72769336Y-50887907D01*
X72747753Y-50894454D01*
X72615723Y-50965026D01*
X72576478Y-50997234D01*
X72499999Y-51059999D01*
X72476201Y-51088997D01*
X71274778Y-52290420D01*
X71164418Y-52231431D01*
X70993132Y-52179472D01*
X70815000Y-52161928D01*
X70265000Y-52161928D01*
X70086868Y-52179472D01*
X69915582Y-52231431D01*
X69757724Y-52315808D01*
X69619361Y-52429361D01*
X69505808Y-52567724D01*
X69421431Y-52725582D01*
X69369472Y-52896868D01*
X69351928Y-53075000D01*
X69351928Y-54231928D01*
X69188072Y-54231928D01*
X69188072Y-52800000D01*
X69175812Y-52675518D01*
X69139502Y-52555820D01*
X69080537Y-52445506D01*
X69001185Y-52348815D01*
X68904494Y-52269463D01*
X68794180Y-52210498D01*
X68674482Y-52174188D01*
X68550000Y-52161928D01*
X67450000Y-52161928D01*
X67325518Y-52174188D01*
X67205820Y-52210498D01*
X67095506Y-52269463D01*
X66998815Y-52348815D01*
X66919463Y-52445506D01*
X66860498Y-52555820D01*
X66824188Y-52675518D01*
X66811928Y-52800000D01*
X66811928Y-54600000D01*
X66824188Y-54724482D01*
X66860498Y-54844180D01*
X66919463Y-54954494D01*
X66998815Y-55051185D01*
X67095506Y-55130537D01*
X67205820Y-55189502D01*
X67325518Y-55225812D01*
X67450000Y-55238072D01*
X68081928Y-55238072D01*
X68081928Y-56395000D01*
X68099472Y-56573132D01*
X68151431Y-56744418D01*
X68235808Y-56902276D01*
X68349361Y-57040639D01*
X68487724Y-57154192D01*
X68645582Y-57238569D01*
X68816868Y-57290528D01*
X68995000Y-57308072D01*
X69545000Y-57308072D01*
X69723132Y-57290528D01*
X69894418Y-57238569D01*
X70052276Y-57154192D01*
X70190639Y-57040639D01*
X70304192Y-56902276D01*
X70388569Y-56744418D01*
X70440528Y-56573132D01*
X70458072Y-56395000D01*
X70458072Y-55238072D01*
X70815000Y-55238072D01*
X70993132Y-55220528D01*
X71164418Y-55168569D01*
X71322276Y-55084192D01*
X71460639Y-54970639D01*
X71574192Y-54832276D01*
X71658569Y-54674418D01*
X71710528Y-54503132D01*
X71728072Y-54325000D01*
X71728072Y-53986729D01*
X73354802Y-52360000D01*
X73489636Y-52360000D01*
X73419463Y-52445506D01*
X73360498Y-52555820D01*
X73324188Y-52675518D01*
X73311928Y-52800000D01*
X73311928Y-54600000D01*
X73324188Y-54724482D01*
X73360498Y-54844180D01*
X73419463Y-54954494D01*
X73498815Y-55051185D01*
X73595506Y-55130537D01*
X73705820Y-55189502D01*
X73825518Y-55225812D01*
X73950000Y-55238072D01*
X74581928Y-55238072D01*
X74581928Y-56395000D01*
X74599472Y-56573132D01*
X74651431Y-56744418D01*
X74735808Y-56902276D01*
X74849361Y-57040639D01*
X74987724Y-57154192D01*
X75145582Y-57238569D01*
X75316868Y-57290528D01*
X75495000Y-57308072D01*
X76045000Y-57308072D01*
X76223132Y-57290528D01*
X76394418Y-57238569D01*
X76552276Y-57154192D01*
X76690639Y-57040639D01*
X76804192Y-56902276D01*
X76888569Y-56744418D01*
X76940528Y-56573132D01*
X76958072Y-56395000D01*
X76958072Y-55238072D01*
X77315000Y-55238072D01*
X77493132Y-55220528D01*
X77664418Y-55168569D01*
X77822276Y-55084192D01*
X77839569Y-55070000D01*
X84221822Y-55070000D01*
X84346525Y-55256632D01*
X84478380Y-55388487D01*
X84405820Y-55410498D01*
X84295506Y-55469463D01*
X84198815Y-55548815D01*
X84119463Y-55645506D01*
X84060498Y-55755820D01*
X84024188Y-55875518D01*
X84011928Y-56000000D01*
X84015000Y-56564250D01*
X84173750Y-56723000D01*
X85373000Y-56723000D01*
X85373000Y-56703000D01*
X85627000Y-56703000D01*
X85627000Y-56723000D01*
X85647000Y-56723000D01*
X85647000Y-56977000D01*
X85627000Y-56977000D01*
X85627000Y-58176250D01*
X85785750Y-58335000D01*
X86350000Y-58338072D01*
X86474482Y-58325812D01*
X86594180Y-58289502D01*
X86704494Y-58230537D01*
X86801185Y-58151185D01*
X86880537Y-58054494D01*
X86939502Y-57944180D01*
X86975812Y-57824482D01*
X86988072Y-57700000D01*
X86987479Y-57591075D01*
X87034010Y-57703411D01*
X87196525Y-57946632D01*
X87403368Y-58153475D01*
X87646589Y-58315990D01*
X87916842Y-58427932D01*
X88203740Y-58485000D01*
X88496260Y-58485000D01*
X88783158Y-58427932D01*
X89053411Y-58315990D01*
X89296632Y-58153475D01*
X89503475Y-57946632D01*
X89665990Y-57703411D01*
X89777932Y-57433158D01*
X89835000Y-57146260D01*
X89835000Y-56853740D01*
X89777932Y-56566842D01*
X89665990Y-56296589D01*
X89503475Y-56053368D01*
X89296632Y-55846525D01*
X89053411Y-55684010D01*
X88971303Y-55650000D01*
X89053411Y-55615990D01*
X89296632Y-55453475D01*
X89503475Y-55246632D01*
X89665990Y-55003411D01*
X89730568Y-54847506D01*
X89733027Y-54859897D01*
X89816044Y-55284590D01*
X89897783Y-55709404D01*
X89978207Y-56134225D01*
X90057355Y-56559354D01*
X90135175Y-56984596D01*
X90211745Y-57410486D01*
X90286951Y-57836490D01*
X90360731Y-58262345D01*
X90423190Y-58629484D01*
X90484814Y-58997379D01*
X90545374Y-59364978D01*
X90604953Y-59733085D01*
X90663449Y-60101393D01*
X90720776Y-60469683D01*
X90776930Y-60838266D01*
X90831758Y-61206438D01*
X90885364Y-61575256D01*
X90937641Y-61944356D01*
X90988469Y-62313232D01*
X91037873Y-62682437D01*
X91085761Y-63051669D01*
X91132067Y-63420818D01*
X91176810Y-63790420D01*
X91219852Y-64159763D01*
X91261205Y-64529402D01*
X91300787Y-64899041D01*
X91338570Y-65268902D01*
X91374445Y-65638422D01*
X91408453Y-66008530D01*
X91440460Y-66378354D01*
X91470441Y-66748136D01*
X91498362Y-67118121D01*
X91524153Y-67488032D01*
X91547779Y-67858127D01*
X91569170Y-68228117D01*
X91588276Y-68597935D01*
X91605071Y-68968115D01*
X91619472Y-69337956D01*
X91631447Y-69707919D01*
X91641007Y-70080409D01*
X91641021Y-70080519D01*
X91641060Y-70082365D01*
X91646726Y-70282373D01*
X91646746Y-70282533D01*
X91646961Y-70289460D01*
X91655013Y-70501427D01*
X91655037Y-70501601D01*
X91655187Y-70505687D01*
X91663233Y-70689395D01*
X91591540Y-70527823D01*
X91476229Y-70266965D01*
X91476168Y-70266856D01*
X91475252Y-70264764D01*
X91369471Y-70027569D01*
X91369392Y-70027430D01*
X91366490Y-70020973D01*
X91272088Y-69814777D01*
X91269158Y-69809743D01*
X91267176Y-69804268D01*
X91262693Y-69795037D01*
X91146465Y-69559906D01*
X91142293Y-69553204D01*
X91139342Y-69545875D01*
X91134535Y-69536808D01*
X90965559Y-69223384D01*
X90965498Y-69223269D01*
X90796448Y-68909577D01*
X90796440Y-68909565D01*
X90796337Y-68909371D01*
X90627184Y-68595725D01*
X90627165Y-68595696D01*
X90626901Y-68595200D01*
X90457491Y-68281688D01*
X90457454Y-68281633D01*
X90457035Y-68280847D01*
X90287217Y-67967556D01*
X90287173Y-67967491D01*
X90286588Y-67966398D01*
X90116209Y-67653412D01*
X90116155Y-67653332D01*
X90115404Y-67651937D01*
X89944310Y-67339345D01*
X89944251Y-67339258D01*
X89943329Y-67337557D01*
X89771371Y-67025444D01*
X89771298Y-67025337D01*
X89770207Y-67023340D01*
X89597230Y-66711793D01*
X89597151Y-66711678D01*
X89595885Y-66709381D01*
X89421738Y-66398486D01*
X89421650Y-66398359D01*
X89420203Y-66395760D01*
X89244732Y-66085604D01*
X89244640Y-66085473D01*
X89243008Y-66082573D01*
X89066061Y-65773242D01*
X89065963Y-65773104D01*
X89064142Y-65769907D01*
X88885567Y-65461488D01*
X88885466Y-65461348D01*
X88883448Y-65457852D01*
X88703093Y-65150430D01*
X88702988Y-65150286D01*
X88700769Y-65146496D01*
X88518481Y-64840159D01*
X88518370Y-64840008D01*
X88515946Y-64835932D01*
X88331573Y-64530766D01*
X88331493Y-64530658D01*
X88330291Y-64528653D01*
X88174489Y-64272725D01*
X88174458Y-64272684D01*
X88174028Y-64271968D01*
X88015143Y-64011683D01*
X88015086Y-64011607D01*
X88014234Y-64010197D01*
X87852177Y-63746127D01*
X87852101Y-63746026D01*
X87850836Y-63743949D01*
X87685524Y-63476664D01*
X87685429Y-63476539D01*
X87683753Y-63473815D01*
X87515099Y-63203888D01*
X87514991Y-63203748D01*
X87512899Y-63200389D01*
X87340817Y-62928392D01*
X87340704Y-62928247D01*
X87338184Y-62924260D01*
X87162589Y-62650762D01*
X87162471Y-62650613D01*
X87159508Y-62646005D01*
X86980314Y-62371579D01*
X86980204Y-62371442D01*
X86976770Y-62366203D01*
X86793890Y-62091421D01*
X86793787Y-62091295D01*
X86789865Y-62085437D01*
X86603214Y-61810869D01*
X86603129Y-61810767D01*
X86598678Y-61804275D01*
X86408171Y-61530493D01*
X86408105Y-61530415D01*
X86403096Y-61523292D01*
X86208646Y-61250868D01*
X86208612Y-61250829D01*
X86202993Y-61243058D01*
X86004513Y-60972563D01*
X86004436Y-60972477D01*
X86004376Y-60972376D01*
X85998245Y-60964147D01*
X85795651Y-60696153D01*
X85795270Y-60695740D01*
X85794977Y-60695263D01*
X85788719Y-60687129D01*
X85581925Y-60422207D01*
X85581217Y-60421463D01*
X85580669Y-60420604D01*
X85574276Y-60412576D01*
X85363197Y-60151297D01*
X85362140Y-60150222D01*
X85361310Y-60148972D01*
X85354773Y-60141061D01*
X85139322Y-59883996D01*
X85137886Y-59882588D01*
X85136745Y-59880939D01*
X85130056Y-59873156D01*
X84910145Y-59620879D01*
X84908303Y-59619142D01*
X84906823Y-59617095D01*
X84899973Y-59609453D01*
X84675519Y-59362533D01*
X84673236Y-59360468D01*
X84671379Y-59358017D01*
X84664361Y-59350530D01*
X84435278Y-59109539D01*
X84432519Y-59107153D01*
X84430245Y-59104296D01*
X84423050Y-59096978D01*
X84189251Y-58862488D01*
X84185972Y-58859786D01*
X84183246Y-58856535D01*
X84175868Y-58849403D01*
X83937268Y-58621985D01*
X83933431Y-58618985D01*
X83930206Y-58615343D01*
X83922637Y-58608414D01*
X83679149Y-58388639D01*
X83674715Y-58385361D01*
X83670942Y-58381342D01*
X83663175Y-58374635D01*
X83414716Y-58163076D01*
X83409637Y-58159544D01*
X83405274Y-58155173D01*
X83397305Y-58148707D01*
X83143787Y-57945934D01*
X83138027Y-57942185D01*
X83133020Y-57937486D01*
X83124845Y-57931283D01*
X82866180Y-57737868D01*
X82859701Y-57733946D01*
X82854003Y-57728956D01*
X82845619Y-57723039D01*
X82812484Y-57700000D01*
X84011928Y-57700000D01*
X84024188Y-57824482D01*
X84060498Y-57944180D01*
X84119463Y-58054494D01*
X84198815Y-58151185D01*
X84295506Y-58230537D01*
X84405820Y-58289502D01*
X84525518Y-58325812D01*
X84650000Y-58338072D01*
X85214250Y-58335000D01*
X85373000Y-58176250D01*
X85373000Y-56977000D01*
X84173750Y-56977000D01*
X84015000Y-57135750D01*
X84011928Y-57700000D01*
X82812484Y-57700000D01*
X82581724Y-57539554D01*
X82574491Y-57535510D01*
X82568060Y-57530279D01*
X82559465Y-57524671D01*
X82290255Y-57351686D01*
X82282234Y-57347577D01*
X82275033Y-57342166D01*
X82266230Y-57336892D01*
X81991617Y-57174978D01*
X81982790Y-57170876D01*
X81974789Y-57165354D01*
X81965780Y-57160439D01*
X81685679Y-57010171D01*
X81676048Y-57006159D01*
X81667228Y-57000607D01*
X81658020Y-56996077D01*
X81372346Y-56858023D01*
X81361920Y-56854189D01*
X81352267Y-56848690D01*
X81342868Y-56844571D01*
X81051534Y-56719305D01*
X81001714Y-56703437D01*
X80952825Y-56684952D01*
X80942899Y-56682345D01*
X80525071Y-56575747D01*
X80519186Y-56574845D01*
X80513565Y-56572911D01*
X80448373Y-56563994D01*
X80383279Y-56554019D01*
X80377335Y-56554277D01*
X80371441Y-56553471D01*
X80361184Y-56553151D01*
X79883040Y-56541562D01*
X79825980Y-56545764D01*
X79768804Y-56547699D01*
X79758640Y-56549116D01*
X79224222Y-56627446D01*
X79184337Y-56637345D01*
X79143770Y-56643874D01*
X79133864Y-56646554D01*
X78547215Y-56809718D01*
X78519676Y-56820368D01*
X78491112Y-56827776D01*
X78481502Y-56831376D01*
X77846662Y-57074284D01*
X77827520Y-57083844D01*
X77807260Y-57090688D01*
X77797934Y-57094970D01*
X77118948Y-57412537D01*
X77105495Y-57420514D01*
X77090990Y-57426344D01*
X77081920Y-57431145D01*
X76362827Y-57818283D01*
X76353290Y-57824691D01*
X76342838Y-57829450D01*
X76333994Y-57834655D01*
X75578837Y-58286277D01*
X75572060Y-58291288D01*
X75564523Y-58295061D01*
X75555877Y-58300589D01*
X74768699Y-58811608D01*
X74763911Y-58815429D01*
X74758518Y-58818338D01*
X74750045Y-58824127D01*
X73934887Y-59389454D01*
X73931560Y-59392279D01*
X73927782Y-59394445D01*
X73919461Y-59400450D01*
X73080365Y-60014999D01*
X73078143Y-60016987D01*
X73075593Y-60018524D01*
X73067405Y-60024712D01*
X72208413Y-60683396D01*
X72207034Y-60684686D01*
X72205439Y-60685689D01*
X72197371Y-60692031D01*
X71322526Y-61389763D01*
X71321803Y-61390466D01*
X71320961Y-61391015D01*
X71313001Y-61397491D01*
X70426344Y-62129182D01*
X70426136Y-62129391D01*
X70425894Y-62129554D01*
X70418030Y-62136147D01*
X69523603Y-62896712D01*
X69523572Y-62896744D01*
X69516269Y-62903032D01*
X68618115Y-63687382D01*
X68618046Y-63687455D01*
X68611582Y-63693155D01*
X67713741Y-64496204D01*
X67713648Y-64496305D01*
X67707863Y-64501518D01*
X66814380Y-65318177D01*
X66814272Y-65318297D01*
X66809044Y-65323103D01*
X65923958Y-66148285D01*
X65923844Y-66148414D01*
X65919066Y-66152888D01*
X65046421Y-66981507D01*
X65046304Y-66981642D01*
X65041893Y-66985843D01*
X64185730Y-67812811D01*
X64185609Y-67812953D01*
X64181497Y-67816933D01*
X63345859Y-68637163D01*
X63345741Y-68637303D01*
X63341857Y-68641121D01*
X62530785Y-69449526D01*
X62530667Y-69449669D01*
X62526957Y-69453370D01*
X61744492Y-70244862D01*
X61744375Y-70245006D01*
X61740777Y-70248647D01*
X60990963Y-71018139D01*
X60990843Y-71018289D01*
X60987302Y-71021924D01*
X60274181Y-71764328D01*
X60274069Y-71764470D01*
X60270504Y-71768183D01*
X59598118Y-72478413D01*
X59598001Y-72478563D01*
X59594345Y-72482429D01*
X58966734Y-73155396D01*
X58966622Y-73155543D01*
X58962757Y-73159695D01*
X58383966Y-73790314D01*
X58383860Y-73790455D01*
X58379641Y-73795068D01*
X57853709Y-74378250D01*
X57853618Y-74378373D01*
X57848814Y-74383732D01*
X57379786Y-74914391D01*
X57379732Y-74914466D01*
X57373973Y-74921047D01*
X56965889Y-75394096D01*
X56965874Y-75394117D01*
X56959440Y-75401674D01*
X56772845Y-75623989D01*
X56772780Y-75624083D01*
X56767393Y-75630562D01*
X56576619Y-75863295D01*
X56576526Y-75863434D01*
X56572110Y-75868852D01*
X56377589Y-76110924D01*
X56377488Y-76111078D01*
X56373873Y-76115587D01*
X56176034Y-76365921D01*
X56175935Y-76366075D01*
X56172987Y-76369803D01*
X55972264Y-76627322D01*
X55972170Y-76627470D01*
X55969805Y-76630495D01*
X55766628Y-76894119D01*
X55766547Y-76894248D01*
X55764685Y-76896651D01*
X55559486Y-77165305D01*
X55559421Y-77165410D01*
X55558010Y-77167243D01*
X55351221Y-77439846D01*
X55351168Y-77439932D01*
X55350177Y-77441226D01*
X55142229Y-77716700D01*
X55142193Y-77716758D01*
X55141591Y-77717547D01*
X54932915Y-77994817D01*
X54932898Y-77994844D01*
X54932669Y-77995145D01*
X54723841Y-78272940D01*
X54723836Y-78272946D01*
X54514998Y-78550571D01*
X54307673Y-78825506D01*
X54101484Y-79097744D01*
X53897290Y-79365656D01*
X53695402Y-79628333D01*
X53496264Y-79884702D01*
X53300539Y-80133407D01*
X53108567Y-80373525D01*
X52921070Y-80603658D01*
X52738542Y-80822716D01*
X52561708Y-81029360D01*
X52391192Y-81222412D01*
X52227905Y-81400429D01*
X52072900Y-81561925D01*
X52060646Y-81574009D01*
X52047705Y-81245142D01*
X52044263Y-80806598D01*
X52052157Y-80314909D01*
X52070946Y-79774953D01*
X52100076Y-79190995D01*
X52138930Y-78567048D01*
X52186868Y-77906886D01*
X52243240Y-77214110D01*
X52307351Y-76492724D01*
X52378580Y-75745748D01*
X52456231Y-74976991D01*
X52539642Y-74189837D01*
X52628130Y-73387891D01*
X52721039Y-72574455D01*
X52817670Y-71753215D01*
X52917438Y-70926884D01*
X53019512Y-70100213D01*
X53123413Y-69275060D01*
X53125435Y-69259268D01*
X56465000Y-69259268D01*
X56465000Y-69620732D01*
X56535518Y-69975250D01*
X56673844Y-70309199D01*
X56874662Y-70609744D01*
X57130256Y-70865338D01*
X57430801Y-71066156D01*
X57764750Y-71204482D01*
X58119268Y-71275000D01*
X58480732Y-71275000D01*
X58835250Y-71204482D01*
X59169199Y-71066156D01*
X59469744Y-70865338D01*
X59725338Y-70609744D01*
X59926156Y-70309199D01*
X60064482Y-69975250D01*
X60135000Y-69620732D01*
X60135000Y-69259268D01*
X60064482Y-68904750D01*
X59926156Y-68570801D01*
X59725338Y-68270256D01*
X59469744Y-68014662D01*
X59169199Y-67813844D01*
X58835250Y-67675518D01*
X58480732Y-67605000D01*
X58119268Y-67605000D01*
X57764750Y-67675518D01*
X57430801Y-67813844D01*
X57130256Y-68014662D01*
X56874662Y-68270256D01*
X56673844Y-68570801D01*
X56535518Y-68904750D01*
X56465000Y-69259268D01*
X53125435Y-69259268D01*
X53228335Y-68455933D01*
X53333674Y-67645721D01*
X53438669Y-66848524D01*
X53542859Y-66066168D01*
X53645337Y-65303857D01*
X53745454Y-64564811D01*
X53842780Y-63850673D01*
X53936410Y-63166580D01*
X53936410Y-63166577D01*
X54025639Y-62516177D01*
X54105875Y-61938521D01*
X54187695Y-61362151D01*
X54271318Y-60785523D01*
X54356598Y-60209663D01*
X54443637Y-59633888D01*
X54532467Y-59058016D01*
X54622947Y-58482963D01*
X54715180Y-57908076D01*
X54809229Y-57333007D01*
X54904965Y-56758551D01*
X55002441Y-56184395D01*
X55101649Y-55610601D01*
X55202579Y-55037235D01*
X55305314Y-54463848D01*
X55386369Y-54019268D01*
X56465000Y-54019268D01*
X56465000Y-54380732D01*
X56535518Y-54735250D01*
X56673844Y-55069199D01*
X56874662Y-55369744D01*
X57130256Y-55625338D01*
X57430801Y-55826156D01*
X57764750Y-55964482D01*
X58119268Y-56035000D01*
X58480732Y-56035000D01*
X58835250Y-55964482D01*
X59169199Y-55826156D01*
X59469744Y-55625338D01*
X59725338Y-55369744D01*
X59926156Y-55069199D01*
X60064482Y-54735250D01*
X60135000Y-54380732D01*
X60135000Y-54019268D01*
X60064482Y-53664750D01*
X59926156Y-53330801D01*
X59725338Y-53030256D01*
X59469744Y-52774662D01*
X59169199Y-52573844D01*
X58835250Y-52435518D01*
X58480732Y-52365000D01*
X58119268Y-52365000D01*
X57764750Y-52435518D01*
X57430801Y-52573844D01*
X57130256Y-52774662D01*
X56874662Y-53030256D01*
X56673844Y-53330801D01*
X56535518Y-53664750D01*
X56465000Y-54019268D01*
X55386369Y-54019268D01*
X55409826Y-53890612D01*
X55515938Y-53318509D01*
X55623908Y-52746147D01*
X55733673Y-52173891D01*
X55845093Y-51602480D01*
X55958339Y-51031053D01*
X56037651Y-50637196D01*
X58542409Y-50637196D01*
X59128124Y-51319416D01*
X60111704Y-51867045D01*
X61183223Y-52212265D01*
X62301501Y-52341808D01*
X63423565Y-52250697D01*
X64506294Y-51942433D01*
X65508079Y-51428863D01*
X65671876Y-51319416D01*
X66257591Y-50637196D01*
X62400000Y-46779605D01*
X58542409Y-50637196D01*
X56037651Y-50637196D01*
X56073287Y-50460236D01*
X56189991Y-49889785D01*
X56308488Y-49319524D01*
X56428758Y-48749574D01*
X56550797Y-48179954D01*
X56674449Y-47611404D01*
X56728451Y-47366761D01*
X56749303Y-47623565D01*
X57057567Y-48706294D01*
X57571137Y-49708079D01*
X57680584Y-49871876D01*
X58362804Y-50457591D01*
X62220395Y-46600000D01*
X62579605Y-46600000D01*
X66437196Y-50457591D01*
X67119416Y-49871876D01*
X67460834Y-49258665D01*
X69165000Y-49258665D01*
X69165000Y-49541335D01*
X69220147Y-49818574D01*
X69328320Y-50079727D01*
X69485363Y-50314759D01*
X69685241Y-50514637D01*
X69920273Y-50671680D01*
X70181426Y-50779853D01*
X70458665Y-50835000D01*
X70741335Y-50835000D01*
X71018574Y-50779853D01*
X71279727Y-50671680D01*
X71514759Y-50514637D01*
X71714637Y-50314759D01*
X71871680Y-50079727D01*
X71979853Y-49818574D01*
X72035000Y-49541335D01*
X72035000Y-49258665D01*
X73165000Y-49258665D01*
X73165000Y-49541335D01*
X73220147Y-49818574D01*
X73328320Y-50079727D01*
X73485363Y-50314759D01*
X73685241Y-50514637D01*
X73920273Y-50671680D01*
X74181426Y-50779853D01*
X74458665Y-50835000D01*
X74741335Y-50835000D01*
X75018574Y-50779853D01*
X75279727Y-50671680D01*
X75514759Y-50514637D01*
X75714637Y-50314759D01*
X75871680Y-50079727D01*
X75979853Y-49818574D01*
X76035000Y-49541335D01*
X76035000Y-49258665D01*
X75979853Y-48981426D01*
X75871680Y-48720273D01*
X75714637Y-48485241D01*
X75514759Y-48285363D01*
X75279727Y-48128320D01*
X75018574Y-48020147D01*
X74741335Y-47965000D01*
X74458665Y-47965000D01*
X74181426Y-48020147D01*
X73920273Y-48128320D01*
X73685241Y-48285363D01*
X73485363Y-48485241D01*
X73328320Y-48720273D01*
X73220147Y-48981426D01*
X73165000Y-49258665D01*
X72035000Y-49258665D01*
X71979853Y-48981426D01*
X71871680Y-48720273D01*
X71714637Y-48485241D01*
X71514759Y-48285363D01*
X71279727Y-48128320D01*
X71018574Y-48020147D01*
X70741335Y-47965000D01*
X70458665Y-47965000D01*
X70181426Y-48020147D01*
X69920273Y-48128320D01*
X69685241Y-48285363D01*
X69485363Y-48485241D01*
X69328320Y-48720273D01*
X69220147Y-48981426D01*
X69165000Y-49258665D01*
X67460834Y-49258665D01*
X67667045Y-48888296D01*
X68012265Y-47816777D01*
X68141808Y-46698499D01*
X68050697Y-45576435D01*
X67742433Y-44493706D01*
X67228863Y-43491921D01*
X67119416Y-43328124D01*
X66437196Y-42742409D01*
X62579605Y-46600000D01*
X62220395Y-46600000D01*
X58362804Y-42742409D01*
X57680584Y-43328124D01*
X57654445Y-43375071D01*
X57690270Y-43227620D01*
X57810174Y-42739834D01*
X57854201Y-42562804D01*
X58542409Y-42562804D01*
X62400000Y-46420395D01*
X66257591Y-42562804D01*
X65671876Y-41880584D01*
X64688296Y-41332955D01*
X63616777Y-40987735D01*
X62498499Y-40858192D01*
X61376435Y-40949303D01*
X60293706Y-41257567D01*
X59291921Y-41771137D01*
X59128124Y-41880584D01*
X58542409Y-42562804D01*
X57854201Y-42562804D01*
X57931454Y-42252177D01*
X58054141Y-41764580D01*
X58178163Y-41277391D01*
X58303463Y-40790875D01*
X58430226Y-40304368D01*
X58558292Y-39818539D01*
X58687845Y-39332736D01*
X58818730Y-38847588D01*
X58951030Y-38362848D01*
X59084756Y-37878510D01*
X59134614Y-37700000D01*
X62861928Y-37700000D01*
X62861928Y-38700000D01*
X62883796Y-38922027D01*
X62948559Y-39135521D01*
X63053728Y-39332279D01*
X63195262Y-39504738D01*
X63367721Y-39646272D01*
X63564479Y-39751441D01*
X63777973Y-39816204D01*
X64000000Y-39838072D01*
X68000000Y-39838072D01*
X68222027Y-39816204D01*
X68435521Y-39751441D01*
X68632279Y-39646272D01*
X68804738Y-39504738D01*
X68946272Y-39332279D01*
X69051441Y-39135521D01*
X69116204Y-38922027D01*
X69138072Y-38700000D01*
X69138072Y-37700000D01*
X69116204Y-37477973D01*
X69051441Y-37264479D01*
X68946272Y-37067721D01*
X68804738Y-36895262D01*
X68632279Y-36753728D01*
X68435521Y-36648559D01*
X68222027Y-36583796D01*
X68000000Y-36561928D01*
X64000000Y-36561928D01*
X63777973Y-36583796D01*
X63564479Y-36648559D01*
X63367721Y-36753728D01*
X63195262Y-36895262D01*
X63053728Y-37067721D01*
X62948559Y-37264479D01*
X62883796Y-37477973D01*
X62861928Y-37700000D01*
X59134614Y-37700000D01*
X59219914Y-37394601D01*
X59356602Y-36910834D01*
X59494596Y-36428038D01*
X59634190Y-35945227D01*
X59775124Y-35463351D01*
X59917733Y-34981314D01*
X60061715Y-34500184D01*
X60207253Y-34019386D01*
X60354324Y-33539048D01*
X60422389Y-33319268D01*
X66165000Y-33319268D01*
X66165000Y-33680732D01*
X66235518Y-34035250D01*
X66373844Y-34369199D01*
X66574662Y-34669744D01*
X66830256Y-34925338D01*
X67130801Y-35126156D01*
X67464750Y-35264482D01*
X67819268Y-35335000D01*
X68180732Y-35335000D01*
X68535250Y-35264482D01*
X68869199Y-35126156D01*
X69169744Y-34925338D01*
X69425338Y-34669744D01*
X69626156Y-34369199D01*
X69764482Y-34035250D01*
X69835000Y-33680732D01*
X69835000Y-33319268D01*
X75265000Y-33319268D01*
X75265000Y-33680732D01*
X75335518Y-34035250D01*
X75473844Y-34369199D01*
X75674662Y-34669744D01*
X75930256Y-34925338D01*
X76230801Y-35126156D01*
X76564750Y-35264482D01*
X76919268Y-35335000D01*
X77280732Y-35335000D01*
X77635250Y-35264482D01*
X77969199Y-35126156D01*
X78269744Y-34925338D01*
X78525338Y-34669744D01*
X78726156Y-34369199D01*
X78864482Y-34035250D01*
X78935000Y-33680732D01*
X78935000Y-33319268D01*
X78864482Y-32964750D01*
X78726156Y-32630801D01*
X78525338Y-32330256D01*
X78269744Y-32074662D01*
X77969199Y-31873844D01*
X77635250Y-31735518D01*
X77280732Y-31665000D01*
X76919268Y-31665000D01*
X76564750Y-31735518D01*
X76230801Y-31873844D01*
X75930256Y-32074662D01*
X75674662Y-32330256D01*
X75473844Y-32630801D01*
X75335518Y-32964750D01*
X75265000Y-33319268D01*
X69835000Y-33319268D01*
X69764482Y-32964750D01*
X69626156Y-32630801D01*
X69425338Y-32330256D01*
X69169744Y-32074662D01*
X68869199Y-31873844D01*
X68535250Y-31735518D01*
X68180732Y-31665000D01*
X67819268Y-31665000D01*
X67464750Y-31735518D01*
X67130801Y-31873844D01*
X66830256Y-32074662D01*
X66574662Y-32330256D01*
X66373844Y-32630801D01*
X66235518Y-32964750D01*
X66165000Y-33319268D01*
X60422389Y-33319268D01*
X60502886Y-33059352D01*
X60653061Y-32579950D01*
X60804721Y-32101279D01*
X60957925Y-31623211D01*
X61112841Y-31145259D01*
X61269277Y-30668067D01*
X61427250Y-30191608D01*
X61586825Y-29715738D01*
X61748153Y-29240046D01*
X61911145Y-28764839D01*
X62040367Y-28391366D01*
X62170542Y-28018263D01*
X62301646Y-27645687D01*
X62382018Y-27419268D01*
X70765000Y-27419268D01*
X70765000Y-27780732D01*
X70835518Y-28135250D01*
X70973844Y-28469199D01*
X71174662Y-28769744D01*
X71430256Y-29025338D01*
X71730801Y-29226156D01*
X72064750Y-29364482D01*
X72419268Y-29435000D01*
X72780732Y-29435000D01*
X73135250Y-29364482D01*
X73469199Y-29226156D01*
X73769744Y-29025338D01*
X74025338Y-28769744D01*
X74226156Y-28469199D01*
X74364482Y-28135250D01*
X74435000Y-27780732D01*
X74435000Y-27419268D01*
X74364482Y-27064750D01*
X74226156Y-26730801D01*
X74025338Y-26430256D01*
X73769744Y-26174662D01*
X73469199Y-25973844D01*
X73135250Y-25835518D01*
X72780732Y-25765000D01*
X72419268Y-25765000D01*
X72064750Y-25835518D01*
X71730801Y-25973844D01*
X71430256Y-26174662D01*
X71174662Y-26430256D01*
X70973844Y-26730801D01*
X70835518Y-27064750D01*
X70765000Y-27419268D01*
X62382018Y-27419268D01*
X62433950Y-27272971D01*
X62567203Y-26900922D01*
X62701515Y-26529325D01*
X62836979Y-26158017D01*
X62973551Y-25787211D01*
X63111348Y-25416687D01*
X63250266Y-25046820D01*
X63390452Y-24677305D01*
X63531745Y-24308652D01*
X63674412Y-23940264D01*
X63818387Y-23572397D01*
X63963609Y-23205297D01*
X64110204Y-22838732D01*
X64258257Y-22472581D01*
X64407476Y-22107643D01*
X64558429Y-21742625D01*
X64710597Y-21378865D01*
X64864348Y-21015560D01*
X65019492Y-20653245D01*
X65176386Y-20291174D01*
X65334582Y-19930460D01*
X65494595Y-19570006D01*
X65656026Y-19210796D01*
X65819253Y-18852069D01*
X65984029Y-18494442D01*
X66150571Y-18137527D01*
X66165000Y-18106998D01*
X66165000Y-18440732D01*
X66235518Y-18795250D01*
X66373844Y-19129199D01*
X66574662Y-19429744D01*
X66830256Y-19685338D01*
X67130801Y-19886156D01*
X67464750Y-20024482D01*
X67819268Y-20095000D01*
X68180732Y-20095000D01*
X68535250Y-20024482D01*
X68869199Y-19886156D01*
X69169744Y-19685338D01*
X69425338Y-19429744D01*
X69626156Y-19129199D01*
X69764482Y-18795250D01*
X69835000Y-18440732D01*
X69835000Y-18079268D01*
X69764482Y-17724750D01*
X69626156Y-17390801D01*
X69425338Y-17090256D01*
X69169744Y-16834662D01*
X68869199Y-16633844D01*
X68535250Y-16495518D01*
X68180732Y-16425000D01*
X67819268Y-16425000D01*
X67464750Y-16495518D01*
X67130801Y-16633844D01*
X66830256Y-16834662D01*
X66725672Y-16939246D01*
X66774453Y-16839554D01*
X66889180Y-16606319D01*
X67004315Y-16373699D01*
X67120470Y-16140676D01*
X67237263Y-15908233D01*
X67354940Y-15676099D01*
X67473567Y-15444359D01*
X67593330Y-15212863D01*
X67714034Y-14982202D01*
X67835892Y-14752173D01*
X67958829Y-14523126D01*
X68083190Y-14294622D01*
X68208789Y-14067209D01*
X68335724Y-13840907D01*
X68464214Y-13615524D01*
X68594052Y-13391620D01*
X68725523Y-13168889D01*
X68858625Y-12947532D01*
X68993333Y-12727775D01*
X69129861Y-12509452D01*
X69268088Y-12292939D01*
X69408202Y-12078121D01*
X69550233Y-11865126D01*
X69694183Y-11654123D01*
X69840235Y-11445018D01*
X69988297Y-11238111D01*
X70138546Y-11033317D01*
X70290945Y-10830849D01*
X70445629Y-10630690D01*
X70602594Y-10432996D01*
X70761950Y-10237786D01*
X70924829Y-10043866D01*
X71070982Y-9873245D01*
X71218386Y-9703227D01*
X71364734Y-9538327D01*
X71509902Y-9380393D01*
X71653398Y-9231525D01*
X71794762Y-9093579D01*
X71933154Y-8968526D01*
X72067498Y-8858179D01*
X72190625Y-8768336D01*
X72374971Y-8657364D01*
X72533855Y-8588624D01*
X72670703Y-8554868D01*
X72806843Y-8548623D01*
X72868425Y-8556689D01*
%TA.AperFunction,Conductor*%
D20*
G36*
X72868425Y-8556689D02*
G01*
X72879797Y-8560139D01*
X72883672Y-8560521D01*
X72985857Y-8590349D01*
X73087976Y-8637011D01*
X73213185Y-8713834D01*
X73325221Y-8799001D01*
X73454590Y-8914906D01*
X73531405Y-8992168D01*
X73697982Y-9172822D01*
X73860411Y-9361227D01*
X74018761Y-9556565D01*
X74173385Y-9758289D01*
X74324593Y-9965765D01*
X74472675Y-10178282D01*
X74618085Y-10395326D01*
X74761130Y-10616134D01*
X74902243Y-10840095D01*
X75042076Y-11066921D01*
X75133531Y-11217314D01*
X75279783Y-11461443D01*
X75423872Y-11706390D01*
X75566090Y-11952517D01*
X75706568Y-12199923D01*
X75845454Y-12448756D01*
X75982506Y-12698455D01*
X76118063Y-12949515D01*
X76252018Y-13201606D01*
X76384523Y-13454892D01*
X76515480Y-13709053D01*
X76645067Y-13964306D01*
X76773254Y-14220451D01*
X76900039Y-14477354D01*
X77025615Y-14735263D01*
X77040002Y-14765201D01*
X74430265Y-12155464D01*
X74364482Y-11824750D01*
X74226156Y-11490801D01*
X74025338Y-11190256D01*
X73769744Y-10934662D01*
X73469199Y-10733844D01*
X73135250Y-10595518D01*
X72780732Y-10525000D01*
X72419268Y-10525000D01*
X72064750Y-10595518D01*
X71730801Y-10733844D01*
X71430256Y-10934662D01*
X71174662Y-11190256D01*
X70973844Y-11490801D01*
X70835518Y-11824750D01*
X70765000Y-12179268D01*
X70765000Y-12540732D01*
X70835518Y-12895250D01*
X70973844Y-13229199D01*
X71174662Y-13529744D01*
X71430256Y-13785338D01*
X71730801Y-13986156D01*
X72064750Y-14124482D01*
X72419268Y-14195000D01*
X72780732Y-14195000D01*
X73135250Y-14124482D01*
X73469199Y-13986156D01*
X73769744Y-13785338D01*
X73840140Y-13714942D01*
X76611431Y-16486233D01*
X76564750Y-16495518D01*
X76230801Y-16633844D01*
X75930256Y-16834662D01*
X75674662Y-17090256D01*
X75473844Y-17390801D01*
X75335518Y-17724750D01*
X75265000Y-18079268D01*
X75265000Y-18440732D01*
X75335518Y-18795250D01*
X75473844Y-19129199D01*
X75674662Y-19429744D01*
X75930256Y-19685338D01*
X76230801Y-19886156D01*
X76564750Y-20024482D01*
X76919268Y-20095000D01*
X77280732Y-20095000D01*
X77430423Y-20065225D01*
X77514991Y-20149793D01*
X77514991Y-20607676D01*
X77511315Y-20644998D01*
X77514991Y-20682320D01*
X77514991Y-20682330D01*
X77525988Y-20793983D01*
X77555803Y-20892272D01*
X77569445Y-20937244D01*
X77640017Y-21069274D01*
X77663334Y-21097685D01*
X77734990Y-21184999D01*
X77763994Y-21208802D01*
X79389991Y-22834800D01*
X79389990Y-27849077D01*
X79386314Y-27886400D01*
X79389990Y-27923722D01*
X79389990Y-27923732D01*
X79400987Y-28035385D01*
X79431175Y-28134902D01*
X79444444Y-28178646D01*
X79515016Y-28310676D01*
X79539355Y-28340333D01*
X79609989Y-28426401D01*
X79638993Y-28450204D01*
X82389990Y-31201202D01*
X82389992Y-35649069D01*
X82386315Y-35686401D01*
X82389992Y-35723733D01*
X82389992Y-35723734D01*
X82400989Y-35835387D01*
X82405176Y-35849190D01*
X82444445Y-35978647D01*
X82515017Y-36110677D01*
X82581276Y-36191413D01*
X82609991Y-36226402D01*
X82638989Y-36250200D01*
X84289991Y-37901203D01*
X84289990Y-38435208D01*
X83435209Y-39289990D01*
X81968876Y-39289990D01*
X82051441Y-39135521D01*
X82116204Y-38922027D01*
X82138072Y-38700000D01*
X82138072Y-37700000D01*
X82116204Y-37477973D01*
X82051441Y-37264479D01*
X81946272Y-37067721D01*
X81804738Y-36895262D01*
X81632279Y-36753728D01*
X81435521Y-36648559D01*
X81222027Y-36583796D01*
X81000000Y-36561928D01*
X77000000Y-36561928D01*
X76777973Y-36583796D01*
X76564479Y-36648559D01*
X76367721Y-36753728D01*
X76195262Y-36895262D01*
X76053728Y-37067721D01*
X75948559Y-37264479D01*
X75883796Y-37477973D01*
X75861928Y-37700000D01*
X75861928Y-38700000D01*
X75883796Y-38922027D01*
X75948559Y-39135521D01*
X76053728Y-39332279D01*
X76195262Y-39504738D01*
X76367721Y-39646272D01*
X76564479Y-39751441D01*
X76777973Y-39816204D01*
X77000000Y-39838072D01*
X79450716Y-39838072D01*
X77673790Y-41614999D01*
X69362338Y-41614999D01*
X69325005Y-41611322D01*
X69287672Y-41614999D01*
X69176019Y-41625996D01*
X69032758Y-41669453D01*
X68900729Y-41740025D01*
X68785004Y-41834998D01*
X68761205Y-41863997D01*
X68425973Y-42199230D01*
X68398101Y-42204774D01*
X68209743Y-42282795D01*
X68040225Y-42396063D01*
X67896062Y-42540226D01*
X67782794Y-42709744D01*
X67704773Y-42898102D01*
X67664999Y-43098061D01*
X67664999Y-43301939D01*
X67704773Y-43501898D01*
X67782794Y-43690256D01*
X67896062Y-43859774D01*
X68040225Y-44003937D01*
X68209743Y-44117205D01*
X68398101Y-44195226D01*
X68598060Y-44235000D01*
X68801938Y-44235000D01*
X69001897Y-44195226D01*
X69190255Y-44117205D01*
X69193581Y-44114983D01*
X69165000Y-44258665D01*
X69165000Y-44541335D01*
X69220147Y-44818574D01*
X69328320Y-45079727D01*
X69485363Y-45314759D01*
X69685241Y-45514637D01*
X69920273Y-45671680D01*
X70181426Y-45779853D01*
X70458665Y-45835000D01*
X70741335Y-45835000D01*
X71018574Y-45779853D01*
X71279727Y-45671680D01*
X71514759Y-45514637D01*
X71714637Y-45314759D01*
X71871680Y-45079727D01*
X71979853Y-44818574D01*
X72035000Y-44541335D01*
X72035000Y-44258665D01*
X71979853Y-43981426D01*
X71871680Y-43720273D01*
X71714637Y-43485241D01*
X71514759Y-43285363D01*
X71289723Y-43134999D01*
X73910277Y-43134999D01*
X73685241Y-43285363D01*
X73485363Y-43485241D01*
X73328320Y-43720273D01*
X73220147Y-43981426D01*
X73165000Y-44258665D01*
X73165000Y-44541335D01*
X73220147Y-44818574D01*
X73328320Y-45079727D01*
X73485363Y-45314759D01*
X73685241Y-45514637D01*
X73920273Y-45671680D01*
X74181426Y-45779853D01*
X74458665Y-45835000D01*
X74741335Y-45835000D01*
X75018574Y-45779853D01*
X75279727Y-45671680D01*
X75514759Y-45514637D01*
X75714637Y-45314759D01*
X75871680Y-45079727D01*
X75979853Y-44818574D01*
X76035000Y-44541335D01*
X76035000Y-44258665D01*
X75979853Y-43981426D01*
X75950638Y-43910894D01*
X76109744Y-44017205D01*
X76298102Y-44095226D01*
X76498061Y-44135000D01*
X76701939Y-44135000D01*
X76901898Y-44095226D01*
X77090256Y-44017205D01*
X77259774Y-43903937D01*
X77303711Y-43860000D01*
X77557438Y-43860000D01*
X77535433Y-43892933D01*
X77104625Y-44932996D01*
X76885000Y-46037122D01*
X76885000Y-47162878D01*
X77104625Y-48267004D01*
X77535433Y-49307067D01*
X78160870Y-50243100D01*
X78956900Y-51039130D01*
X79892933Y-51664567D01*
X80932996Y-52095375D01*
X82037122Y-52315000D01*
X83162878Y-52315000D01*
X84267004Y-52095375D01*
X85307067Y-51664567D01*
X86243100Y-51039130D01*
X87039130Y-50243100D01*
X87664567Y-49307067D01*
X88095375Y-48267004D01*
X88182911Y-47826931D01*
X88247918Y-48095820D01*
X88348786Y-48517255D01*
X88448549Y-48938390D01*
X88547389Y-49360077D01*
X88645192Y-49781896D01*
X88741981Y-50204023D01*
X88837659Y-50626104D01*
X88932369Y-51048860D01*
X89025854Y-51471207D01*
X89118239Y-51893781D01*
X89209637Y-52317192D01*
X89299791Y-52740323D01*
X89388824Y-53163837D01*
X89408412Y-53258305D01*
X89296632Y-53146525D01*
X89053411Y-52984010D01*
X88783158Y-52872068D01*
X88496260Y-52815000D01*
X88203740Y-52815000D01*
X87916842Y-52872068D01*
X87646589Y-52984010D01*
X87403368Y-53146525D01*
X87196525Y-53353368D01*
X87034010Y-53596589D01*
X86922929Y-53864763D01*
X86815990Y-53606589D01*
X86653475Y-53363368D01*
X86446632Y-53156525D01*
X86203411Y-52994010D01*
X85933158Y-52882068D01*
X85646260Y-52825000D01*
X85353740Y-52825000D01*
X85066842Y-52882068D01*
X84796589Y-52994010D01*
X84553368Y-53156525D01*
X84346525Y-53363368D01*
X84221822Y-53550000D01*
X78228072Y-53550000D01*
X78228072Y-53075000D01*
X78210528Y-52896868D01*
X78158569Y-52725582D01*
X78074192Y-52567724D01*
X77960639Y-52429361D01*
X77822276Y-52315808D01*
X77664418Y-52231431D01*
X77493132Y-52179472D01*
X77315000Y-52161928D01*
X76936730Y-52161928D01*
X75863804Y-51089003D01*
X75840001Y-51059999D01*
X75724276Y-50965026D01*
X75592247Y-50894454D01*
X75448986Y-50850997D01*
X75337333Y-50840000D01*
X75337322Y-50840000D01*
X75300000Y-50836324D01*
X75262678Y-50840000D01*
X73077323Y-50840000D01*
X73040000Y-50836324D01*
X73002677Y-50840000D01*
X73002667Y-50840000D01*
X72891014Y-50850997D01*
X72769336Y-50887907D01*
X72747753Y-50894454D01*
X72615723Y-50965026D01*
X72576478Y-50997234D01*
X72499999Y-51059999D01*
X72476201Y-51088997D01*
X71274778Y-52290420D01*
X71164418Y-52231431D01*
X70993132Y-52179472D01*
X70815000Y-52161928D01*
X70265000Y-52161928D01*
X70086868Y-52179472D01*
X69915582Y-52231431D01*
X69757724Y-52315808D01*
X69619361Y-52429361D01*
X69505808Y-52567724D01*
X69421431Y-52725582D01*
X69369472Y-52896868D01*
X69351928Y-53075000D01*
X69351928Y-54231928D01*
X69188072Y-54231928D01*
X69188072Y-52800000D01*
X69175812Y-52675518D01*
X69139502Y-52555820D01*
X69080537Y-52445506D01*
X69001185Y-52348815D01*
X68904494Y-52269463D01*
X68794180Y-52210498D01*
X68674482Y-52174188D01*
X68550000Y-52161928D01*
X67450000Y-52161928D01*
X67325518Y-52174188D01*
X67205820Y-52210498D01*
X67095506Y-52269463D01*
X66998815Y-52348815D01*
X66919463Y-52445506D01*
X66860498Y-52555820D01*
X66824188Y-52675518D01*
X66811928Y-52800000D01*
X66811928Y-54600000D01*
X66824188Y-54724482D01*
X66860498Y-54844180D01*
X66919463Y-54954494D01*
X66998815Y-55051185D01*
X67095506Y-55130537D01*
X67205820Y-55189502D01*
X67325518Y-55225812D01*
X67450000Y-55238072D01*
X68081928Y-55238072D01*
X68081928Y-56395000D01*
X68099472Y-56573132D01*
X68151431Y-56744418D01*
X68235808Y-56902276D01*
X68349361Y-57040639D01*
X68487724Y-57154192D01*
X68645582Y-57238569D01*
X68816868Y-57290528D01*
X68995000Y-57308072D01*
X69545000Y-57308072D01*
X69723132Y-57290528D01*
X69894418Y-57238569D01*
X70052276Y-57154192D01*
X70190639Y-57040639D01*
X70304192Y-56902276D01*
X70388569Y-56744418D01*
X70440528Y-56573132D01*
X70458072Y-56395000D01*
X70458072Y-55238072D01*
X70815000Y-55238072D01*
X70993132Y-55220528D01*
X71164418Y-55168569D01*
X71322276Y-55084192D01*
X71460639Y-54970639D01*
X71574192Y-54832276D01*
X71658569Y-54674418D01*
X71710528Y-54503132D01*
X71728072Y-54325000D01*
X71728072Y-53986729D01*
X73354802Y-52360000D01*
X73489636Y-52360000D01*
X73419463Y-52445506D01*
X73360498Y-52555820D01*
X73324188Y-52675518D01*
X73311928Y-52800000D01*
X73311928Y-54600000D01*
X73324188Y-54724482D01*
X73360498Y-54844180D01*
X73419463Y-54954494D01*
X73498815Y-55051185D01*
X73595506Y-55130537D01*
X73705820Y-55189502D01*
X73825518Y-55225812D01*
X73950000Y-55238072D01*
X74581928Y-55238072D01*
X74581928Y-56395000D01*
X74599472Y-56573132D01*
X74651431Y-56744418D01*
X74735808Y-56902276D01*
X74849361Y-57040639D01*
X74987724Y-57154192D01*
X75145582Y-57238569D01*
X75316868Y-57290528D01*
X75495000Y-57308072D01*
X76045000Y-57308072D01*
X76223132Y-57290528D01*
X76394418Y-57238569D01*
X76552276Y-57154192D01*
X76690639Y-57040639D01*
X76804192Y-56902276D01*
X76888569Y-56744418D01*
X76940528Y-56573132D01*
X76958072Y-56395000D01*
X76958072Y-55238072D01*
X77315000Y-55238072D01*
X77493132Y-55220528D01*
X77664418Y-55168569D01*
X77822276Y-55084192D01*
X77839569Y-55070000D01*
X84221822Y-55070000D01*
X84346525Y-55256632D01*
X84478380Y-55388487D01*
X84405820Y-55410498D01*
X84295506Y-55469463D01*
X84198815Y-55548815D01*
X84119463Y-55645506D01*
X84060498Y-55755820D01*
X84024188Y-55875518D01*
X84011928Y-56000000D01*
X84015000Y-56564250D01*
X84173750Y-56723000D01*
X85373000Y-56723000D01*
X85373000Y-56703000D01*
X85627000Y-56703000D01*
X85627000Y-56723000D01*
X85647000Y-56723000D01*
X85647000Y-56977000D01*
X85627000Y-56977000D01*
X85627000Y-58176250D01*
X85785750Y-58335000D01*
X86350000Y-58338072D01*
X86474482Y-58325812D01*
X86594180Y-58289502D01*
X86704494Y-58230537D01*
X86801185Y-58151185D01*
X86880537Y-58054494D01*
X86939502Y-57944180D01*
X86975812Y-57824482D01*
X86988072Y-57700000D01*
X86987479Y-57591075D01*
X87034010Y-57703411D01*
X87196525Y-57946632D01*
X87403368Y-58153475D01*
X87646589Y-58315990D01*
X87916842Y-58427932D01*
X88203740Y-58485000D01*
X88496260Y-58485000D01*
X88783158Y-58427932D01*
X89053411Y-58315990D01*
X89296632Y-58153475D01*
X89503475Y-57946632D01*
X89665990Y-57703411D01*
X89777932Y-57433158D01*
X89835000Y-57146260D01*
X89835000Y-56853740D01*
X89777932Y-56566842D01*
X89665990Y-56296589D01*
X89503475Y-56053368D01*
X89296632Y-55846525D01*
X89053411Y-55684010D01*
X88971303Y-55650000D01*
X89053411Y-55615990D01*
X89296632Y-55453475D01*
X89503475Y-55246632D01*
X89665990Y-55003411D01*
X89730568Y-54847506D01*
X89733027Y-54859897D01*
X89816044Y-55284590D01*
X89897783Y-55709404D01*
X89978207Y-56134225D01*
X90057355Y-56559354D01*
X90135175Y-56984596D01*
X90211745Y-57410486D01*
X90286951Y-57836490D01*
X90360731Y-58262345D01*
X90423190Y-58629484D01*
X90484814Y-58997379D01*
X90545374Y-59364978D01*
X90604953Y-59733085D01*
X90663449Y-60101393D01*
X90720776Y-60469683D01*
X90776930Y-60838266D01*
X90831758Y-61206438D01*
X90885364Y-61575256D01*
X90937641Y-61944356D01*
X90988469Y-62313232D01*
X91037873Y-62682437D01*
X91085761Y-63051669D01*
X91132067Y-63420818D01*
X91176810Y-63790420D01*
X91219852Y-64159763D01*
X91261205Y-64529402D01*
X91300787Y-64899041D01*
X91338570Y-65268902D01*
X91374445Y-65638422D01*
X91408453Y-66008530D01*
X91440460Y-66378354D01*
X91470441Y-66748136D01*
X91498362Y-67118121D01*
X91524153Y-67488032D01*
X91547779Y-67858127D01*
X91569170Y-68228117D01*
X91588276Y-68597935D01*
X91605071Y-68968115D01*
X91619472Y-69337956D01*
X91631447Y-69707919D01*
X91641007Y-70080409D01*
X91641021Y-70080519D01*
X91641060Y-70082365D01*
X91646726Y-70282373D01*
X91646746Y-70282533D01*
X91646961Y-70289460D01*
X91655013Y-70501427D01*
X91655037Y-70501601D01*
X91655187Y-70505687D01*
X91663233Y-70689395D01*
X91591540Y-70527823D01*
X91476229Y-70266965D01*
X91476168Y-70266856D01*
X91475252Y-70264764D01*
X91369471Y-70027569D01*
X91369392Y-70027430D01*
X91366490Y-70020973D01*
X91272088Y-69814777D01*
X91269158Y-69809743D01*
X91267176Y-69804268D01*
X91262693Y-69795037D01*
X91146465Y-69559906D01*
X91142293Y-69553204D01*
X91139342Y-69545875D01*
X91134535Y-69536808D01*
X90965559Y-69223384D01*
X90965498Y-69223269D01*
X90796448Y-68909577D01*
X90796440Y-68909565D01*
X90796337Y-68909371D01*
X90627184Y-68595725D01*
X90627165Y-68595696D01*
X90626901Y-68595200D01*
X90457491Y-68281688D01*
X90457454Y-68281633D01*
X90457035Y-68280847D01*
X90287217Y-67967556D01*
X90287173Y-67967491D01*
X90286588Y-67966398D01*
X90116209Y-67653412D01*
X90116155Y-67653332D01*
X90115404Y-67651937D01*
X89944310Y-67339345D01*
X89944251Y-67339258D01*
X89943329Y-67337557D01*
X89771371Y-67025444D01*
X89771298Y-67025337D01*
X89770207Y-67023340D01*
X89597230Y-66711793D01*
X89597151Y-66711678D01*
X89595885Y-66709381D01*
X89421738Y-66398486D01*
X89421650Y-66398359D01*
X89420203Y-66395760D01*
X89244732Y-66085604D01*
X89244640Y-66085473D01*
X89243008Y-66082573D01*
X89066061Y-65773242D01*
X89065963Y-65773104D01*
X89064142Y-65769907D01*
X88885567Y-65461488D01*
X88885466Y-65461348D01*
X88883448Y-65457852D01*
X88703093Y-65150430D01*
X88702988Y-65150286D01*
X88700769Y-65146496D01*
X88518481Y-64840159D01*
X88518370Y-64840008D01*
X88515946Y-64835932D01*
X88331573Y-64530766D01*
X88331493Y-64530658D01*
X88330291Y-64528653D01*
X88174489Y-64272725D01*
X88174458Y-64272684D01*
X88174028Y-64271968D01*
X88015143Y-64011683D01*
X88015086Y-64011607D01*
X88014234Y-64010197D01*
X87852177Y-63746127D01*
X87852101Y-63746026D01*
X87850836Y-63743949D01*
X87685524Y-63476664D01*
X87685429Y-63476539D01*
X87683753Y-63473815D01*
X87515099Y-63203888D01*
X87514991Y-63203748D01*
X87512899Y-63200389D01*
X87340817Y-62928392D01*
X87340704Y-62928247D01*
X87338184Y-62924260D01*
X87162589Y-62650762D01*
X87162471Y-62650613D01*
X87159508Y-62646005D01*
X86980314Y-62371579D01*
X86980204Y-62371442D01*
X86976770Y-62366203D01*
X86793890Y-62091421D01*
X86793787Y-62091295D01*
X86789865Y-62085437D01*
X86603214Y-61810869D01*
X86603129Y-61810767D01*
X86598678Y-61804275D01*
X86408171Y-61530493D01*
X86408105Y-61530415D01*
X86403096Y-61523292D01*
X86208646Y-61250868D01*
X86208612Y-61250829D01*
X86202993Y-61243058D01*
X86004513Y-60972563D01*
X86004436Y-60972477D01*
X86004376Y-60972376D01*
X85998245Y-60964147D01*
X85795651Y-60696153D01*
X85795270Y-60695740D01*
X85794977Y-60695263D01*
X85788719Y-60687129D01*
X85581925Y-60422207D01*
X85581217Y-60421463D01*
X85580669Y-60420604D01*
X85574276Y-60412576D01*
X85363197Y-60151297D01*
X85362140Y-60150222D01*
X85361310Y-60148972D01*
X85354773Y-60141061D01*
X85139322Y-59883996D01*
X85137886Y-59882588D01*
X85136745Y-59880939D01*
X85130056Y-59873156D01*
X84910145Y-59620879D01*
X84908303Y-59619142D01*
X84906823Y-59617095D01*
X84899973Y-59609453D01*
X84675519Y-59362533D01*
X84673236Y-59360468D01*
X84671379Y-59358017D01*
X84664361Y-59350530D01*
X84435278Y-59109539D01*
X84432519Y-59107153D01*
X84430245Y-59104296D01*
X84423050Y-59096978D01*
X84189251Y-58862488D01*
X84185972Y-58859786D01*
X84183246Y-58856535D01*
X84175868Y-58849403D01*
X83937268Y-58621985D01*
X83933431Y-58618985D01*
X83930206Y-58615343D01*
X83922637Y-58608414D01*
X83679149Y-58388639D01*
X83674715Y-58385361D01*
X83670942Y-58381342D01*
X83663175Y-58374635D01*
X83414716Y-58163076D01*
X83409637Y-58159544D01*
X83405274Y-58155173D01*
X83397305Y-58148707D01*
X83143787Y-57945934D01*
X83138027Y-57942185D01*
X83133020Y-57937486D01*
X83124845Y-57931283D01*
X82866180Y-57737868D01*
X82859701Y-57733946D01*
X82854003Y-57728956D01*
X82845619Y-57723039D01*
X82812484Y-57700000D01*
X84011928Y-57700000D01*
X84024188Y-57824482D01*
X84060498Y-57944180D01*
X84119463Y-58054494D01*
X84198815Y-58151185D01*
X84295506Y-58230537D01*
X84405820Y-58289502D01*
X84525518Y-58325812D01*
X84650000Y-58338072D01*
X85214250Y-58335000D01*
X85373000Y-58176250D01*
X85373000Y-56977000D01*
X84173750Y-56977000D01*
X84015000Y-57135750D01*
X84011928Y-57700000D01*
X82812484Y-57700000D01*
X82581724Y-57539554D01*
X82574491Y-57535510D01*
X82568060Y-57530279D01*
X82559465Y-57524671D01*
X82290255Y-57351686D01*
X82282234Y-57347577D01*
X82275033Y-57342166D01*
X82266230Y-57336892D01*
X81991617Y-57174978D01*
X81982790Y-57170876D01*
X81974789Y-57165354D01*
X81965780Y-57160439D01*
X81685679Y-57010171D01*
X81676048Y-57006159D01*
X81667228Y-57000607D01*
X81658020Y-56996077D01*
X81372346Y-56858023D01*
X81361920Y-56854189D01*
X81352267Y-56848690D01*
X81342868Y-56844571D01*
X81051534Y-56719305D01*
X81001714Y-56703437D01*
X80952825Y-56684952D01*
X80942899Y-56682345D01*
X80525071Y-56575747D01*
X80519186Y-56574845D01*
X80513565Y-56572911D01*
X80448373Y-56563994D01*
X80383279Y-56554019D01*
X80377335Y-56554277D01*
X80371441Y-56553471D01*
X80361184Y-56553151D01*
X79883040Y-56541562D01*
X79825980Y-56545764D01*
X79768804Y-56547699D01*
X79758640Y-56549116D01*
X79224222Y-56627446D01*
X79184337Y-56637345D01*
X79143770Y-56643874D01*
X79133864Y-56646554D01*
X78547215Y-56809718D01*
X78519676Y-56820368D01*
X78491112Y-56827776D01*
X78481502Y-56831376D01*
X77846662Y-57074284D01*
X77827520Y-57083844D01*
X77807260Y-57090688D01*
X77797934Y-57094970D01*
X77118948Y-57412537D01*
X77105495Y-57420514D01*
X77090990Y-57426344D01*
X77081920Y-57431145D01*
X76362827Y-57818283D01*
X76353290Y-57824691D01*
X76342838Y-57829450D01*
X76333994Y-57834655D01*
X75578837Y-58286277D01*
X75572060Y-58291288D01*
X75564523Y-58295061D01*
X75555877Y-58300589D01*
X74768699Y-58811608D01*
X74763911Y-58815429D01*
X74758518Y-58818338D01*
X74750045Y-58824127D01*
X73934887Y-59389454D01*
X73931560Y-59392279D01*
X73927782Y-59394445D01*
X73919461Y-59400450D01*
X73080365Y-60014999D01*
X73078143Y-60016987D01*
X73075593Y-60018524D01*
X73067405Y-60024712D01*
X72208413Y-60683396D01*
X72207034Y-60684686D01*
X72205439Y-60685689D01*
X72197371Y-60692031D01*
X71322526Y-61389763D01*
X71321803Y-61390466D01*
X71320961Y-61391015D01*
X71313001Y-61397491D01*
X70426344Y-62129182D01*
X70426136Y-62129391D01*
X70425894Y-62129554D01*
X70418030Y-62136147D01*
X69523603Y-62896712D01*
X69523572Y-62896744D01*
X69516269Y-62903032D01*
X68618115Y-63687382D01*
X68618046Y-63687455D01*
X68611582Y-63693155D01*
X67713741Y-64496204D01*
X67713648Y-64496305D01*
X67707863Y-64501518D01*
X66814380Y-65318177D01*
X66814272Y-65318297D01*
X66809044Y-65323103D01*
X65923958Y-66148285D01*
X65923844Y-66148414D01*
X65919066Y-66152888D01*
X65046421Y-66981507D01*
X65046304Y-66981642D01*
X65041893Y-66985843D01*
X64185730Y-67812811D01*
X64185609Y-67812953D01*
X64181497Y-67816933D01*
X63345859Y-68637163D01*
X63345741Y-68637303D01*
X63341857Y-68641121D01*
X62530785Y-69449526D01*
X62530667Y-69449669D01*
X62526957Y-69453370D01*
X61744492Y-70244862D01*
X61744375Y-70245006D01*
X61740777Y-70248647D01*
X60990963Y-71018139D01*
X60990843Y-71018289D01*
X60987302Y-71021924D01*
X60274181Y-71764328D01*
X60274069Y-71764470D01*
X60270504Y-71768183D01*
X59598118Y-72478413D01*
X59598001Y-72478563D01*
X59594345Y-72482429D01*
X58966734Y-73155396D01*
X58966622Y-73155543D01*
X58962757Y-73159695D01*
X58383966Y-73790314D01*
X58383860Y-73790455D01*
X58379641Y-73795068D01*
X57853709Y-74378250D01*
X57853618Y-74378373D01*
X57848814Y-74383732D01*
X57379786Y-74914391D01*
X57379732Y-74914466D01*
X57373973Y-74921047D01*
X56965889Y-75394096D01*
X56965874Y-75394117D01*
X56959440Y-75401674D01*
X56772845Y-75623989D01*
X56772780Y-75624083D01*
X56767393Y-75630562D01*
X56576619Y-75863295D01*
X56576526Y-75863434D01*
X56572110Y-75868852D01*
X56377589Y-76110924D01*
X56377488Y-76111078D01*
X56373873Y-76115587D01*
X56176034Y-76365921D01*
X56175935Y-76366075D01*
X56172987Y-76369803D01*
X55972264Y-76627322D01*
X55972170Y-76627470D01*
X55969805Y-76630495D01*
X55766628Y-76894119D01*
X55766547Y-76894248D01*
X55764685Y-76896651D01*
X55559486Y-77165305D01*
X55559421Y-77165410D01*
X55558010Y-77167243D01*
X55351221Y-77439846D01*
X55351168Y-77439932D01*
X55350177Y-77441226D01*
X55142229Y-77716700D01*
X55142193Y-77716758D01*
X55141591Y-77717547D01*
X54932915Y-77994817D01*
X54932898Y-77994844D01*
X54932669Y-77995145D01*
X54723841Y-78272940D01*
X54723836Y-78272946D01*
X54514998Y-78550571D01*
X54307673Y-78825506D01*
X54101484Y-79097744D01*
X53897290Y-79365656D01*
X53695402Y-79628333D01*
X53496264Y-79884702D01*
X53300539Y-80133407D01*
X53108567Y-80373525D01*
X52921070Y-80603658D01*
X52738542Y-80822716D01*
X52561708Y-81029360D01*
X52391192Y-81222412D01*
X52227905Y-81400429D01*
X52072900Y-81561925D01*
X52060646Y-81574009D01*
X52047705Y-81245142D01*
X52044263Y-80806598D01*
X52052157Y-80314909D01*
X52070946Y-79774953D01*
X52100076Y-79190995D01*
X52138930Y-78567048D01*
X52186868Y-77906886D01*
X52243240Y-77214110D01*
X52307351Y-76492724D01*
X52378580Y-75745748D01*
X52456231Y-74976991D01*
X52539642Y-74189837D01*
X52628130Y-73387891D01*
X52721039Y-72574455D01*
X52817670Y-71753215D01*
X52917438Y-70926884D01*
X53019512Y-70100213D01*
X53123413Y-69275060D01*
X53125435Y-69259268D01*
X56465000Y-69259268D01*
X56465000Y-69620732D01*
X56535518Y-69975250D01*
X56673844Y-70309199D01*
X56874662Y-70609744D01*
X57130256Y-70865338D01*
X57430801Y-71066156D01*
X57764750Y-71204482D01*
X58119268Y-71275000D01*
X58480732Y-71275000D01*
X58835250Y-71204482D01*
X59169199Y-71066156D01*
X59469744Y-70865338D01*
X59725338Y-70609744D01*
X59926156Y-70309199D01*
X60064482Y-69975250D01*
X60135000Y-69620732D01*
X60135000Y-69259268D01*
X60064482Y-68904750D01*
X59926156Y-68570801D01*
X59725338Y-68270256D01*
X59469744Y-68014662D01*
X59169199Y-67813844D01*
X58835250Y-67675518D01*
X58480732Y-67605000D01*
X58119268Y-67605000D01*
X57764750Y-67675518D01*
X57430801Y-67813844D01*
X57130256Y-68014662D01*
X56874662Y-68270256D01*
X56673844Y-68570801D01*
X56535518Y-68904750D01*
X56465000Y-69259268D01*
X53125435Y-69259268D01*
X53228335Y-68455933D01*
X53333674Y-67645721D01*
X53438669Y-66848524D01*
X53542859Y-66066168D01*
X53645337Y-65303857D01*
X53745454Y-64564811D01*
X53842780Y-63850673D01*
X53936410Y-63166580D01*
X53936410Y-63166577D01*
X54025639Y-62516177D01*
X54105875Y-61938521D01*
X54187695Y-61362151D01*
X54271318Y-60785523D01*
X54356598Y-60209663D01*
X54443637Y-59633888D01*
X54532467Y-59058016D01*
X54622947Y-58482963D01*
X54715180Y-57908076D01*
X54809229Y-57333007D01*
X54904965Y-56758551D01*
X55002441Y-56184395D01*
X55101649Y-55610601D01*
X55202579Y-55037235D01*
X55305314Y-54463848D01*
X55386369Y-54019268D01*
X56465000Y-54019268D01*
X56465000Y-54380732D01*
X56535518Y-54735250D01*
X56673844Y-55069199D01*
X56874662Y-55369744D01*
X57130256Y-55625338D01*
X57430801Y-55826156D01*
X57764750Y-55964482D01*
X58119268Y-56035000D01*
X58480732Y-56035000D01*
X58835250Y-55964482D01*
X59169199Y-55826156D01*
X59469744Y-55625338D01*
X59725338Y-55369744D01*
X59926156Y-55069199D01*
X60064482Y-54735250D01*
X60135000Y-54380732D01*
X60135000Y-54019268D01*
X60064482Y-53664750D01*
X59926156Y-53330801D01*
X59725338Y-53030256D01*
X59469744Y-52774662D01*
X59169199Y-52573844D01*
X58835250Y-52435518D01*
X58480732Y-52365000D01*
X58119268Y-52365000D01*
X57764750Y-52435518D01*
X57430801Y-52573844D01*
X57130256Y-52774662D01*
X56874662Y-53030256D01*
X56673844Y-53330801D01*
X56535518Y-53664750D01*
X56465000Y-54019268D01*
X55386369Y-54019268D01*
X55409826Y-53890612D01*
X55515938Y-53318509D01*
X55623908Y-52746147D01*
X55733673Y-52173891D01*
X55845093Y-51602480D01*
X55958339Y-51031053D01*
X56037651Y-50637196D01*
X58542409Y-50637196D01*
X59128124Y-51319416D01*
X60111704Y-51867045D01*
X61183223Y-52212265D01*
X62301501Y-52341808D01*
X63423565Y-52250697D01*
X64506294Y-51942433D01*
X65508079Y-51428863D01*
X65671876Y-51319416D01*
X66257591Y-50637196D01*
X62400000Y-46779605D01*
X58542409Y-50637196D01*
X56037651Y-50637196D01*
X56073287Y-50460236D01*
X56189991Y-49889785D01*
X56308488Y-49319524D01*
X56428758Y-48749574D01*
X56550797Y-48179954D01*
X56674449Y-47611404D01*
X56728451Y-47366761D01*
X56749303Y-47623565D01*
X57057567Y-48706294D01*
X57571137Y-49708079D01*
X57680584Y-49871876D01*
X58362804Y-50457591D01*
X62220395Y-46600000D01*
X62579605Y-46600000D01*
X66437196Y-50457591D01*
X67119416Y-49871876D01*
X67460834Y-49258665D01*
X69165000Y-49258665D01*
X69165000Y-49541335D01*
X69220147Y-49818574D01*
X69328320Y-50079727D01*
X69485363Y-50314759D01*
X69685241Y-50514637D01*
X69920273Y-50671680D01*
X70181426Y-50779853D01*
X70458665Y-50835000D01*
X70741335Y-50835000D01*
X71018574Y-50779853D01*
X71279727Y-50671680D01*
X71514759Y-50514637D01*
X71714637Y-50314759D01*
X71871680Y-50079727D01*
X71979853Y-49818574D01*
X72035000Y-49541335D01*
X72035000Y-49258665D01*
X73165000Y-49258665D01*
X73165000Y-49541335D01*
X73220147Y-49818574D01*
X73328320Y-50079727D01*
X73485363Y-50314759D01*
X73685241Y-50514637D01*
X73920273Y-50671680D01*
X74181426Y-50779853D01*
X74458665Y-50835000D01*
X74741335Y-50835000D01*
X75018574Y-50779853D01*
X75279727Y-50671680D01*
X75514759Y-50514637D01*
X75714637Y-50314759D01*
X75871680Y-50079727D01*
X75979853Y-49818574D01*
X76035000Y-49541335D01*
X76035000Y-49258665D01*
X75979853Y-48981426D01*
X75871680Y-48720273D01*
X75714637Y-48485241D01*
X75514759Y-48285363D01*
X75279727Y-48128320D01*
X75018574Y-48020147D01*
X74741335Y-47965000D01*
X74458665Y-47965000D01*
X74181426Y-48020147D01*
X73920273Y-48128320D01*
X73685241Y-48285363D01*
X73485363Y-48485241D01*
X73328320Y-48720273D01*
X73220147Y-48981426D01*
X73165000Y-49258665D01*
X72035000Y-49258665D01*
X71979853Y-48981426D01*
X71871680Y-48720273D01*
X71714637Y-48485241D01*
X71514759Y-48285363D01*
X71279727Y-48128320D01*
X71018574Y-48020147D01*
X70741335Y-47965000D01*
X70458665Y-47965000D01*
X70181426Y-48020147D01*
X69920273Y-48128320D01*
X69685241Y-48285363D01*
X69485363Y-48485241D01*
X69328320Y-48720273D01*
X69220147Y-48981426D01*
X69165000Y-49258665D01*
X67460834Y-49258665D01*
X67667045Y-48888296D01*
X68012265Y-47816777D01*
X68141808Y-46698499D01*
X68050697Y-45576435D01*
X67742433Y-44493706D01*
X67228863Y-43491921D01*
X67119416Y-43328124D01*
X66437196Y-42742409D01*
X62579605Y-46600000D01*
X62220395Y-46600000D01*
X58362804Y-42742409D01*
X57680584Y-43328124D01*
X57654445Y-43375071D01*
X57690270Y-43227620D01*
X57810174Y-42739834D01*
X57854201Y-42562804D01*
X58542409Y-42562804D01*
X62400000Y-46420395D01*
X66257591Y-42562804D01*
X65671876Y-41880584D01*
X64688296Y-41332955D01*
X63616777Y-40987735D01*
X62498499Y-40858192D01*
X61376435Y-40949303D01*
X60293706Y-41257567D01*
X59291921Y-41771137D01*
X59128124Y-41880584D01*
X58542409Y-42562804D01*
X57854201Y-42562804D01*
X57931454Y-42252177D01*
X58054141Y-41764580D01*
X58178163Y-41277391D01*
X58303463Y-40790875D01*
X58430226Y-40304368D01*
X58558292Y-39818539D01*
X58687845Y-39332736D01*
X58818730Y-38847588D01*
X58951030Y-38362848D01*
X59084756Y-37878510D01*
X59134614Y-37700000D01*
X62861928Y-37700000D01*
X62861928Y-38700000D01*
X62883796Y-38922027D01*
X62948559Y-39135521D01*
X63053728Y-39332279D01*
X63195262Y-39504738D01*
X63367721Y-39646272D01*
X63564479Y-39751441D01*
X63777973Y-39816204D01*
X64000000Y-39838072D01*
X68000000Y-39838072D01*
X68222027Y-39816204D01*
X68435521Y-39751441D01*
X68632279Y-39646272D01*
X68804738Y-39504738D01*
X68946272Y-39332279D01*
X69051441Y-39135521D01*
X69116204Y-38922027D01*
X69138072Y-38700000D01*
X69138072Y-37700000D01*
X69116204Y-37477973D01*
X69051441Y-37264479D01*
X68946272Y-37067721D01*
X68804738Y-36895262D01*
X68632279Y-36753728D01*
X68435521Y-36648559D01*
X68222027Y-36583796D01*
X68000000Y-36561928D01*
X64000000Y-36561928D01*
X63777973Y-36583796D01*
X63564479Y-36648559D01*
X63367721Y-36753728D01*
X63195262Y-36895262D01*
X63053728Y-37067721D01*
X62948559Y-37264479D01*
X62883796Y-37477973D01*
X62861928Y-37700000D01*
X59134614Y-37700000D01*
X59219914Y-37394601D01*
X59356602Y-36910834D01*
X59494596Y-36428038D01*
X59634190Y-35945227D01*
X59775124Y-35463351D01*
X59917733Y-34981314D01*
X60061715Y-34500184D01*
X60207253Y-34019386D01*
X60354324Y-33539048D01*
X60422389Y-33319268D01*
X66165000Y-33319268D01*
X66165000Y-33680732D01*
X66235518Y-34035250D01*
X66373844Y-34369199D01*
X66574662Y-34669744D01*
X66830256Y-34925338D01*
X67130801Y-35126156D01*
X67464750Y-35264482D01*
X67819268Y-35335000D01*
X68180732Y-35335000D01*
X68535250Y-35264482D01*
X68869199Y-35126156D01*
X69169744Y-34925338D01*
X69425338Y-34669744D01*
X69626156Y-34369199D01*
X69764482Y-34035250D01*
X69835000Y-33680732D01*
X69835000Y-33319268D01*
X75265000Y-33319268D01*
X75265000Y-33680732D01*
X75335518Y-34035250D01*
X75473844Y-34369199D01*
X75674662Y-34669744D01*
X75930256Y-34925338D01*
X76230801Y-35126156D01*
X76564750Y-35264482D01*
X76919268Y-35335000D01*
X77280732Y-35335000D01*
X77635250Y-35264482D01*
X77969199Y-35126156D01*
X78269744Y-34925338D01*
X78525338Y-34669744D01*
X78726156Y-34369199D01*
X78864482Y-34035250D01*
X78935000Y-33680732D01*
X78935000Y-33319268D01*
X78864482Y-32964750D01*
X78726156Y-32630801D01*
X78525338Y-32330256D01*
X78269744Y-32074662D01*
X77969199Y-31873844D01*
X77635250Y-31735518D01*
X77280732Y-31665000D01*
X76919268Y-31665000D01*
X76564750Y-31735518D01*
X76230801Y-31873844D01*
X75930256Y-32074662D01*
X75674662Y-32330256D01*
X75473844Y-32630801D01*
X75335518Y-32964750D01*
X75265000Y-33319268D01*
X69835000Y-33319268D01*
X69764482Y-32964750D01*
X69626156Y-32630801D01*
X69425338Y-32330256D01*
X69169744Y-32074662D01*
X68869199Y-31873844D01*
X68535250Y-31735518D01*
X68180732Y-31665000D01*
X67819268Y-31665000D01*
X67464750Y-31735518D01*
X67130801Y-31873844D01*
X66830256Y-32074662D01*
X66574662Y-32330256D01*
X66373844Y-32630801D01*
X66235518Y-32964750D01*
X66165000Y-33319268D01*
X60422389Y-33319268D01*
X60502886Y-33059352D01*
X60653061Y-32579950D01*
X60804721Y-32101279D01*
X60957925Y-31623211D01*
X61112841Y-31145259D01*
X61269277Y-30668067D01*
X61427250Y-30191608D01*
X61586825Y-29715738D01*
X61748153Y-29240046D01*
X61911145Y-28764839D01*
X62040367Y-28391366D01*
X62170542Y-28018263D01*
X62301646Y-27645687D01*
X62382018Y-27419268D01*
X70765000Y-27419268D01*
X70765000Y-27780732D01*
X70835518Y-28135250D01*
X70973844Y-28469199D01*
X71174662Y-28769744D01*
X71430256Y-29025338D01*
X71730801Y-29226156D01*
X72064750Y-29364482D01*
X72419268Y-29435000D01*
X72780732Y-29435000D01*
X73135250Y-29364482D01*
X73469199Y-29226156D01*
X73769744Y-29025338D01*
X74025338Y-28769744D01*
X74226156Y-28469199D01*
X74364482Y-28135250D01*
X74435000Y-27780732D01*
X74435000Y-27419268D01*
X74364482Y-27064750D01*
X74226156Y-26730801D01*
X74025338Y-26430256D01*
X73769744Y-26174662D01*
X73469199Y-25973844D01*
X73135250Y-25835518D01*
X72780732Y-25765000D01*
X72419268Y-25765000D01*
X72064750Y-25835518D01*
X71730801Y-25973844D01*
X71430256Y-26174662D01*
X71174662Y-26430256D01*
X70973844Y-26730801D01*
X70835518Y-27064750D01*
X70765000Y-27419268D01*
X62382018Y-27419268D01*
X62433950Y-27272971D01*
X62567203Y-26900922D01*
X62701515Y-26529325D01*
X62836979Y-26158017D01*
X62973551Y-25787211D01*
X63111348Y-25416687D01*
X63250266Y-25046820D01*
X63390452Y-24677305D01*
X63531745Y-24308652D01*
X63674412Y-23940264D01*
X63818387Y-23572397D01*
X63963609Y-23205297D01*
X64110204Y-22838732D01*
X64258257Y-22472581D01*
X64407476Y-22107643D01*
X64558429Y-21742625D01*
X64710597Y-21378865D01*
X64864348Y-21015560D01*
X65019492Y-20653245D01*
X65176386Y-20291174D01*
X65334582Y-19930460D01*
X65494595Y-19570006D01*
X65656026Y-19210796D01*
X65819253Y-18852069D01*
X65984029Y-18494442D01*
X66150571Y-18137527D01*
X66165000Y-18106998D01*
X66165000Y-18440732D01*
X66235518Y-18795250D01*
X66373844Y-19129199D01*
X66574662Y-19429744D01*
X66830256Y-19685338D01*
X67130801Y-19886156D01*
X67464750Y-20024482D01*
X67819268Y-20095000D01*
X68180732Y-20095000D01*
X68535250Y-20024482D01*
X68869199Y-19886156D01*
X69169744Y-19685338D01*
X69425338Y-19429744D01*
X69626156Y-19129199D01*
X69764482Y-18795250D01*
X69835000Y-18440732D01*
X69835000Y-18079268D01*
X69764482Y-17724750D01*
X69626156Y-17390801D01*
X69425338Y-17090256D01*
X69169744Y-16834662D01*
X68869199Y-16633844D01*
X68535250Y-16495518D01*
X68180732Y-16425000D01*
X67819268Y-16425000D01*
X67464750Y-16495518D01*
X67130801Y-16633844D01*
X66830256Y-16834662D01*
X66725672Y-16939246D01*
X66774453Y-16839554D01*
X66889180Y-16606319D01*
X67004315Y-16373699D01*
X67120470Y-16140676D01*
X67237263Y-15908233D01*
X67354940Y-15676099D01*
X67473567Y-15444359D01*
X67593330Y-15212863D01*
X67714034Y-14982202D01*
X67835892Y-14752173D01*
X67958829Y-14523126D01*
X68083190Y-14294622D01*
X68208789Y-14067209D01*
X68335724Y-13840907D01*
X68464214Y-13615524D01*
X68594052Y-13391620D01*
X68725523Y-13168889D01*
X68858625Y-12947532D01*
X68993333Y-12727775D01*
X69129861Y-12509452D01*
X69268088Y-12292939D01*
X69408202Y-12078121D01*
X69550233Y-11865126D01*
X69694183Y-11654123D01*
X69840235Y-11445018D01*
X69988297Y-11238111D01*
X70138546Y-11033317D01*
X70290945Y-10830849D01*
X70445629Y-10630690D01*
X70602594Y-10432996D01*
X70761950Y-10237786D01*
X70924829Y-10043866D01*
X71070982Y-9873245D01*
X71218386Y-9703227D01*
X71364734Y-9538327D01*
X71509902Y-9380393D01*
X71653398Y-9231525D01*
X71794762Y-9093579D01*
X71933154Y-8968526D01*
X72067498Y-8858179D01*
X72190625Y-8768336D01*
X72374971Y-8657364D01*
X72533855Y-8588624D01*
X72670703Y-8554868D01*
X72806843Y-8548623D01*
X72868425Y-8556689D01*
G37*
%TD.AperFunction*%
%TD*%
M02*
