M48
; DRILL file {KiCad 5.1.10} date Thu Oct 21 14:21:36 2021
; FORMAT={-:-/ absolute / inch / decimal}
; #@! TF.CreationDate,2021-10-21T14:21:36+02:00
; #@! TF.GenerationSoftware,Kicad,Pcbnew,5.1.10
; #@! TF.FileFunction,Plated,1,2,PTH
FMAT,2
INCH
T1C0.0157
T2C0.0295
T3C0.0315
T4C0.0394
T5C0.0472
T6C0.0591
T7C0.2402
%
G90
G05
T1
X2.7047Y-1.7008
X3.0157Y-1.6969
T2
X2.6772Y-2.1299
X2.7272Y-2.1799
X2.7772Y-2.1299
X2.9331Y-2.1299
X2.9831Y-2.1799
X3.0331Y-2.1299
T3
X2.7795Y-1.748
X2.7795Y-1.9449
X2.937Y-1.748
X2.937Y-1.9449
T4
X3.3661Y-2.1382
X3.3661Y-2.2382
T5
X2.2953Y-2.1339
X2.2953Y-2.7339
X2.6772Y-0.7189
X2.6772Y-1.3189
X2.8583Y-0.4866
X2.8583Y-1.0866
X3.0354Y-0.7189
X3.0354Y-1.3189
T7
X2.4567Y-1.8346
X3.252Y-1.8346
T6
G00X2.6575Y-1.5039
M15
G01X2.5394Y-1.5039
M16
G05
G00X3.1693Y-1.5039
M15
G01X3.0512Y-1.5039
M16
G05
T0
M30
