%TF.GenerationSoftware,KiCad,Pcbnew,5.1.10*%
%TF.CreationDate,2021-10-21T14:21:38+02:00*%
%TF.ProjectId,ermerBeeperTHT,65726d65-7242-4656-9570-65725448542e,rev?*%
%TF.SameCoordinates,Original*%
%TF.FileFunction,Profile,NP*%
%FSLAX46Y46*%
G04 Gerber Fmt 4.6, Leading zero omitted, Abs format (unit mm)*
G04 Created by KiCad (PCBNEW 5.1.10) date 2021-10-21 14:21:38*
%MOMM*%
%LPD*%
G01*
G04 APERTURE LIST*
%TA.AperFunction,Profile*%
%ADD10C,0.200000*%
%TD*%
G04 APERTURE END LIST*
D10*
X51618583Y-82809035D02*
X51458078Y-82546053D01*
X51458078Y-82546053D02*
X51400798Y-82314773D01*
X51400798Y-82314773D02*
X51357941Y-82021493D01*
X51357941Y-82021493D02*
X51328838Y-81669605D01*
X51328838Y-81669605D02*
X51312819Y-81262503D01*
X51312819Y-81262503D02*
X51309217Y-80803581D01*
X51309217Y-80803581D02*
X51317362Y-80296233D01*
X51317362Y-80296233D02*
X51336584Y-79743852D01*
X51336584Y-79743852D02*
X51366216Y-79149831D01*
X51366216Y-79149831D02*
X51405588Y-78517566D01*
X51405588Y-78517566D02*
X51454031Y-77850448D01*
X51454031Y-77850448D02*
X51510875Y-77151872D01*
X51510875Y-77151872D02*
X51575453Y-76425232D01*
X51575453Y-76425232D02*
X51647095Y-75673921D01*
X51647095Y-75673921D02*
X51725133Y-74901332D01*
X51725133Y-74901332D02*
X51808896Y-74110860D01*
X51808896Y-74110860D02*
X51897716Y-73305898D01*
X51897716Y-73305898D02*
X51990925Y-72489839D01*
X51990925Y-72489839D02*
X52087853Y-71666078D01*
X52087853Y-71666078D02*
X52187831Y-70838008D01*
X52187831Y-70838008D02*
X52290190Y-70009023D01*
X52290190Y-70009023D02*
X52394262Y-69182515D01*
X52394262Y-69182515D02*
X52499377Y-68361880D01*
X52499377Y-68361880D02*
X52604866Y-67550510D01*
X52604866Y-67550510D02*
X52710061Y-66751800D01*
X52710061Y-66751800D02*
X52814291Y-65969142D01*
X52814291Y-65969142D02*
X52916890Y-65205931D01*
X52916890Y-65205931D02*
X53017186Y-64465559D01*
X53017186Y-64465559D02*
X53114512Y-63751422D01*
X53114512Y-63751422D02*
X53208199Y-63066912D01*
X53208199Y-63066912D02*
X53297577Y-62415424D01*
X80761204Y-57394533D02*
X80343375Y-57287935D01*
X80343375Y-57287935D02*
X79865231Y-57276346D01*
X79865231Y-57276346D02*
X79330813Y-57354676D01*
X79330813Y-57354676D02*
X78744164Y-57517840D01*
X78744164Y-57517840D02*
X78109324Y-57760749D01*
X78109324Y-57760749D02*
X77430337Y-58078316D01*
X77430337Y-58078316D02*
X76711244Y-58465454D01*
X76711244Y-58465454D02*
X75956087Y-58917076D01*
X75956087Y-58917076D02*
X75168909Y-59428095D01*
X75168909Y-59428095D02*
X74353751Y-59993423D01*
X74353751Y-59993423D02*
X73514655Y-60607972D01*
X73514655Y-60607972D02*
X72655663Y-61266656D01*
X72655663Y-61266656D02*
X71780818Y-61964388D01*
X71780818Y-61964388D02*
X70894161Y-62696079D01*
X70894161Y-62696079D02*
X69999734Y-63456644D01*
X69999734Y-63456644D02*
X69101580Y-64240994D01*
X69101580Y-64240994D02*
X68203739Y-65044042D01*
X68203739Y-65044042D02*
X67310256Y-65860701D01*
X67310256Y-65860701D02*
X66425170Y-66685883D01*
X66425170Y-66685883D02*
X65552525Y-67514502D01*
X65552525Y-67514502D02*
X64696362Y-68341470D01*
X64696362Y-68341470D02*
X63860724Y-69161700D01*
X63860724Y-69161700D02*
X63049652Y-69970105D01*
X63049652Y-69970105D02*
X62267188Y-70761596D01*
X62267188Y-70761596D02*
X61517374Y-71531088D01*
X61517374Y-71531088D02*
X60804253Y-72273492D01*
X60804253Y-72273492D02*
X60131867Y-72983722D01*
X60131867Y-72983722D02*
X59504256Y-73656690D01*
X59504256Y-73656690D02*
X58925465Y-74287309D01*
X58925465Y-74287309D02*
X58399533Y-74870491D01*
X58399533Y-74870491D02*
X57930504Y-75401150D01*
X57930504Y-75401150D02*
X57522420Y-75874198D01*
X73023882Y-7835774D02*
X73242908Y-7899709D01*
X73242908Y-7899709D02*
X73434179Y-7987107D01*
X73434179Y-7987107D02*
X73628802Y-8106520D01*
X73628802Y-8106520D02*
X73793610Y-8231802D01*
X73793610Y-8231802D02*
X73960854Y-8381640D01*
X73960854Y-8381640D02*
X74062391Y-8483769D01*
X79799938Y-19196074D02*
X79949965Y-19559391D01*
X79949965Y-19559391D02*
X80098926Y-19923158D01*
X80098926Y-19923158D02*
X80246832Y-20287366D01*
X80246832Y-20287366D02*
X80393698Y-20652007D01*
X80393698Y-20652007D02*
X80539536Y-21017072D01*
X80539536Y-21017072D02*
X80684361Y-21382551D01*
X80684361Y-21382551D02*
X80828187Y-21748436D01*
X80828187Y-21748436D02*
X80971026Y-22114717D01*
X80971026Y-22114717D02*
X81112892Y-22481388D01*
X81112892Y-22481388D02*
X81253799Y-22848437D01*
X81253799Y-22848437D02*
X81393760Y-23215857D01*
X81393760Y-23215857D02*
X81532789Y-23583638D01*
X81532789Y-23583638D02*
X81670900Y-23951773D01*
X81670900Y-23951773D02*
X81808105Y-24320251D01*
X81808105Y-24320251D02*
X81944419Y-24689064D01*
X81944419Y-24689064D02*
X82079856Y-25058204D01*
X82079856Y-25058204D02*
X82214427Y-25427661D01*
X82214427Y-25427661D02*
X82348149Y-25797427D01*
X82348149Y-25797427D02*
X82481032Y-26167493D01*
X82481032Y-26167493D02*
X82613092Y-26537849D01*
X82613092Y-26537849D02*
X82744342Y-26908488D01*
X82744342Y-26908488D02*
X82874796Y-27279400D01*
X82874796Y-27279400D02*
X83004466Y-27650576D01*
X83004466Y-27650576D02*
X83133367Y-28022008D01*
X83133367Y-28022008D02*
X83261512Y-28393686D01*
X83261512Y-28393686D02*
X83388915Y-28765603D01*
X83388915Y-28765603D02*
X83515589Y-29137748D01*
X83515589Y-29137748D02*
X83641547Y-29510114D01*
X83641547Y-29510114D02*
X83766804Y-29882691D01*
X83766804Y-29882691D02*
X83891373Y-30255471D01*
X83891373Y-30255471D02*
X84015267Y-30628444D01*
X84015267Y-30628444D02*
X84138501Y-31001603D01*
X87702477Y-64910849D02*
X87546675Y-64654921D01*
X87546675Y-64654921D02*
X87387790Y-64394636D01*
X87387790Y-64394636D02*
X87225734Y-64130566D01*
X87225734Y-64130566D02*
X87060422Y-63863281D01*
X87060422Y-63863281D02*
X86891768Y-63593354D01*
X86891768Y-63593354D02*
X86719686Y-63321357D01*
X86719686Y-63321357D02*
X86544091Y-63047859D01*
X86544091Y-63047859D02*
X86364897Y-62773433D01*
X86364897Y-62773433D02*
X86182017Y-62498651D01*
X86182017Y-62498651D02*
X85995366Y-62224083D01*
X85995366Y-62224083D02*
X85804858Y-61950301D01*
X85804858Y-61950301D02*
X85610408Y-61677877D01*
X85610408Y-61677877D02*
X85411928Y-61407382D01*
X85411928Y-61407382D02*
X85209334Y-61139388D01*
X85209334Y-61139388D02*
X85002540Y-60874466D01*
X85002540Y-60874466D02*
X84791460Y-60613187D01*
X84791460Y-60613187D02*
X84576008Y-60356122D01*
X84576008Y-60356122D02*
X84356097Y-60103845D01*
X84356097Y-60103845D02*
X84131643Y-59856925D01*
X84131643Y-59856925D02*
X83902560Y-59615934D01*
X83902560Y-59615934D02*
X83668761Y-59381444D01*
X83668761Y-59381444D02*
X83430161Y-59154026D01*
X83430161Y-59154026D02*
X83186673Y-58934251D01*
X83186673Y-58934251D02*
X82938213Y-58722692D01*
X82938213Y-58722692D02*
X82684694Y-58519919D01*
X82684694Y-58519919D02*
X82426030Y-58326504D01*
X82426030Y-58326504D02*
X82162136Y-58143019D01*
X82162136Y-58143019D02*
X81892926Y-57970034D01*
X81892926Y-57970034D02*
X81618313Y-57808121D01*
X81618313Y-57808121D02*
X81338212Y-57657853D01*
X81338212Y-57657853D02*
X81052538Y-57519799D01*
X81052538Y-57519799D02*
X80761204Y-57394533D01*
X57522420Y-75874198D02*
X57335825Y-76096513D01*
X57335825Y-76096513D02*
X57145051Y-76329246D01*
X57145051Y-76329246D02*
X56950530Y-76571319D01*
X56950530Y-76571319D02*
X56752691Y-76821653D01*
X56752691Y-76821653D02*
X56551968Y-77079172D01*
X56551968Y-77079172D02*
X56348791Y-77342796D01*
X56348791Y-77342796D02*
X56143592Y-77611449D01*
X56143592Y-77611449D02*
X55936803Y-77884052D01*
X55936803Y-77884052D02*
X55728855Y-78159527D01*
X55728855Y-78159527D02*
X55520179Y-78436797D01*
X55520179Y-78436797D02*
X55311207Y-78714783D01*
X55311207Y-78714783D02*
X55102370Y-78992408D01*
X55102370Y-78992408D02*
X54894101Y-79268594D01*
X54894101Y-79268594D02*
X54686830Y-79542262D01*
X54686830Y-79542262D02*
X54480989Y-79812335D01*
X54480989Y-79812335D02*
X54277009Y-80077735D01*
X54277009Y-80077735D02*
X54075322Y-80337385D01*
X54075322Y-80337385D02*
X53876359Y-80590205D01*
X53876359Y-80590205D02*
X53680553Y-80835119D01*
X53680553Y-80835119D02*
X53488334Y-81071048D01*
X53488334Y-81071048D02*
X53300133Y-81296914D01*
X53300133Y-81296914D02*
X53116383Y-81511640D01*
X53116383Y-81511640D02*
X52937515Y-81714148D01*
X52937515Y-81714148D02*
X52763961Y-81903359D01*
X52763961Y-81903359D02*
X52596151Y-82078196D01*
X52596151Y-82078196D02*
X52434517Y-82237581D01*
X52434517Y-82237581D02*
X52279491Y-82380436D01*
X52279491Y-82380436D02*
X51990989Y-82612245D01*
X51990989Y-82612245D02*
X51734097Y-82764998D01*
X51734097Y-82764998D02*
X51618583Y-82809035D01*
X91085139Y-58138011D02*
X91147960Y-58507278D01*
X91147960Y-58507278D02*
X91209861Y-58876828D01*
X91209861Y-58876828D02*
X91270788Y-59246654D01*
X91270788Y-59246654D02*
X91330689Y-59616748D01*
X91330689Y-59616748D02*
X91389510Y-59987106D01*
X91389510Y-59987106D02*
X91447199Y-60357719D01*
X91447199Y-60357719D02*
X91503701Y-60728581D01*
X91503701Y-60728581D02*
X91558965Y-61099685D01*
X91558965Y-61099685D02*
X91612937Y-61471026D01*
X91612937Y-61471026D02*
X91665564Y-61842595D01*
X91665564Y-61842595D02*
X91716794Y-62214387D01*
X91716794Y-62214387D02*
X91766572Y-62586394D01*
X91766572Y-62586394D02*
X91814847Y-62958610D01*
X91814847Y-62958610D02*
X91861564Y-63331029D01*
X91861564Y-63331029D02*
X91906671Y-63703644D01*
X91906671Y-63703644D02*
X91950116Y-64076447D01*
X91950116Y-64076447D02*
X91991844Y-64449433D01*
X91991844Y-64449433D02*
X92031803Y-64822594D01*
X92031803Y-64822594D02*
X92069940Y-65195924D01*
X92069940Y-65195924D02*
X92106201Y-65569417D01*
X92106201Y-65569417D02*
X92140534Y-65943065D01*
X92140534Y-65943065D02*
X92172886Y-66316862D01*
X92172886Y-66316862D02*
X92203204Y-66690801D01*
X92203204Y-66690801D02*
X92231434Y-67064876D01*
X92231434Y-67064876D02*
X92257524Y-67439079D01*
X92257524Y-67439079D02*
X92281420Y-67813405D01*
X92281420Y-67813405D02*
X92303070Y-68187846D01*
X92303070Y-68187846D02*
X92322420Y-68562396D01*
X92322420Y-68562396D02*
X92339418Y-68937049D01*
X92339418Y-68937049D02*
X92354010Y-69311796D01*
X92354010Y-69311796D02*
X92366143Y-69686633D01*
X92366143Y-69686633D02*
X92375765Y-70061552D01*
X73023882Y-7835774D02*
X73023882Y-7835774D01*
X88119810Y-44550496D02*
X88228221Y-44971339D01*
X88228221Y-44971339D02*
X88335791Y-45392427D01*
X88335791Y-45392427D02*
X88442504Y-45813760D01*
X88442504Y-45813760D02*
X88548340Y-46235338D01*
X88548340Y-46235338D02*
X88653282Y-46657160D01*
X88653282Y-46657160D02*
X88757314Y-47079226D01*
X88757314Y-47079226D02*
X88860418Y-47501537D01*
X88860418Y-47501537D02*
X88962575Y-47924091D01*
X88962575Y-47924091D02*
X89063769Y-48346888D01*
X89063769Y-48346888D02*
X89163983Y-48769929D01*
X89163983Y-48769929D02*
X89263198Y-49193213D01*
X89263198Y-49193213D02*
X89361397Y-49616740D01*
X89361397Y-49616740D02*
X89458563Y-50040510D01*
X89458563Y-50040510D02*
X89554678Y-50464523D01*
X89554678Y-50464523D02*
X89649725Y-50888778D01*
X89649725Y-50888778D02*
X89743686Y-51313275D01*
X89743686Y-51313275D02*
X89836544Y-51738014D01*
X89836544Y-51738014D02*
X89928281Y-52162995D01*
X89928281Y-52162995D02*
X90018881Y-52588218D01*
X90018881Y-52588218D02*
X90108324Y-53013682D01*
X90108324Y-53013682D02*
X90196594Y-53439387D01*
X90196594Y-53439387D02*
X90283674Y-53865334D01*
X90283674Y-53865334D02*
X90369545Y-54291521D01*
X90369545Y-54291521D02*
X90454191Y-54717949D01*
X90454191Y-54717949D02*
X90537594Y-55144617D01*
X90537594Y-55144617D02*
X90619736Y-55571525D01*
X90619736Y-55571525D02*
X90700600Y-55998674D01*
X90700600Y-55998674D02*
X90780169Y-56426062D01*
X90780169Y-56426062D02*
X90858425Y-56853690D01*
X90858425Y-56853690D02*
X90935350Y-57281558D01*
X90935350Y-57281558D02*
X91010927Y-57709665D01*
X91010927Y-57709665D02*
X91085139Y-58138011D01*
X61216208Y-28525488D02*
X61346040Y-28150251D01*
X61346040Y-28150251D02*
X61476869Y-27775273D01*
X61476869Y-27775273D02*
X61608719Y-27400577D01*
X61608719Y-27400577D02*
X61741620Y-27026181D01*
X61741620Y-27026181D02*
X61875598Y-26652108D01*
X61875598Y-26652108D02*
X62010681Y-26278378D01*
X62010681Y-26278378D02*
X62146896Y-25905012D01*
X62146896Y-25905012D02*
X62284270Y-25532030D01*
X62284270Y-25532030D02*
X62422830Y-25159454D01*
X62422830Y-25159454D02*
X62562604Y-24787304D01*
X62562604Y-24787304D02*
X62703620Y-24415601D01*
X62703620Y-24415601D02*
X62845903Y-24044366D01*
X62845903Y-24044366D02*
X62989483Y-23673620D01*
X62989483Y-23673620D02*
X63134385Y-23303383D01*
X63134385Y-23303383D02*
X63280638Y-22933677D01*
X63280638Y-22933677D02*
X63428269Y-22564522D01*
X63428269Y-22564522D02*
X63577304Y-22195939D01*
X63577304Y-22195939D02*
X63727772Y-21827949D01*
X63727772Y-21827949D02*
X63879699Y-21460573D01*
X63879699Y-21460573D02*
X64033114Y-21093831D01*
X64033114Y-21093831D02*
X64188042Y-20727744D01*
X64188042Y-20727744D02*
X64344512Y-20362334D01*
X64344512Y-20362334D02*
X64502551Y-19997621D01*
X64502551Y-19997621D02*
X64662185Y-19633625D01*
X64662185Y-19633625D02*
X64823443Y-19270368D01*
X64823443Y-19270368D02*
X64986352Y-18907870D01*
X64986352Y-18907870D02*
X65150939Y-18546153D01*
X65150939Y-18546153D02*
X65317231Y-18185237D01*
X65317231Y-18185237D02*
X65485256Y-17825143D01*
X65485256Y-17825143D02*
X65655041Y-17465891D01*
X65655041Y-17465891D02*
X65826613Y-17107503D01*
X65826613Y-17107503D02*
X66000000Y-16750000D01*
X90487569Y-69885606D02*
X90318470Y-69571953D01*
X90318470Y-69571953D02*
X90149421Y-69258261D01*
X90149421Y-69258261D02*
X89980268Y-68944616D01*
X89980268Y-68944616D02*
X89810858Y-68631104D01*
X89810858Y-68631104D02*
X89641040Y-68317813D01*
X89641040Y-68317813D02*
X89470661Y-68004828D01*
X89470661Y-68004828D02*
X89299568Y-67692236D01*
X89299568Y-67692236D02*
X89127610Y-67380123D01*
X89127610Y-67380123D02*
X88954633Y-67068576D01*
X88954633Y-67068576D02*
X88780486Y-66757681D01*
X88780486Y-66757681D02*
X88605015Y-66447525D01*
X88605015Y-66447525D02*
X88428068Y-66138194D01*
X88428068Y-66138194D02*
X88249493Y-65829774D01*
X88249493Y-65829774D02*
X88069138Y-65522352D01*
X88069138Y-65522352D02*
X87886850Y-65216015D01*
X87886850Y-65216015D02*
X87702477Y-64910849D01*
X56739247Y-44034460D02*
X56857073Y-43543784D01*
X56857073Y-43543784D02*
X56976212Y-43053413D01*
X56976212Y-43053413D02*
X57096675Y-42563354D01*
X57096675Y-42563354D02*
X57218473Y-42073616D01*
X57218473Y-42073616D02*
X57341616Y-41584208D01*
X57341616Y-41584208D02*
X57466117Y-41095137D01*
X57466117Y-41095137D02*
X57591986Y-40606412D01*
X57591986Y-40606412D02*
X57719235Y-40118041D01*
X57719235Y-40118041D02*
X57847875Y-39630034D01*
X57847875Y-39630034D02*
X57977917Y-39142398D01*
X57977917Y-39142398D02*
X58109371Y-38655142D01*
X58109371Y-38655142D02*
X58242251Y-38168275D01*
X58242251Y-38168275D02*
X58376566Y-37681804D01*
X58376566Y-37681804D02*
X58512327Y-37195738D01*
X58512327Y-37195738D02*
X58649547Y-36710086D01*
X58649547Y-36710086D02*
X58788236Y-36224857D01*
X58788236Y-36224857D02*
X58928405Y-35740058D01*
X58928405Y-35740058D02*
X59070066Y-35255698D01*
X59070066Y-35255698D02*
X59213230Y-34771785D01*
X59213230Y-34771785D02*
X59357908Y-34288329D01*
X59357908Y-34288329D02*
X59504111Y-33805336D01*
X59504111Y-33805336D02*
X59651850Y-33322817D01*
X59651850Y-33322817D02*
X59801137Y-32840779D01*
X59801137Y-32840779D02*
X59951983Y-32359231D01*
X59951983Y-32359231D02*
X60104398Y-31878180D01*
X60104398Y-31878180D02*
X60258395Y-31397637D01*
X60258395Y-31397637D02*
X60413984Y-30917608D01*
X60413984Y-30917608D02*
X60571177Y-30438103D01*
X60571177Y-30438103D02*
X60729984Y-29959130D01*
X60729984Y-29959130D02*
X60890418Y-29480698D01*
X60890418Y-29480698D02*
X61052489Y-29002814D01*
X61052489Y-29002814D02*
X61216208Y-28525488D01*
X53297577Y-62415424D02*
X53378002Y-61836408D01*
X53378002Y-61836408D02*
X53460164Y-61257632D01*
X53460164Y-61257632D02*
X53544063Y-60679100D01*
X53544063Y-60679100D02*
X53629702Y-60100818D01*
X53629702Y-60100818D02*
X53717081Y-59522792D01*
X53717081Y-59522792D02*
X53806202Y-58945029D01*
X53806202Y-58945029D02*
X53897067Y-58367533D01*
X53897067Y-58367533D02*
X53989675Y-57790311D01*
X53989675Y-57790311D02*
X54084030Y-57213369D01*
X54084030Y-57213369D02*
X54180133Y-56636712D01*
X54180133Y-56636712D02*
X54277984Y-56060347D01*
X54277984Y-56060347D02*
X54377585Y-55484280D01*
X54377585Y-55484280D02*
X54478937Y-54908515D01*
X54478937Y-54908515D02*
X54582043Y-54333060D01*
X54582043Y-54333060D02*
X54686902Y-53757920D01*
X54686902Y-53757920D02*
X54793518Y-53183101D01*
X54793518Y-53183101D02*
X54901890Y-52608609D01*
X54901890Y-52608609D02*
X55012021Y-52034450D01*
X55012021Y-52034450D02*
X55123911Y-51460629D01*
X55123911Y-51460629D02*
X55237562Y-50887153D01*
X55237562Y-50887153D02*
X55352976Y-50314027D01*
X55352976Y-50314027D02*
X55470154Y-49741258D01*
X55470154Y-49741258D02*
X55589097Y-49168851D01*
X55589097Y-49168851D02*
X55709807Y-48596812D01*
X55709807Y-48596812D02*
X55832284Y-48025147D01*
X55832284Y-48025147D02*
X55956531Y-47453862D01*
X55956531Y-47453862D02*
X56082549Y-46882962D01*
X56082549Y-46882962D02*
X56210339Y-46312455D01*
X56210339Y-46312455D02*
X56339902Y-45742345D01*
X56339902Y-45742345D02*
X56471240Y-45172638D01*
X56471240Y-45172638D02*
X56604355Y-44603341D01*
X56604355Y-44603341D02*
X56739247Y-44034460D01*
X70364312Y-9568410D02*
X70514202Y-9393427D01*
X70514202Y-9393427D02*
X70665824Y-9218544D01*
X70665824Y-9218544D02*
X70819271Y-9045645D01*
X70819271Y-9045645D02*
X70974640Y-8876612D01*
X70974640Y-8876612D02*
X71132027Y-8713332D01*
X71132027Y-8713332D02*
X71291528Y-8557688D01*
X71291528Y-8557688D02*
X71453239Y-8411564D01*
X71453239Y-8411564D02*
X71617255Y-8276845D01*
X71617255Y-8276845D02*
X71783672Y-8155414D01*
X71783672Y-8155414D02*
X72038010Y-8002308D01*
X72038010Y-8002308D02*
X72298290Y-7889700D01*
X72298290Y-7889700D02*
X72564836Y-7823952D01*
X72564836Y-7823952D02*
X72837971Y-7811421D01*
X72837971Y-7811421D02*
X73023882Y-7835774D01*
X75762842Y-10837580D02*
X75911804Y-11086234D01*
X75911804Y-11086234D02*
X76058798Y-11336117D01*
X76058798Y-11336117D02*
X76203873Y-11587187D01*
X76203873Y-11587187D02*
X76347080Y-11839400D01*
X76347080Y-11839400D02*
X76488468Y-12092716D01*
X76488468Y-12092716D02*
X76628087Y-12347092D01*
X76628087Y-12347092D02*
X76765985Y-12602487D01*
X76765985Y-12602487D02*
X76902214Y-12858859D01*
X76902214Y-12858859D02*
X77036823Y-13116166D01*
X77036823Y-13116166D02*
X77169861Y-13374367D01*
X77169861Y-13374367D02*
X77301378Y-13633419D01*
X77301378Y-13633419D02*
X77431424Y-13893280D01*
X77431424Y-13893280D02*
X77560048Y-14153909D01*
X77560048Y-14153909D02*
X77687301Y-14415264D01*
X77687301Y-14415264D02*
X77813232Y-14677303D01*
X77813232Y-14677303D02*
X77937890Y-14939984D01*
X77937890Y-14939984D02*
X78061326Y-15203265D01*
X78061326Y-15203265D02*
X78183589Y-15467105D01*
X78183589Y-15467105D02*
X78304728Y-15731462D01*
X78304728Y-15731462D02*
X78424794Y-15996293D01*
X78424794Y-15996293D02*
X78543836Y-16261557D01*
X78543836Y-16261557D02*
X78661904Y-16527213D01*
X78661904Y-16527213D02*
X78779047Y-16793217D01*
X78779047Y-16793217D02*
X78895316Y-17059530D01*
X78895316Y-17059530D02*
X79010759Y-17326107D01*
X79010759Y-17326107D02*
X79125428Y-17592909D01*
X79125428Y-17592909D02*
X79239370Y-17859892D01*
X79239370Y-17859892D02*
X79352637Y-18127016D01*
X79352637Y-18127016D02*
X79465277Y-18394237D01*
X79465277Y-18394237D02*
X79577341Y-18661516D01*
X79577341Y-18661516D02*
X79688878Y-18928808D01*
X79688878Y-18928808D02*
X79799938Y-19196074D01*
X84138501Y-31001603D02*
X84276174Y-31420956D01*
X84276174Y-31420956D02*
X84413004Y-31840590D01*
X84413004Y-31840590D02*
X84548989Y-32260503D01*
X84548989Y-32260503D02*
X84684128Y-32680693D01*
X84684128Y-32680693D02*
X84818420Y-33101158D01*
X84818420Y-33101158D02*
X84951864Y-33521896D01*
X84951864Y-33521896D02*
X85084458Y-33942905D01*
X85084458Y-33942905D02*
X85216202Y-34364184D01*
X85216202Y-34364184D02*
X85347094Y-34785729D01*
X85347094Y-34785729D02*
X85477133Y-35207540D01*
X85477133Y-35207540D02*
X85606318Y-35629614D01*
X85606318Y-35629614D02*
X85734648Y-36051949D01*
X85734648Y-36051949D02*
X85862121Y-36474544D01*
X85862121Y-36474544D02*
X85988736Y-36897396D01*
X85988736Y-36897396D02*
X86114493Y-37320503D01*
X86114493Y-37320503D02*
X86239390Y-37743864D01*
X86239390Y-37743864D02*
X86363425Y-38167476D01*
X86363425Y-38167476D02*
X86486598Y-38591337D01*
X86486598Y-38591337D02*
X86608907Y-39015446D01*
X86608907Y-39015446D02*
X86730352Y-39439801D01*
X86730352Y-39439801D02*
X86850931Y-39864399D01*
X86850931Y-39864399D02*
X86970643Y-40289239D01*
X86970643Y-40289239D02*
X87089486Y-40714319D01*
X87089486Y-40714319D02*
X87207460Y-41139636D01*
X87207460Y-41139636D02*
X87324563Y-41565189D01*
X87324563Y-41565189D02*
X87440795Y-41990976D01*
X87440795Y-41990976D02*
X87556153Y-42416995D01*
X87556153Y-42416995D02*
X87670637Y-42843243D01*
X87670637Y-42843243D02*
X87784246Y-43269719D01*
X87784246Y-43269719D02*
X87896979Y-43696421D01*
X87896979Y-43696421D02*
X88008834Y-44123347D01*
X88008834Y-44123347D02*
X88119810Y-44550496D01*
X92332854Y-73153477D02*
X92136880Y-73081124D01*
X92136880Y-73081124D02*
X91963190Y-72883617D01*
X91963190Y-72883617D02*
X91838142Y-72697486D01*
X91838142Y-72697486D02*
X91707844Y-72476345D01*
X91707844Y-72476345D02*
X91574145Y-72227527D01*
X91574145Y-72227527D02*
X91438893Y-71958366D01*
X91438893Y-71958366D02*
X91303933Y-71676198D01*
X91303933Y-71676198D02*
X91171115Y-71388356D01*
X91171115Y-71388356D02*
X91042285Y-71102174D01*
X91042285Y-71102174D02*
X90919291Y-70824987D01*
X90919291Y-70824987D02*
X90803980Y-70564129D01*
X90803980Y-70564129D02*
X90698199Y-70326934D01*
X90698199Y-70326934D02*
X90603797Y-70120737D01*
X90603797Y-70120737D02*
X90487569Y-69885606D01*
X74062391Y-8483769D02*
X74246643Y-8683591D01*
X74246643Y-8683591D02*
X74424363Y-8889733D01*
X74424363Y-8889733D02*
X74596033Y-9101502D01*
X74596033Y-9101502D02*
X74762135Y-9318201D01*
X74762135Y-9318201D02*
X74923153Y-9539137D01*
X74923153Y-9539137D02*
X75079569Y-9763614D01*
X75079569Y-9763614D02*
X75231865Y-9990937D01*
X75231865Y-9990937D02*
X75380525Y-10220412D01*
X75380525Y-10220412D02*
X75526030Y-10451343D01*
X75526030Y-10451343D02*
X75668864Y-10683037D01*
X75668864Y-10683037D02*
X75762842Y-10837580D01*
X92375765Y-70061552D02*
X92381431Y-70261560D01*
X92381431Y-70261560D02*
X92389483Y-70473526D01*
X92389483Y-70473526D02*
X92399170Y-70694695D01*
X92399170Y-70694695D02*
X92409743Y-70922310D01*
X92409743Y-70922310D02*
X92420453Y-71153616D01*
X92420453Y-71153616D02*
X92430549Y-71385858D01*
X92430549Y-71385858D02*
X92439282Y-71616279D01*
X92439282Y-71616279D02*
X92445903Y-71842124D01*
X92445903Y-71842124D02*
X92449661Y-72060638D01*
X92449661Y-72060638D02*
X92449808Y-72269064D01*
X92449808Y-72269064D02*
X92441615Y-72556762D01*
X92441615Y-72556762D02*
X92421078Y-72806264D01*
X92421078Y-72806264D02*
X92385668Y-73008269D01*
X92385668Y-73008269D02*
X92332854Y-73153477D01*
X66000000Y-16750000D02*
X66114604Y-16515786D01*
X66114604Y-16515786D02*
X66229948Y-16281298D01*
X66229948Y-16281298D02*
X66346098Y-16046626D01*
X66346098Y-16046626D02*
X66463121Y-15811862D01*
X66463121Y-15811862D02*
X66581082Y-15577095D01*
X66581082Y-15577095D02*
X66700049Y-15342416D01*
X66700049Y-15342416D02*
X66820088Y-15107917D01*
X66820088Y-15107917D02*
X66941266Y-14873686D01*
X66941266Y-14873686D02*
X67063649Y-14639816D01*
X67063649Y-14639816D02*
X67187304Y-14406396D01*
X67187304Y-14406396D02*
X67312298Y-14173516D01*
X67312298Y-14173516D02*
X67438697Y-13941269D01*
X67438697Y-13941269D02*
X67566567Y-13709744D01*
X67566567Y-13709744D02*
X67695976Y-13479031D01*
X67695976Y-13479031D02*
X67826990Y-13249221D01*
X67826990Y-13249221D02*
X67959676Y-13020406D01*
X67959676Y-13020406D02*
X68094099Y-12792674D01*
X68094099Y-12792674D02*
X68230327Y-12566118D01*
X68230327Y-12566118D02*
X68368427Y-12340827D01*
X68368427Y-12340827D02*
X68508464Y-12116892D01*
X68508464Y-12116892D02*
X68650506Y-11894404D01*
X68650506Y-11894404D02*
X68794620Y-11673453D01*
X68794620Y-11673453D02*
X68940870Y-11454130D01*
X68940870Y-11454130D02*
X69089325Y-11236525D01*
X69089325Y-11236525D02*
X69240051Y-11020728D01*
X69240051Y-11020728D02*
X69393115Y-10806832D01*
X69393115Y-10806832D02*
X69548582Y-10594925D01*
X69548582Y-10594925D02*
X69706520Y-10385098D01*
X69706520Y-10385098D02*
X69866996Y-10177443D01*
X69866996Y-10177443D02*
X70030075Y-9972050D01*
X70030075Y-9972050D02*
X70195825Y-9769008D01*
X70195825Y-9769008D02*
X70364312Y-9568410D01*
M02*
